<?xml version="1.0" encoding="UTF-8" standalone="no"?>
<!DOCTYPE svg PUBLIC "-//W3C//DTD SVG 1.1//EN"
 "http://www.w3.org/Graphics/SVG/1.1/DTD/svg11.dtd">
<!-- Generated by graphviz version 2.30.1 (20201013.1554)
 -->
<!-- Title: Pipeline Pages: 1 -->
<svg width="872pt" height="446pt"
 viewBox="0.00 0.00 872.00 446.00" xmlns="http://www.w3.org/2000/svg" xmlns:xlink="http://www.w3.org/1999/xlink">
<g id="graph0" class="graph" transform="scale(1 1) rotate(0) translate(4 442)">
<title>Pipeline</title>
<polygon fill="white" stroke="white" points="-4,5 -4,-442 869,-442 869,5 -4,5"/>
<!-- makeWarp:2 -->
<g id="node1" class="node"><title>makeWarp:2</title>
<polygon fill="#b1f2ef" stroke="black" stroke-width="3" points="568.25,-283.5 219.75,-283.5 219.75,-184.5 568.25,-184.5 568.25,-283.5"/>
<text text-anchor="start" x="241" y="-255.1" font-family="Monospace" font-weight="bold" font-size="18.00">makeWarp</text>
<text text-anchor="start" x="241" y="-227.8" font-family="Monospace" font-size="14.00">lsst.pipe.tasks.makeWarp.MakeWarpTask</text>
<text text-anchor="start" x="241" y="-201.8" font-family="Monospace" font-style="italic" font-size="14.00">dimensions:</text>
<text text-anchor="start" x="332" y="-201.8" font-family="Monospace" font-size="14.00"> {patch, visit}</text>
</g>
<!-- 407c682f:0 -->
<g id="node5" class="node"><title>407c682f:0</title>
<path fill="#f5f5f5" stroke="#00babc" stroke-width="3" d="M530,-129.5C530,-129.5 258,-129.5 258,-129.5 252,-129.5 246,-123.5 246,-117.5 246,-117.5 246,-12.5 246,-12.5 246,-6.5 252,-0.5 258,-0.5 258,-0.5 530,-0.5 530,-0.5 536,-0.5 542,-6.5 542,-12.5 542,-12.5 542,-117.5 542,-117.5 542,-123.5 536,-129.5 530,-129.5"/>
<text text-anchor="start" x="267" y="-101.1" font-family="Monospace" font-weight="bold" font-size="18.00">deepCoadd_psfMatchedWarp</text>
<text text-anchor="start" x="267" y="-70.6" font-family="Monospace" font-weight="bold" font-size="18.00">deepCoadd_directWarp</text>
<text text-anchor="start" x="267" y="-43.8" font-family="Monospace" font-style="italic" font-size="14.00">dimensions:</text>
<text text-anchor="start" x="358" y="-43.8" font-family="Monospace" font-size="14.00"> {patch, visit}</text>
<text text-anchor="start" x="267" y="-17.8" font-family="Monospace" font-style="italic" font-size="14.00">storage class:</text>
<text text-anchor="start" x="383" y="-17.8" font-family="Monospace" font-size="14.00"> ExposureF</text>
</g>
<!-- makeWarp:2&#45;&gt;407c682f:0 -->
<g id="edge1" class="edge"><title>makeWarp:2&#45;&gt;407c682f:0</title>
<path fill="none" stroke="black" stroke-width="1.5" d="M394,-184.208C394,-184.208 394,-144.804 394,-144.804"/>
<polygon fill="black" stroke="black" points="399.25,-144.804 394,-129.804 388.75,-144.804 399.25,-144.804"/>
</g>
<!-- skyMap:0 -->
<g id="node2" class="node"><title>skyMap:0</title>
<path fill="#f5f5f5" stroke="#00babc" stroke-width="3" d="M204.25,-437.5C204.25,-437.5 11.75,-437.5 11.75,-437.5 5.75,-437.5 -0.25,-431.5 -0.25,-425.5 -0.25,-425.5 -0.25,-350.5 -0.25,-350.5 -0.25,-344.5 5.75,-338.5 11.75,-338.5 11.75,-338.5 204.25,-338.5 204.25,-338.5 210.25,-338.5 216.25,-344.5 216.25,-350.5 216.25,-350.5 216.25,-425.5 216.25,-425.5 216.25,-431.5 210.25,-437.5 204.25,-437.5"/>
<text text-anchor="start" x="21" y="-409.1" font-family="Monospace" font-weight="bold" font-size="18.00">skyMap</text>
<text text-anchor="start" x="21" y="-381.8" font-family="Monospace" font-style="italic" font-size="14.00">dimensions:</text>
<text text-anchor="start" x="112" y="-381.8" font-family="Monospace" font-size="14.00"> {skymap}</text>
<text text-anchor="start" x="21" y="-355.8" font-family="Monospace" font-style="italic" font-size="14.00">storage class:</text>
<text text-anchor="start" x="137" y="-355.8" font-family="Monospace" font-size="14.00"> SkyMap</text>
</g>
<!-- skyMap:0&#45;&gt;makeWarp:2 -->
<g id="edge2" class="edge"><title>skyMap:0&#45;&gt;makeWarp:2</title>
<path fill="none" stroke="black" stroke-width="1.5" d="M216.492,-388C228.359,-388 236.25,-388 236.25,-388 236.25,-388 236.25,-298.574 236.25,-298.574"/>
<polygon fill="black" stroke="black" points="241.5,-298.574 236.25,-283.574 231,-298.574 241.5,-298.574"/>
</g>
<!-- injected_calexp:0 -->
<g id="node3" class="node"><title>injected_calexp:0</title>
<path fill="#f5f5f5" stroke="#00babc" stroke-width="3" d="M523.25,-437.5C523.25,-437.5 264.75,-437.5 264.75,-437.5 258.75,-437.5 252.75,-431.5 252.75,-425.5 252.75,-425.5 252.75,-350.5 252.75,-350.5 252.75,-344.5 258.75,-338.5 264.75,-338.5 264.75,-338.5 523.25,-338.5 523.25,-338.5 529.25,-338.5 535.25,-344.5 535.25,-350.5 535.25,-350.5 535.25,-425.5 535.25,-425.5 535.25,-431.5 529.25,-437.5 523.25,-437.5"/>
<text text-anchor="start" x="274" y="-409.1" font-family="Monospace" font-weight="bold" font-size="18.00">injected_calexp</text>
<text text-anchor="start" x="274" y="-381.8" font-family="Monospace" font-style="italic" font-size="14.00">dimensions:</text>
<text text-anchor="start" x="365" y="-381.8" font-family="Monospace" font-size="14.00"> {detector, visit}</text>
<text text-anchor="start" x="274" y="-355.8" font-family="Monospace" font-style="italic" font-size="14.00">storage class:</text>
<text text-anchor="start" x="390" y="-355.8" font-family="Monospace" font-size="14.00"> ExposureF</text>
</g>
<!-- injected_calexp:0&#45;&gt;makeWarp:2 -->
<g id="edge3" class="edge"><title>injected_calexp:0&#45;&gt;makeWarp:2</title>
<path fill="none" stroke="black" stroke-width="1.5" d="M394,-338.426C394,-338.426 394,-298.745 394,-298.745"/>
<polygon fill="black" stroke="black" points="399.25,-298.745 394,-283.745 388.75,-298.745 399.25,-298.745"/>
</g>
<!-- finalVisitSummary:0 -->
<g id="node4" class="node"><title>finalVisitSummary:0</title>
<path fill="#f5f5f5" stroke="#00babc" stroke-width="3" d="M852,-437.5C852,-437.5 584,-437.5 584,-437.5 578,-437.5 572,-431.5 572,-425.5 572,-425.5 572,-350.5 572,-350.5 572,-344.5 578,-338.5 584,-338.5 584,-338.5 852,-338.5 852,-338.5 858,-338.5 864,-344.5 864,-350.5 864,-350.5 864,-425.5 864,-425.5 864,-431.5 858,-437.5 852,-437.5"/>
<text text-anchor="start" x="593" y="-409.1" font-family="Monospace" font-weight="bold" font-size="18.00">finalVisitSummary</text>
<text text-anchor="start" x="593" y="-381.8" font-family="Monospace" font-style="italic" font-size="14.00">dimensions:</text>
<text text-anchor="start" x="684" y="-381.8" font-family="Monospace" font-size="14.00"> {visit}</text>
<text text-anchor="start" x="593" y="-355.8" font-family="Monospace" font-style="italic" font-size="14.00">storage class:</text>
<text text-anchor="start" x="709" y="-355.8" font-family="Monospace" font-size="14.00"> ExposureCatalog</text>
</g>
<!-- finalVisitSummary:0&#45;&gt;makeWarp:2 -->
<g id="edge4" class="edge"><title>finalVisitSummary:0&#45;&gt;makeWarp:2</title>
<path fill="none" stroke="black" stroke-width="1.5" d="M571.804,-388C559.564,-388 551.75,-388 551.75,-388 551.75,-388 551.75,-298.574 551.75,-298.574"/>
<polygon fill="black" stroke="black" points="557,-298.574 551.75,-283.574 546.5,-298.574 557,-298.574"/>
</g>
</g>
</svg>
