<?xml version="1.0" encoding="UTF-8" standalone="no"?>
<!DOCTYPE svg PUBLIC "-//W3C//DTD SVG 1.1//EN"
 "http://www.w3.org/Graphics/SVG/1.1/DTD/svg11.dtd">
<!-- Generated by graphviz version 2.30.1 (20201013.1554)
 -->
<!-- Title: Pipeline Pages: 1 -->
<svg width="668pt" height="416pt"
 viewBox="0.00 0.00 668.00 416.00" xmlns="http://www.w3.org/2000/svg" xmlns:xlink="http://www.w3.org/1999/xlink">
<g id="graph0" class="graph" transform="scale(1 1) rotate(0) translate(4 412)">
<title>Pipeline</title>
<polygon fill="white" stroke="white" points="-4,5 -4,-412 665,-412 665,5 -4,5"/>
<!-- cpFlatCombine:2 -->
<g id="node1" class="node"><title>cpFlatCombine:2</title>
<polygon fill="#b1f2ef" stroke="black" stroke-width="3" points="547.25,-253.5 116.75,-253.5 116.75,-154.5 547.25,-154.5 547.25,-253.5"/>
<text text-anchor="start" x="138" y="-225.1" font-family="Monospace" font-weight="bold" font-size="18.00">cpFlatCombine</text>
<text text-anchor="start" x="138" y="-197.8" font-family="Monospace" font-size="14.00">lsst.cp.pipe.cpCombine.CalibCombineByFilterTask</text>
<text text-anchor="start" x="138" y="-171.8" font-family="Monospace" font-style="italic" font-size="14.00">dimensions:</text>
<text text-anchor="start" x="229" y="-171.8" font-family="Monospace" font-size="14.00"> {detector, physical_filter}</text>
</g>
<!-- flat:0 -->
<g id="node4" class="node"><title>flat:0</title>
<path fill="#f5f5f5" stroke="#00babc" stroke-width="3" d="M503,-99.5C503,-99.5 161,-99.5 161,-99.5 155,-99.5 149,-93.5 149,-87.5 149,-87.5 149,-12.5 149,-12.5 149,-6.5 155,-0.5 161,-0.5 161,-0.5 503,-0.5 503,-0.5 509,-0.5 515,-6.5 515,-12.5 515,-12.5 515,-87.5 515,-87.5 515,-93.5 509,-99.5 503,-99.5"/>
<text text-anchor="start" x="170" y="-71.1" font-family="Monospace" font-weight="bold" font-size="18.00">flat</text>
<text text-anchor="start" x="170" y="-43.8" font-family="Monospace" font-style="italic" font-size="14.00">dimensions:</text>
<text text-anchor="start" x="261" y="-43.8" font-family="Monospace" font-size="14.00"> {detector, physical_filter}</text>
<text text-anchor="start" x="170" y="-17.8" font-family="Monospace" font-style="italic" font-size="14.00">storage class:</text>
<text text-anchor="start" x="286" y="-17.8" font-family="Monospace" font-size="14.00"> ExposureF</text>
</g>
<!-- cpFlatCombine:2&#45;&gt;flat:0 -->
<g id="edge1" class="edge"><title>cpFlatCombine:2&#45;&gt;flat:0</title>
<path fill="none" stroke="black" stroke-width="1.5" d="M332,-154.426C332,-154.426 332,-114.745 332,-114.745"/>
<polygon fill="black" stroke="black" points="337.25,-114.745 332,-99.7452 326.75,-114.745 337.25,-114.745"/>
</g>
<!-- cpFlatNormalizeScales:0 -->
<g id="node2" class="node"><title>cpFlatNormalizeScales:0</title>
<path fill="#f5f5f5" stroke="#00babc" stroke-width="3" d="M304,-407.5C304,-407.5 12,-407.5 12,-407.5 6,-407.5 0,-401.5 0,-395.5 0,-395.5 0,-320.5 0,-320.5 0,-314.5 6,-308.5 12,-308.5 12,-308.5 304,-308.5 304,-308.5 310,-308.5 316,-314.5 316,-320.5 316,-320.5 316,-395.5 316,-395.5 316,-401.5 310,-407.5 304,-407.5"/>
<text text-anchor="start" x="21" y="-379.1" font-family="Monospace" font-weight="bold" font-size="18.00">cpFlatNormalizeScales</text>
<text text-anchor="start" x="21" y="-351.8" font-family="Monospace" font-style="italic" font-size="14.00">dimensions:</text>
<text text-anchor="start" x="112" y="-351.8" font-family="Monospace" font-size="14.00"> {physical_filter}</text>
<text text-anchor="start" x="21" y="-325.8" font-family="Monospace" font-style="italic" font-size="14.00">storage class:</text>
<text text-anchor="start" x="137" y="-325.8" font-family="Monospace" font-size="14.00"> StructuredDataDict</text>
</g>
<!-- cpFlatNormalizeScales:0&#45;&gt;cpFlatCombine:2 -->
<g id="edge2" class="edge"><title>cpFlatNormalizeScales:0&#45;&gt;cpFlatCombine:2</title>
<path fill="none" stroke="black" stroke-width="1.5" d="M216.375,-308.426C216.375,-308.426 216.375,-268.745 216.375,-268.745"/>
<polygon fill="black" stroke="black" points="221.625,-268.745 216.375,-253.745 211.125,-268.745 221.625,-268.745"/>
</g>
<!-- cpFlatIsrExp:0 -->
<g id="node3" class="node"><title>cpFlatIsrExp:0</title>
<path fill="#f5f5f5" stroke="#00babc" stroke-width="3" d="M648,-407.5C648,-407.5 364,-407.5 364,-407.5 358,-407.5 352,-401.5 352,-395.5 352,-395.5 352,-320.5 352,-320.5 352,-314.5 358,-308.5 364,-308.5 364,-308.5 648,-308.5 648,-308.5 654,-308.5 660,-314.5 660,-320.5 660,-320.5 660,-395.5 660,-395.5 660,-401.5 654,-407.5 648,-407.5"/>
<text text-anchor="start" x="373" y="-379.1" font-family="Monospace" font-weight="bold" font-size="18.00">cpFlatIsrExp</text>
<text text-anchor="start" x="373" y="-351.8" font-family="Monospace" font-style="italic" font-size="14.00">dimensions:</text>
<text text-anchor="start" x="464" y="-351.8" font-family="Monospace" font-size="14.00"> {detector, exposure}</text>
<text text-anchor="start" x="373" y="-325.8" font-family="Monospace" font-style="italic" font-size="14.00">storage class:</text>
<text text-anchor="start" x="489" y="-325.8" font-family="Monospace" font-size="14.00"> Exposure</text>
</g>
<!-- cpFlatIsrExp:0&#45;&gt;cpFlatCombine:2 -->
<g id="edge3" class="edge"><title>cpFlatIsrExp:0&#45;&gt;cpFlatCombine:2</title>
<path fill="none" stroke="black" stroke-width="1.5" d="M449.625,-308.426C449.625,-308.426 449.625,-268.745 449.625,-268.745"/>
<polygon fill="black" stroke="black" points="454.875,-268.745 449.625,-253.745 444.375,-268.745 454.875,-268.745"/>
</g>
</g>
</svg>
