<?xml version="1.0" encoding="UTF-8" standalone="no"?>
<!DOCTYPE svg PUBLIC "-//W3C//DTD SVG 1.1//EN"
 "http://www.w3.org/Graphics/SVG/1.1/DTD/svg11.dtd">
<!-- Generated by graphviz version 2.30.1 (20201013.1554)
 -->
<!-- Title: Pipeline Pages: 1 -->
<svg width="594pt" height="416pt"
 viewBox="0.00 0.00 594.00 416.00" xmlns="http://www.w3.org/2000/svg" xmlns:xlink="http://www.w3.org/1999/xlink">
<g id="graph0" class="graph" transform="scale(1 1) rotate(0) translate(4 412)">
<title>Pipeline</title>
<polygon fill="white" stroke="white" points="-4,5 -4,-412 591,-412 591,5 -4,5"/>
<!-- cpBiasIsr:2 -->
<g id="node1" class="node"><title>cpBiasIsr:2</title>
<polygon fill="#b1f2ef" stroke="black" stroke-width="3" points="430,-253.5 122,-253.5 122,-154.5 430,-154.5 430,-253.5"/>
<text text-anchor="start" x="143" y="-225.1" font-family="Monospace" font-weight="bold" font-size="18.00">cpBiasIsr</text>
<text text-anchor="start" x="143" y="-197.8" font-family="Monospace" font-size="14.00">lsst.ip.isr.isrTask.IsrTask</text>
<text text-anchor="start" x="143" y="-171.8" font-family="Monospace" font-style="italic" font-size="14.00">dimensions:</text>
<text text-anchor="start" x="234" y="-171.8" font-family="Monospace" font-size="14.00"> {detector, exposure}</text>
</g>
<!-- cpBiasIsrExp:0 -->
<g id="node4" class="node"><title>cpBiasIsrExp:0</title>
<path fill="#f5f5f5" stroke="#00babc" stroke-width="3" d="M418,-99.5C418,-99.5 134,-99.5 134,-99.5 128,-99.5 122,-93.5 122,-87.5 122,-87.5 122,-12.5 122,-12.5 122,-6.5 128,-0.5 134,-0.5 134,-0.5 418,-0.5 418,-0.5 424,-0.5 430,-6.5 430,-12.5 430,-12.5 430,-87.5 430,-87.5 430,-93.5 424,-99.5 418,-99.5"/>
<text text-anchor="start" x="143" y="-71.1" font-family="Monospace" font-weight="bold" font-size="18.00">cpBiasIsrExp</text>
<text text-anchor="start" x="143" y="-43.8" font-family="Monospace" font-style="italic" font-size="14.00">dimensions:</text>
<text text-anchor="start" x="234" y="-43.8" font-family="Monospace" font-size="14.00"> {detector, exposure}</text>
<text text-anchor="start" x="143" y="-17.8" font-family="Monospace" font-style="italic" font-size="14.00">storage class:</text>
<text text-anchor="start" x="259" y="-17.8" font-family="Monospace" font-size="14.00"> Exposure</text>
</g>
<!-- cpBiasIsr:2&#45;&gt;cpBiasIsrExp:0 -->
<g id="edge1" class="edge"><title>cpBiasIsr:2&#45;&gt;cpBiasIsrExp:0</title>
<path fill="none" stroke="black" stroke-width="1.5" d="M276,-154.426C276,-154.426 276,-114.745 276,-114.745"/>
<polygon fill="black" stroke="black" points="281.25,-114.745 276,-99.7452 270.75,-114.745 281.25,-114.745"/>
</g>
<!-- camera:0 -->
<g id="node2" class="node"><title>camera:0</title>
<path fill="#f5f5f5" stroke="#00babc" stroke-width="3" d="M230,-407.5C230,-407.5 12,-407.5 12,-407.5 6,-407.5 0,-401.5 0,-395.5 0,-395.5 0,-320.5 0,-320.5 0,-314.5 6,-308.5 12,-308.5 12,-308.5 230,-308.5 230,-308.5 236,-308.5 242,-314.5 242,-320.5 242,-320.5 242,-395.5 242,-395.5 242,-401.5 236,-407.5 230,-407.5"/>
<text text-anchor="start" x="21" y="-379.1" font-family="Monospace" font-weight="bold" font-size="18.00">camera</text>
<text text-anchor="start" x="21" y="-351.8" font-family="Monospace" font-style="italic" font-size="14.00">dimensions:</text>
<text text-anchor="start" x="112" y="-351.8" font-family="Monospace" font-size="14.00"> {instrument}</text>
<text text-anchor="start" x="21" y="-325.8" font-family="Monospace" font-style="italic" font-size="14.00">storage class:</text>
<text text-anchor="start" x="137" y="-325.8" font-family="Monospace" font-size="14.00"> Camera</text>
</g>
<!-- camera:0&#45;&gt;cpBiasIsr:2 -->
<g id="edge2" class="edge"><title>camera:0&#45;&gt;cpBiasIsr:2</title>
<path fill="none" stroke="black" stroke-width="1.5" stroke-dasharray="5,2" d="M182,-308.426C182,-308.426 182,-268.745 182,-268.745"/>
<polygon fill="black" stroke="black" points="187.25,-268.745 182,-253.745 176.75,-268.745 187.25,-268.745"/>
</g>
<!-- raw:0 -->
<g id="node3" class="node"><title>raw:0</title>
<path fill="#f5f5f5" stroke="#00babc" stroke-width="3" d="M574,-407.5C574,-407.5 290,-407.5 290,-407.5 284,-407.5 278,-401.5 278,-395.5 278,-395.5 278,-320.5 278,-320.5 278,-314.5 284,-308.5 290,-308.5 290,-308.5 574,-308.5 574,-308.5 580,-308.5 586,-314.5 586,-320.5 586,-320.5 586,-395.5 586,-395.5 586,-401.5 580,-407.5 574,-407.5"/>
<text text-anchor="start" x="299" y="-379.1" font-family="Monospace" font-weight="bold" font-size="18.00">raw</text>
<text text-anchor="start" x="299" y="-351.8" font-family="Monospace" font-style="italic" font-size="14.00">dimensions:</text>
<text text-anchor="start" x="390" y="-351.8" font-family="Monospace" font-size="14.00"> {detector, exposure}</text>
<text text-anchor="start" x="299" y="-325.8" font-family="Monospace" font-style="italic" font-size="14.00">storage class:</text>
<text text-anchor="start" x="415" y="-325.8" font-family="Monospace" font-size="14.00"> Exposure</text>
</g>
<!-- raw:0&#45;&gt;cpBiasIsr:2 -->
<g id="edge3" class="edge"><title>raw:0&#45;&gt;cpBiasIsr:2</title>
<path fill="none" stroke="black" stroke-width="1.5" d="M354,-308.426C354,-308.426 354,-268.745 354,-268.745"/>
<polygon fill="black" stroke="black" points="359.25,-268.745 354,-253.745 348.75,-268.745 359.25,-268.745"/>
</g>
</g>
</svg>
