<?xml version="1.0" encoding="UTF-8" standalone="no"?>
<!DOCTYPE svg PUBLIC "-//W3C//DTD SVG 1.1//EN"
 "http://www.w3.org/Graphics/SVG/1.1/DTD/svg11.dtd">
<!-- Generated by graphviz version 2.30.1 (20201013.1554)
 -->
<!-- Title: Pipeline Pages: 1 -->
<svg width="1523pt" height="416pt"
 viewBox="0.00 0.00 1523.00 416.00" xmlns="http://www.w3.org/2000/svg" xmlns:xlink="http://www.w3.org/1999/xlink">
<g id="graph0" class="graph" transform="scale(1 1) rotate(0) translate(4 412)">
<title>Pipeline</title>
<polygon fill="white" stroke="white" points="-4,5 -4,-412 1520,-412 1520,5 -4,5"/>
<!-- forcedPhotCcdOnDiaObjects:2 -->
<g id="node1" class="node"><title>forcedPhotCcdOnDiaObjects:2</title>
<polygon fill="#b1f2ef" stroke="black" stroke-width="3" points="706,-253.5 176,-253.5 176,-154.5 706,-154.5 706,-253.5"/>
<text text-anchor="start" x="197" y="-225.1" font-family="Monospace" font-weight="bold" font-size="18.00">forcedPhotCcdOnDiaObjects</text>
<text text-anchor="start" x="197" y="-197.8" font-family="Monospace" font-size="14.00">lsst.meas.base.forcedPhotCcd.ForcedPhotCcdFromDataFrameTask</text>
<text text-anchor="start" x="197" y="-171.8" font-family="Monospace" font-style="italic" font-size="14.00">dimensions:</text>
<text text-anchor="start" x="288" y="-171.8" font-family="Monospace" font-size="14.00"> {detector, tract, visit}</text>
</g>
<!-- forced_src_diaObject:0 -->
<g id="node6" class="node"><title>forced_src_diaObject:0</title>
<path fill="#f5f5f5" stroke="#00babc" stroke-width="3" d="M599.25,-99.5C599.25,-99.5 282.75,-99.5 282.75,-99.5 276.75,-99.5 270.75,-93.5 270.75,-87.5 270.75,-87.5 270.75,-12.5 270.75,-12.5 270.75,-6.5 276.75,-0.5 282.75,-0.5 282.75,-0.5 599.25,-0.5 599.25,-0.5 605.25,-0.5 611.25,-6.5 611.25,-12.5 611.25,-12.5 611.25,-87.5 611.25,-87.5 611.25,-93.5 605.25,-99.5 599.25,-99.5"/>
<text text-anchor="start" x="292" y="-71.1" font-family="Monospace" font-weight="bold" font-size="18.00">forced_src_diaObject</text>
<text text-anchor="start" x="292" y="-43.8" font-family="Monospace" font-style="italic" font-size="14.00">dimensions:</text>
<text text-anchor="start" x="383" y="-43.8" font-family="Monospace" font-size="14.00"> {detector, tract, visit}</text>
<text text-anchor="start" x="292" y="-17.8" font-family="Monospace" font-style="italic" font-size="14.00">storage class:</text>
<text text-anchor="start" x="408" y="-17.8" font-family="Monospace" font-size="14.00"> SourceCatalog</text>
</g>
<!-- forcedPhotCcdOnDiaObjects:2&#45;&gt;forced_src_diaObject:0 -->
<g id="edge1" class="edge"><title>forcedPhotCcdOnDiaObjects:2&#45;&gt;forced_src_diaObject:0</title>
<path fill="none" stroke="black" stroke-width="1.5" d="M441,-154.426C441,-154.426 441,-114.745 441,-114.745"/>
<polygon fill="black" stroke="black" points="446.25,-114.745 441,-99.7452 435.75,-114.745 446.25,-114.745"/>
</g>
<!-- skyMap:0 -->
<g id="node2" class="node"><title>skyMap:0</title>
<path fill="#f5f5f5" stroke="#00babc" stroke-width="3" d="M523.25,-407.5C523.25,-407.5 330.75,-407.5 330.75,-407.5 324.75,-407.5 318.75,-401.5 318.75,-395.5 318.75,-395.5 318.75,-320.5 318.75,-320.5 318.75,-314.5 324.75,-308.5 330.75,-308.5 330.75,-308.5 523.25,-308.5 523.25,-308.5 529.25,-308.5 535.25,-314.5 535.25,-320.5 535.25,-320.5 535.25,-395.5 535.25,-395.5 535.25,-401.5 529.25,-407.5 523.25,-407.5"/>
<text text-anchor="start" x="340" y="-379.1" font-family="Monospace" font-weight="bold" font-size="18.00">skyMap</text>
<text text-anchor="start" x="340" y="-351.8" font-family="Monospace" font-style="italic" font-size="14.00">dimensions:</text>
<text text-anchor="start" x="431" y="-351.8" font-family="Monospace" font-size="14.00"> {skymap}</text>
<text text-anchor="start" x="340" y="-325.8" font-family="Monospace" font-style="italic" font-size="14.00">storage class:</text>
<text text-anchor="start" x="456" y="-325.8" font-family="Monospace" font-size="14.00"> SkyMap</text>
</g>
<!-- skyMap:0&#45;&gt;forcedPhotCcdOnDiaObjects:2 -->
<g id="edge2" class="edge"><title>skyMap:0&#45;&gt;forcedPhotCcdOnDiaObjects:2</title>
<path fill="none" stroke="black" stroke-width="1.5" d="M390.917,-308.426C390.917,-308.426 390.917,-268.745 390.917,-268.745"/>
<polygon fill="black" stroke="black" points="396.167,-268.745 390.917,-253.745 385.667,-268.745 396.167,-268.745"/>
</g>
<!-- forcedPhotDiffOnDiaObjects:2 -->
<g id="node7" class="node"><title>forcedPhotDiffOnDiaObjects:2</title>
<polygon fill="#b1f2ef" stroke="black" stroke-width="3" points="1299,-253.5 769,-253.5 769,-154.5 1299,-154.5 1299,-253.5"/>
<text text-anchor="start" x="790" y="-225.1" font-family="Monospace" font-weight="bold" font-size="18.00">forcedPhotDiffOnDiaObjects</text>
<text text-anchor="start" x="790" y="-197.8" font-family="Monospace" font-size="14.00">lsst.meas.base.forcedPhotCcd.ForcedPhotCcdFromDataFrameTask</text>
<text text-anchor="start" x="790" y="-171.8" font-family="Monospace" font-style="italic" font-size="14.00">dimensions:</text>
<text text-anchor="start" x="881" y="-171.8" font-family="Monospace" font-size="14.00"> {detector, tract, visit}</text>
</g>
<!-- skyMap:0&#45;&gt;forcedPhotDiffOnDiaObjects:2 -->
<g id="edge3" class="edge"><title>skyMap:0&#45;&gt;forcedPhotDiffOnDiaObjects:2</title>
<path fill="none" stroke="black" stroke-width="1.5" d="M463.083,-308.401C463.083,-288.863 463.083,-271 463.083,-271 463.083,-271 800.667,-271 800.667,-271 800.667,-271 800.667,-268.746 800.667,-268.746"/>
<polygon fill="black" stroke="black" points="805.917,-268.746 800.667,-253.746 795.417,-268.746 805.917,-268.746"/>
</g>
<!-- injected_calexp:0 -->
<g id="node3" class="node"><title>injected_calexp:0</title>
<path fill="#f5f5f5" stroke="#00babc" stroke-width="3" d="M270.25,-407.5C270.25,-407.5 11.75,-407.5 11.75,-407.5 5.75,-407.5 -0.25,-401.5 -0.25,-395.5 -0.25,-395.5 -0.25,-320.5 -0.25,-320.5 -0.25,-314.5 5.75,-308.5 11.75,-308.5 11.75,-308.5 270.25,-308.5 270.25,-308.5 276.25,-308.5 282.25,-314.5 282.25,-320.5 282.25,-320.5 282.25,-395.5 282.25,-395.5 282.25,-401.5 276.25,-407.5 270.25,-407.5"/>
<text text-anchor="start" x="21" y="-379.1" font-family="Monospace" font-weight="bold" font-size="18.00">injected_calexp</text>
<text text-anchor="start" x="21" y="-351.8" font-family="Monospace" font-style="italic" font-size="14.00">dimensions:</text>
<text text-anchor="start" x="112" y="-351.8" font-family="Monospace" font-size="14.00"> {detector, visit}</text>
<text text-anchor="start" x="21" y="-325.8" font-family="Monospace" font-style="italic" font-size="14.00">storage class:</text>
<text text-anchor="start" x="137" y="-325.8" font-family="Monospace" font-size="14.00"> ExposureF</text>
</g>
<!-- injected_calexp:0&#45;&gt;forcedPhotCcdOnDiaObjects:2 -->
<g id="edge4" class="edge"><title>injected_calexp:0&#45;&gt;forcedPhotCcdOnDiaObjects:2</title>
<path fill="none" stroke="black" stroke-width="1.5" d="M229.125,-308.426C229.125,-308.426 229.125,-268.745 229.125,-268.745"/>
<polygon fill="black" stroke="black" points="234.375,-268.745 229.125,-253.745 223.875,-268.745 234.375,-268.745"/>
</g>
<!-- finalVisitSummary:0 -->
<g id="node4" class="node"><title>finalVisitSummary:0</title>
<path fill="#f5f5f5" stroke="#00babc" stroke-width="3" d="M852,-407.5C852,-407.5 584,-407.5 584,-407.5 578,-407.5 572,-401.5 572,-395.5 572,-395.5 572,-320.5 572,-320.5 572,-314.5 578,-308.5 584,-308.5 584,-308.5 852,-308.5 852,-308.5 858,-308.5 864,-314.5 864,-320.5 864,-320.5 864,-395.5 864,-395.5 864,-401.5 858,-407.5 852,-407.5"/>
<text text-anchor="start" x="593" y="-379.1" font-family="Monospace" font-weight="bold" font-size="18.00">finalVisitSummary</text>
<text text-anchor="start" x="593" y="-351.8" font-family="Monospace" font-style="italic" font-size="14.00">dimensions:</text>
<text text-anchor="start" x="684" y="-351.8" font-family="Monospace" font-size="14.00"> {visit}</text>
<text text-anchor="start" x="593" y="-325.8" font-family="Monospace" font-style="italic" font-size="14.00">storage class:</text>
<text text-anchor="start" x="709" y="-325.8" font-family="Monospace" font-size="14.00"> ExposureCatalog</text>
</g>
<!-- finalVisitSummary:0&#45;&gt;forcedPhotCcdOnDiaObjects:2 -->
<g id="edge5" class="edge"><title>finalVisitSummary:0&#45;&gt;forcedPhotCcdOnDiaObjects:2</title>
<path fill="none" stroke="black" stroke-width="1.5" d="M616.667,-308.426C616.667,-308.426 616.667,-268.745 616.667,-268.745"/>
<polygon fill="black" stroke="black" points="621.917,-268.745 616.667,-253.745 611.417,-268.745 621.917,-268.745"/>
</g>
<!-- finalVisitSummary:0&#45;&gt;forcedPhotDiffOnDiaObjects:2 -->
<g id="edge6" class="edge"><title>finalVisitSummary:0&#45;&gt;forcedPhotDiffOnDiaObjects:2</title>
<path fill="none" stroke="black" stroke-width="1.5" d="M832.333,-308.426C832.333,-308.426 832.333,-268.745 832.333,-268.745"/>
<polygon fill="black" stroke="black" points="837.583,-268.745 832.333,-253.745 827.083,-268.745 837.583,-268.745"/>
</g>
<!-- deepDiff_fullDiaObjTable:0 -->
<g id="node5" class="node"><title>deepDiff_fullDiaObjTable:0</title>
<path fill="#f5f5f5" stroke="#00babc" stroke-width="3" d="M1184,-407.5C1184,-407.5 912,-407.5 912,-407.5 906,-407.5 900,-401.5 900,-395.5 900,-395.5 900,-320.5 900,-320.5 900,-314.5 906,-308.5 912,-308.5 912,-308.5 1184,-308.5 1184,-308.5 1190,-308.5 1196,-314.5 1196,-320.5 1196,-320.5 1196,-395.5 1196,-395.5 1196,-401.5 1190,-407.5 1184,-407.5"/>
<text text-anchor="start" x="921" y="-379.1" font-family="Monospace" font-weight="bold" font-size="18.00">deepDiff_fullDiaObjTable</text>
<text text-anchor="start" x="921" y="-351.8" font-family="Monospace" font-style="italic" font-size="14.00">dimensions:</text>
<text text-anchor="start" x="1012" y="-351.8" font-family="Monospace" font-size="14.00"> {patch}</text>
<text text-anchor="start" x="921" y="-325.8" font-family="Monospace" font-style="italic" font-size="14.00">storage class:</text>
<text text-anchor="start" x="1037" y="-325.8" font-family="Monospace" font-size="14.00"> DataFrame</text>
</g>
<!-- deepDiff_fullDiaObjTable:0&#45;&gt;forcedPhotCcdOnDiaObjects:2 -->
<g id="edge7" class="edge"><title>deepDiff_fullDiaObjTable:0&#45;&gt;forcedPhotCcdOnDiaObjects:2</title>
<path fill="none" stroke="black" stroke-width="1.5" d="M998.667,-308.223C998.667,-297.854 998.667,-290 998.667,-290 998.667,-290 661.333,-290 661.333,-290 661.333,-290 661.333,-268.528 661.333,-268.528"/>
<polygon fill="black" stroke="black" points="666.583,-268.528 661.333,-253.528 656.083,-268.528 666.583,-268.528"/>
</g>
<!-- deepDiff_fullDiaObjTable:0&#45;&gt;forcedPhotDiffOnDiaObjects:2 -->
<g id="edge8" class="edge"><title>deepDiff_fullDiaObjTable:0&#45;&gt;forcedPhotDiffOnDiaObjects:2</title>
<path fill="none" stroke="black" stroke-width="1.5" d="M1097.33,-308.426C1097.33,-308.426 1097.33,-268.745 1097.33,-268.745"/>
<polygon fill="black" stroke="black" points="1102.58,-268.745 1097.33,-253.745 1092.08,-268.745 1102.58,-268.745"/>
</g>
<!-- forced_diff_diaObject:0 -->
<g id="node9" class="node"><title>forced_diff_diaObject:0</title>
<path fill="#f5f5f5" stroke="#00babc" stroke-width="3" d="M1192.25,-99.5C1192.25,-99.5 875.75,-99.5 875.75,-99.5 869.75,-99.5 863.75,-93.5 863.75,-87.5 863.75,-87.5 863.75,-12.5 863.75,-12.5 863.75,-6.5 869.75,-0.5 875.75,-0.5 875.75,-0.5 1192.25,-0.5 1192.25,-0.5 1198.25,-0.5 1204.25,-6.5 1204.25,-12.5 1204.25,-12.5 1204.25,-87.5 1204.25,-87.5 1204.25,-93.5 1198.25,-99.5 1192.25,-99.5"/>
<text text-anchor="start" x="885" y="-71.1" font-family="Monospace" font-weight="bold" font-size="18.00">forced_diff_diaObject</text>
<text text-anchor="start" x="885" y="-43.8" font-family="Monospace" font-style="italic" font-size="14.00">dimensions:</text>
<text text-anchor="start" x="976" y="-43.8" font-family="Monospace" font-size="14.00"> {detector, tract, visit}</text>
<text text-anchor="start" x="885" y="-17.8" font-family="Monospace" font-style="italic" font-size="14.00">storage class:</text>
<text text-anchor="start" x="1001" y="-17.8" font-family="Monospace" font-size="14.00"> SourceCatalog</text>
</g>
<!-- forcedPhotDiffOnDiaObjects:2&#45;&gt;forced_diff_diaObject:0 -->
<g id="edge9" class="edge"><title>forcedPhotDiffOnDiaObjects:2&#45;&gt;forced_diff_diaObject:0</title>
<path fill="none" stroke="black" stroke-width="1.5" d="M1034,-154.426C1034,-154.426 1034,-114.745 1034,-114.745"/>
<polygon fill="black" stroke="black" points="1039.25,-114.745 1034,-99.7452 1028.75,-114.745 1039.25,-114.745"/>
</g>
<!-- deepDiff_differenceExp:0 -->
<g id="node8" class="node"><title>deepDiff_differenceExp:0</title>
<path fill="#f5f5f5" stroke="#00babc" stroke-width="3" d="M1503.25,-407.5C1503.25,-407.5 1244.75,-407.5 1244.75,-407.5 1238.75,-407.5 1232.75,-401.5 1232.75,-395.5 1232.75,-395.5 1232.75,-320.5 1232.75,-320.5 1232.75,-314.5 1238.75,-308.5 1244.75,-308.5 1244.75,-308.5 1503.25,-308.5 1503.25,-308.5 1509.25,-308.5 1515.25,-314.5 1515.25,-320.5 1515.25,-320.5 1515.25,-395.5 1515.25,-395.5 1515.25,-401.5 1509.25,-407.5 1503.25,-407.5"/>
<text text-anchor="start" x="1254" y="-379.1" font-family="Monospace" font-weight="bold" font-size="18.00">deepDiff_differenceExp</text>
<text text-anchor="start" x="1254" y="-351.8" font-family="Monospace" font-style="italic" font-size="14.00">dimensions:</text>
<text text-anchor="start" x="1345" y="-351.8" font-family="Monospace" font-size="14.00"> {detector, visit}</text>
<text text-anchor="start" x="1254" y="-325.8" font-family="Monospace" font-style="italic" font-size="14.00">storage class:</text>
<text text-anchor="start" x="1370" y="-325.8" font-family="Monospace" font-size="14.00"> ExposureF</text>
</g>
<!-- deepDiff_differenceExp:0&#45;&gt;forcedPhotDiffOnDiaObjects:2 -->
<g id="edge10" class="edge"><title>deepDiff_differenceExp:0&#45;&gt;forcedPhotDiffOnDiaObjects:2</title>
<path fill="none" stroke="black" stroke-width="1.5" d="M1265.88,-308.426C1265.88,-308.426 1265.88,-268.745 1265.88,-268.745"/>
<polygon fill="black" stroke="black" points="1271.13,-268.745 1265.88,-253.745 1260.63,-268.745 1271.13,-268.745"/>
</g>
</g>
</svg>
