<?xml version="1.0" encoding="UTF-8" standalone="no"?>
<!DOCTYPE svg PUBLIC "-//W3C//DTD SVG 1.1//EN"
 "http://www.w3.org/Graphics/SVG/1.1/DTD/svg11.dtd">
<!-- Generated by graphviz version 2.30.1 (20201013.1554)
 -->
<!-- Title: Pipeline Pages: 1 -->
<svg width="594pt" height="416pt"
 viewBox="0.00 0.00 594.00 416.00" xmlns="http://www.w3.org/2000/svg" xmlns:xlink="http://www.w3.org/1999/xlink">
<g id="graph0" class="graph" transform="scale(1 1) rotate(0) translate(4 412)">
<title>Pipeline</title>
<polygon fill="white" stroke="white" points="-4,5 -4,-412 591,-412 591,5 -4,5"/>
<!-- cpFlatNormalize:2 -->
<g id="node1" class="node"><title>cpFlatNormalize:2</title>
<polygon fill="#b1f2ef" stroke="black" stroke-width="3" points="504,-253.5 48,-253.5 48,-154.5 504,-154.5 504,-253.5"/>
<text text-anchor="start" x="69" y="-225.1" font-family="Monospace" font-weight="bold" font-size="18.00">cpFlatNormalize</text>
<text text-anchor="start" x="69" y="-197.8" font-family="Monospace" font-size="14.00">lsst.cp.pipe.cpFlatMeasure.CpFlatNormalizationTask</text>
<text text-anchor="start" x="69" y="-171.8" font-family="Monospace" font-style="italic" font-size="14.00">dimensions:</text>
<text text-anchor="start" x="160" y="-171.8" font-family="Monospace" font-size="14.00"> {physical_filter}</text>
</g>
<!-- cpFlatNormalizeScales:0 -->
<g id="node4" class="node"><title>cpFlatNormalizeScales:0</title>
<path fill="#f5f5f5" stroke="#00babc" stroke-width="3" d="M422,-99.5C422,-99.5 130,-99.5 130,-99.5 124,-99.5 118,-93.5 118,-87.5 118,-87.5 118,-12.5 118,-12.5 118,-6.5 124,-0.5 130,-0.5 130,-0.5 422,-0.5 422,-0.5 428,-0.5 434,-6.5 434,-12.5 434,-12.5 434,-87.5 434,-87.5 434,-93.5 428,-99.5 422,-99.5"/>
<text text-anchor="start" x="139" y="-71.1" font-family="Monospace" font-weight="bold" font-size="18.00">cpFlatNormalizeScales</text>
<text text-anchor="start" x="139" y="-43.8" font-family="Monospace" font-style="italic" font-size="14.00">dimensions:</text>
<text text-anchor="start" x="230" y="-43.8" font-family="Monospace" font-size="14.00"> {physical_filter}</text>
<text text-anchor="start" x="139" y="-17.8" font-family="Monospace" font-style="italic" font-size="14.00">storage class:</text>
<text text-anchor="start" x="255" y="-17.8" font-family="Monospace" font-size="14.00"> StructuredDataDict</text>
</g>
<!-- cpFlatNormalize:2&#45;&gt;cpFlatNormalizeScales:0 -->
<g id="edge1" class="edge"><title>cpFlatNormalize:2&#45;&gt;cpFlatNormalizeScales:0</title>
<path fill="none" stroke="black" stroke-width="1.5" d="M276,-154.426C276,-154.426 276,-114.745 276,-114.745"/>
<polygon fill="black" stroke="black" points="281.25,-114.745 276,-99.7452 270.75,-114.745 281.25,-114.745"/>
</g>
<!-- camera:0 -->
<g id="node2" class="node"><title>camera:0</title>
<path fill="#f5f5f5" stroke="#00babc" stroke-width="3" d="M230,-407.5C230,-407.5 12,-407.5 12,-407.5 6,-407.5 0,-401.5 0,-395.5 0,-395.5 0,-320.5 0,-320.5 0,-314.5 6,-308.5 12,-308.5 12,-308.5 230,-308.5 230,-308.5 236,-308.5 242,-314.5 242,-320.5 242,-320.5 242,-395.5 242,-395.5 242,-401.5 236,-407.5 230,-407.5"/>
<text text-anchor="start" x="21" y="-379.1" font-family="Monospace" font-weight="bold" font-size="18.00">camera</text>
<text text-anchor="start" x="21" y="-351.8" font-family="Monospace" font-style="italic" font-size="14.00">dimensions:</text>
<text text-anchor="start" x="112" y="-351.8" font-family="Monospace" font-size="14.00"> {instrument}</text>
<text text-anchor="start" x="21" y="-325.8" font-family="Monospace" font-style="italic" font-size="14.00">storage class:</text>
<text text-anchor="start" x="137" y="-325.8" font-family="Monospace" font-size="14.00"> Camera</text>
</g>
<!-- camera:0&#45;&gt;cpFlatNormalize:2 -->
<g id="edge2" class="edge"><title>camera:0&#45;&gt;cpFlatNormalize:2</title>
<path fill="none" stroke="black" stroke-width="1.5" stroke-dasharray="5,2" d="M145,-308.426C145,-308.426 145,-268.745 145,-268.745"/>
<polygon fill="black" stroke="black" points="150.25,-268.745 145,-253.745 139.75,-268.745 150.25,-268.745"/>
</g>
<!-- cpFlatStatistics:0 -->
<g id="node3" class="node"><title>cpFlatStatistics:0</title>
<path fill="#f5f5f5" stroke="#00babc" stroke-width="3" d="M574,-407.5C574,-407.5 290,-407.5 290,-407.5 284,-407.5 278,-401.5 278,-395.5 278,-395.5 278,-320.5 278,-320.5 278,-314.5 284,-308.5 290,-308.5 290,-308.5 574,-308.5 574,-308.5 580,-308.5 586,-314.5 586,-320.5 586,-320.5 586,-395.5 586,-395.5 586,-401.5 580,-407.5 574,-407.5"/>
<text text-anchor="start" x="299" y="-379.1" font-family="Monospace" font-weight="bold" font-size="18.00">cpFlatStatistics</text>
<text text-anchor="start" x="299" y="-351.8" font-family="Monospace" font-style="italic" font-size="14.00">dimensions:</text>
<text text-anchor="start" x="390" y="-351.8" font-family="Monospace" font-size="14.00"> {detector, exposure}</text>
<text text-anchor="start" x="299" y="-325.8" font-family="Monospace" font-style="italic" font-size="14.00">storage class:</text>
<text text-anchor="start" x="415" y="-325.8" font-family="Monospace" font-size="14.00"> PropertyList</text>
</g>
<!-- cpFlatStatistics:0&#45;&gt;cpFlatNormalize:2 -->
<g id="edge3" class="edge"><title>cpFlatStatistics:0&#45;&gt;cpFlatNormalize:2</title>
<path fill="none" stroke="black" stroke-width="1.5" d="M391,-308.426C391,-308.426 391,-268.745 391,-268.745"/>
<polygon fill="black" stroke="black" points="396.25,-268.745 391,-253.745 385.75,-268.745 396.25,-268.745"/>
</g>
</g>
</svg>
