<?xml version="1.0" encoding="UTF-8" standalone="no"?>
<!DOCTYPE svg PUBLIC "-//W3C//DTD SVG 1.1//EN"
 "http://www.w3.org/Graphics/SVG/1.1/DTD/svg11.dtd">
<!-- Generated by graphviz version 2.30.1 (20201013.1554)
 -->
<!-- Title: Pipeline Pages: 1 -->
<svg width="1420pt" height="1708pt"
 viewBox="0.00 0.00 1420.00 1708.00" xmlns="http://www.w3.org/2000/svg" xmlns:xlink="http://www.w3.org/1999/xlink">
<g id="graph0" class="graph" transform="scale(1 1) rotate(0) translate(4 1704)">
<title>Pipeline</title>
<polygon fill="white" stroke="white" points="-4,5 -4,-1704 1417,-1704 1417,5 -4,5"/>
<!-- transformSourceTable:2 -->
<g id="node1" class="node"><title>transformSourceTable:2</title>
<polygon fill="#b1f2ef" stroke="black" stroke-width="3" points="599.25,-253.5 126.75,-253.5 126.75,-154.5 599.25,-154.5 599.25,-253.5"/>
<text text-anchor="start" x="148" y="-225.1" font-family="Monospace" font-weight="bold" font-size="18.00">transformSourceTable</text>
<text text-anchor="start" x="148" y="-197.8" font-family="Monospace" font-size="14.00">lsst.pipe.tasks.postprocess.TransformSourceTableTask</text>
<text text-anchor="start" x="148" y="-171.8" font-family="Monospace" font-style="italic" font-size="14.00">dimensions:</text>
<text text-anchor="start" x="239" y="-171.8" font-family="Monospace" font-size="14.00"> {detector, visit}</text>
</g>
<!-- injected_sourceTable:0 -->
<g id="node3" class="node"><title>injected_sourceTable:0</title>
<path fill="#f5f5f5" stroke="#00babc" stroke-width="3" d="M492.25,-99.5C492.25,-99.5 233.75,-99.5 233.75,-99.5 227.75,-99.5 221.75,-93.5 221.75,-87.5 221.75,-87.5 221.75,-12.5 221.75,-12.5 221.75,-6.5 227.75,-0.5 233.75,-0.5 233.75,-0.5 492.25,-0.5 492.25,-0.5 498.25,-0.5 504.25,-6.5 504.25,-12.5 504.25,-12.5 504.25,-87.5 504.25,-87.5 504.25,-93.5 498.25,-99.5 492.25,-99.5"/>
<text text-anchor="start" x="243" y="-71.1" font-family="Monospace" font-weight="bold" font-size="18.00">injected_sourceTable</text>
<text text-anchor="start" x="243" y="-43.8" font-family="Monospace" font-style="italic" font-size="14.00">dimensions:</text>
<text text-anchor="start" x="334" y="-43.8" font-family="Monospace" font-size="14.00"> {detector, visit}</text>
<text text-anchor="start" x="243" y="-17.8" font-family="Monospace" font-style="italic" font-size="14.00">storage class:</text>
<text text-anchor="start" x="359" y="-17.8" font-family="Monospace" font-size="14.00"> DataFrame</text>
</g>
<!-- transformSourceTable:2&#45;&gt;injected_sourceTable:0 -->
<g id="edge1" class="edge"><title>transformSourceTable:2&#45;&gt;injected_sourceTable:0</title>
<path fill="none" stroke="black" stroke-width="1.5" d="M363,-154.426C363,-154.426 363,-114.745 363,-114.745"/>
<polygon fill="black" stroke="black" points="368.25,-114.745 363,-99.7452 357.75,-114.745 368.25,-114.745"/>
</g>
<!-- injected_source:0 -->
<g id="node2" class="node"><title>injected_source:0</title>
<path fill="#f5f5f5" stroke="#00babc" stroke-width="3" d="M492.25,-407.5C492.25,-407.5 233.75,-407.5 233.75,-407.5 227.75,-407.5 221.75,-401.5 221.75,-395.5 221.75,-395.5 221.75,-320.5 221.75,-320.5 221.75,-314.5 227.75,-308.5 233.75,-308.5 233.75,-308.5 492.25,-308.5 492.25,-308.5 498.25,-308.5 504.25,-314.5 504.25,-320.5 504.25,-320.5 504.25,-395.5 504.25,-395.5 504.25,-401.5 498.25,-407.5 492.25,-407.5"/>
<text text-anchor="start" x="243" y="-379.1" font-family="Monospace" font-weight="bold" font-size="18.00">injected_source</text>
<text text-anchor="start" x="243" y="-351.8" font-family="Monospace" font-style="italic" font-size="14.00">dimensions:</text>
<text text-anchor="start" x="334" y="-351.8" font-family="Monospace" font-size="14.00"> {detector, visit}</text>
<text text-anchor="start" x="243" y="-325.8" font-family="Monospace" font-style="italic" font-size="14.00">storage class:</text>
<text text-anchor="start" x="359" y="-325.8" font-family="Monospace" font-size="14.00"> DataFrame</text>
</g>
<!-- injected_source:0&#45;&gt;transformSourceTable:2 -->
<g id="edge2" class="edge"><title>injected_source:0&#45;&gt;transformSourceTable:2</title>
<path fill="none" stroke="black" stroke-width="1.5" d="M363,-308.426C363,-308.426 363,-268.745 363,-268.745"/>
<polygon fill="black" stroke="black" points="368.25,-268.745 363,-253.745 357.75,-268.745 368.25,-268.745"/>
</g>
<!-- writeRecalibratedSourceTable:2 -->
<g id="node4" class="node"><title>writeRecalibratedSourceTable:2</title>
<polygon fill="#b1f2ef" stroke="black" stroke-width="3" points="632.25,-561.5 93.75,-561.5 93.75,-462.5 632.25,-462.5 632.25,-561.5"/>
<text text-anchor="start" x="115" y="-533.1" font-family="Monospace" font-weight="bold" font-size="18.00">writeRecalibratedSourceTable</text>
<text text-anchor="start" x="115" y="-505.8" font-family="Monospace" font-size="14.00">lsst.pipe.tasks.postprocess.WriteRecalibratedSourceTableTask</text>
<text text-anchor="start" x="115" y="-479.8" font-family="Monospace" font-style="italic" font-size="14.00">dimensions:</text>
<text text-anchor="start" x="206" y="-479.8" font-family="Monospace" font-size="14.00"> {skymap, detector, visit}</text>
</g>
<!-- writeRecalibratedSourceTable:2&#45;&gt;injected_source:0 -->
<g id="edge3" class="edge"><title>writeRecalibratedSourceTable:2&#45;&gt;injected_source:0</title>
<path fill="none" stroke="black" stroke-width="1.5" d="M363,-462.426C363,-462.426 363,-422.745 363,-422.745"/>
<polygon fill="black" stroke="black" points="368.25,-422.745 363,-407.745 357.75,-422.745 368.25,-422.745"/>
</g>
<!-- finalVisitSummary:0 -->
<g id="node5" class="node"><title>finalVisitSummary:0</title>
<path fill="#f5f5f5" stroke="#00babc" stroke-width="3" d="M280,-1699.5C280,-1699.5 12,-1699.5 12,-1699.5 6,-1699.5 0,-1693.5 0,-1687.5 0,-1687.5 0,-1612.5 0,-1612.5 0,-1606.5 6,-1600.5 12,-1600.5 12,-1600.5 280,-1600.5 280,-1600.5 286,-1600.5 292,-1606.5 292,-1612.5 292,-1612.5 292,-1687.5 292,-1687.5 292,-1693.5 286,-1699.5 280,-1699.5"/>
<text text-anchor="start" x="21" y="-1671.1" font-family="Monospace" font-weight="bold" font-size="18.00">finalVisitSummary</text>
<text text-anchor="start" x="21" y="-1643.8" font-family="Monospace" font-style="italic" font-size="14.00">dimensions:</text>
<text text-anchor="start" x="112" y="-1643.8" font-family="Monospace" font-size="14.00"> {visit}</text>
<text text-anchor="start" x="21" y="-1617.8" font-family="Monospace" font-style="italic" font-size="14.00">storage class:</text>
<text text-anchor="start" x="137" y="-1617.8" font-family="Monospace" font-size="14.00"> ExposureCatalog</text>
</g>
<!-- finalVisitSummary:0&#45;&gt;writeRecalibratedSourceTable:2 -->
<g id="edge4" class="edge"><title>finalVisitSummary:0&#45;&gt;writeRecalibratedSourceTable:2</title>
<path fill="none" stroke="black" stroke-width="1.5" d="M121.375,-1600.37C121.375,-1600.37 121.375,-576.57 121.375,-576.57"/>
<polygon fill="black" stroke="black" points="126.625,-576.57 121.375,-561.57 116.125,-576.57 126.625,-576.57"/>
</g>
<!-- inject_exposure:2 -->
<g id="node7" class="node"><title>inject_exposure:2</title>
<polygon fill="#b1f2ef" stroke="black" stroke-width="3" points="754,-1545.5 248,-1545.5 248,-1446.5 754,-1446.5 754,-1545.5"/>
<text text-anchor="start" x="269" y="-1517.1" font-family="Monospace" font-weight="bold" font-size="18.00">inject_exposure</text>
<text text-anchor="start" x="269" y="-1489.8" font-family="Monospace" font-size="14.00">lsst.source.injection.inject_exposure.ExposureInjectTask</text>
<text text-anchor="start" x="269" y="-1463.8" font-family="Monospace" font-style="italic" font-size="14.00">dimensions:</text>
<text text-anchor="start" x="360" y="-1463.8" font-family="Monospace" font-size="14.00"> {detector, visit}</text>
</g>
<!-- finalVisitSummary:0&#45;&gt;inject_exposure:2 -->
<g id="edge5" class="edge"><title>finalVisitSummary:0&#45;&gt;inject_exposure:2</title>
<path fill="none" stroke="black" stroke-width="1.5" d="M270,-1600.43C270,-1600.43 270,-1560.75 270,-1560.75"/>
<polygon fill="black" stroke="black" points="275.25,-1560.75 270,-1545.75 264.75,-1560.75 275.25,-1560.75"/>
</g>
<!-- injected_src:0 -->
<g id="node6" class="node"><title>injected_src:0</title>
<path fill="#f5f5f5" stroke="#00babc" stroke-width="3" d="M762.25,-730.5C762.25,-730.5 503.75,-730.5 503.75,-730.5 497.75,-730.5 491.75,-724.5 491.75,-718.5 491.75,-718.5 491.75,-643.5 491.75,-643.5 491.75,-637.5 497.75,-631.5 503.75,-631.5 503.75,-631.5 762.25,-631.5 762.25,-631.5 768.25,-631.5 774.25,-637.5 774.25,-643.5 774.25,-643.5 774.25,-718.5 774.25,-718.5 774.25,-724.5 768.25,-730.5 762.25,-730.5"/>
<text text-anchor="start" x="513" y="-702.1" font-family="Monospace" font-weight="bold" font-size="18.00">injected_src</text>
<text text-anchor="start" x="513" y="-674.8" font-family="Monospace" font-style="italic" font-size="14.00">dimensions:</text>
<text text-anchor="start" x="604" y="-674.8" font-family="Monospace" font-size="14.00"> {detector, visit}</text>
<text text-anchor="start" x="513" y="-648.8" font-family="Monospace" font-style="italic" font-size="14.00">storage class:</text>
<text text-anchor="start" x="629" y="-648.8" font-family="Monospace" font-size="14.00"> SourceCatalog</text>
</g>
<!-- injected_src:0&#45;&gt;writeRecalibratedSourceTable:2 -->
<g id="edge6" class="edge"><title>injected_src:0&#45;&gt;writeRecalibratedSourceTable:2</title>
<path fill="none" stroke="black" stroke-width="1.5" d="M562,-631.208C562,-631.208 562,-576.727 562,-576.727"/>
<polygon fill="black" stroke="black" points="567.25,-576.727 562,-561.727 556.75,-576.727 567.25,-576.727"/>
</g>
<!-- injected_postISRCCD:0 -->
<g id="node10" class="node"><title>injected_postISRCCD:0</title>
<path fill="#f5f5f5" stroke="#00babc" stroke-width="3" d="M643,-1391.5C643,-1391.5 359,-1391.5 359,-1391.5 353,-1391.5 347,-1385.5 347,-1379.5 347,-1379.5 347,-1304.5 347,-1304.5 347,-1298.5 353,-1292.5 359,-1292.5 359,-1292.5 643,-1292.5 643,-1292.5 649,-1292.5 655,-1298.5 655,-1304.5 655,-1304.5 655,-1379.5 655,-1379.5 655,-1385.5 649,-1391.5 643,-1391.5"/>
<text text-anchor="start" x="368" y="-1363.1" font-family="Monospace" font-weight="bold" font-size="18.00">injected_postISRCCD</text>
<text text-anchor="start" x="368" y="-1335.8" font-family="Monospace" font-style="italic" font-size="14.00">dimensions:</text>
<text text-anchor="start" x="459" y="-1335.8" font-family="Monospace" font-size="14.00"> {detector, exposure}</text>
<text text-anchor="start" x="368" y="-1309.8" font-family="Monospace" font-style="italic" font-size="14.00">storage class:</text>
<text text-anchor="start" x="484" y="-1309.8" font-family="Monospace" font-size="14.00"> Exposure</text>
</g>
<!-- inject_exposure:2&#45;&gt;injected_postISRCCD:0 -->
<g id="edge7" class="edge"><title>inject_exposure:2&#45;&gt;injected_postISRCCD:0</title>
<path fill="none" stroke="black" stroke-width="1.5" d="M501,-1446.43C501,-1446.43 501,-1406.75 501,-1406.75"/>
<polygon fill="black" stroke="black" points="506.25,-1406.75 501,-1391.75 495.75,-1406.75 506.25,-1406.75"/>
</g>
<!-- injected_postISRCCD_catalog:0 -->
<g id="node11" class="node"><title>injected_postISRCCD_catalog:0</title>
<path fill="#f5f5f5" stroke="#00babc" stroke-width="3" d="M1006.25,-1391.5C1006.25,-1391.5 703.75,-1391.5 703.75,-1391.5 697.75,-1391.5 691.75,-1385.5 691.75,-1379.5 691.75,-1379.5 691.75,-1304.5 691.75,-1304.5 691.75,-1298.5 697.75,-1292.5 703.75,-1292.5 703.75,-1292.5 1006.25,-1292.5 1006.25,-1292.5 1012.25,-1292.5 1018.25,-1298.5 1018.25,-1304.5 1018.25,-1304.5 1018.25,-1379.5 1018.25,-1379.5 1018.25,-1385.5 1012.25,-1391.5 1006.25,-1391.5"/>
<text text-anchor="start" x="713" y="-1363.1" font-family="Monospace" font-weight="bold" font-size="18.00">injected_postISRCCD_catalog</text>
<text text-anchor="start" x="713" y="-1335.8" font-family="Monospace" font-style="italic" font-size="14.00">dimensions:</text>
<text text-anchor="start" x="804" y="-1335.8" font-family="Monospace" font-size="14.00"> {detector, exposure}</text>
<text text-anchor="start" x="713" y="-1309.8" font-family="Monospace" font-style="italic" font-size="14.00">storage class:</text>
<text text-anchor="start" x="829" y="-1309.8" font-family="Monospace" font-size="14.00"> ArrowAstropy</text>
</g>
<!-- inject_exposure:2&#45;&gt;injected_postISRCCD_catalog:0 -->
<g id="edge8" class="edge"><title>inject_exposure:2&#45;&gt;injected_postISRCCD_catalog:0</title>
<path fill="none" stroke="black" stroke-width="1.5" d="M722.875,-1446.43C722.875,-1446.43 722.875,-1406.75 722.875,-1406.75"/>
<polygon fill="black" stroke="black" points="728.125,-1406.75 722.875,-1391.75 717.625,-1406.75 728.125,-1406.75"/>
</g>
<!-- injection_catalog:0 -->
<g id="node8" class="node"><title>injection_catalog:0</title>
<path fill="#f5f5f5" stroke="#00babc" stroke-width="3" d="M609.25,-1699.5C609.25,-1699.5 366.75,-1699.5 366.75,-1699.5 360.75,-1699.5 354.75,-1693.5 354.75,-1687.5 354.75,-1687.5 354.75,-1612.5 354.75,-1612.5 354.75,-1606.5 360.75,-1600.5 366.75,-1600.5 366.75,-1600.5 609.25,-1600.5 609.25,-1600.5 615.25,-1600.5 621.25,-1606.5 621.25,-1612.5 621.25,-1612.5 621.25,-1687.5 621.25,-1687.5 621.25,-1693.5 615.25,-1699.5 609.25,-1699.5"/>
<text text-anchor="start" x="376" y="-1671.1" font-family="Monospace" font-weight="bold" font-size="18.00">injection_catalog</text>
<text text-anchor="start" x="376" y="-1643.8" font-family="Monospace" font-style="italic" font-size="14.00">dimensions:</text>
<text text-anchor="start" x="467" y="-1643.8" font-family="Monospace" font-size="14.00"> {band, htm7}</text>
<text text-anchor="start" x="376" y="-1617.8" font-family="Monospace" font-style="italic" font-size="14.00">storage class:</text>
<text text-anchor="start" x="492" y="-1617.8" font-family="Monospace" font-size="14.00"> ArrowAstropy</text>
</g>
<!-- injection_catalog:0&#45;&gt;inject_exposure:2 -->
<g id="edge9" class="edge"><title>injection_catalog:0&#45;&gt;inject_exposure:2</title>
<path fill="none" stroke="black" stroke-width="1.5" stroke-dasharray="5,2" d="M488,-1600.43C488,-1600.43 488,-1560.75 488,-1560.75"/>
<polygon fill="black" stroke="black" points="493.25,-1560.75 488,-1545.75 482.75,-1560.75 493.25,-1560.75"/>
</g>
<!-- postISRCCD_masked:0 -->
<g id="node9" class="node"><title>postISRCCD_masked:0</title>
<path fill="#f5f5f5" stroke="#00babc" stroke-width="3" d="M954,-1699.5C954,-1699.5 670,-1699.5 670,-1699.5 664,-1699.5 658,-1693.5 658,-1687.5 658,-1687.5 658,-1612.5 658,-1612.5 658,-1606.5 664,-1600.5 670,-1600.5 670,-1600.5 954,-1600.5 954,-1600.5 960,-1600.5 966,-1606.5 966,-1612.5 966,-1612.5 966,-1687.5 966,-1687.5 966,-1693.5 960,-1699.5 954,-1699.5"/>
<text text-anchor="start" x="679" y="-1671.1" font-family="Monospace" font-weight="bold" font-size="18.00">postISRCCD_masked</text>
<text text-anchor="start" x="679" y="-1643.8" font-family="Monospace" font-style="italic" font-size="14.00">dimensions:</text>
<text text-anchor="start" x="770" y="-1643.8" font-family="Monospace" font-size="14.00"> {detector, exposure}</text>
<text text-anchor="start" x="679" y="-1617.8" font-family="Monospace" font-style="italic" font-size="14.00">storage class:</text>
<text text-anchor="start" x="795" y="-1617.8" font-family="Monospace" font-size="14.00"> Exposure</text>
</g>
<!-- postISRCCD_masked:0&#45;&gt;inject_exposure:2 -->
<g id="edge10" class="edge"><title>postISRCCD_masked:0&#45;&gt;inject_exposure:2</title>
<path fill="none" stroke="black" stroke-width="1.5" d="M706,-1600.43C706,-1600.43 706,-1560.75 706,-1560.75"/>
<polygon fill="black" stroke="black" points="711.25,-1560.75 706,-1545.75 700.75,-1560.75 711.25,-1560.75"/>
</g>
<!-- injected_characterizeImage:2 -->
<g id="node12" class="node"><title>injected_characterizeImage:2</title>
<polygon fill="#b1f2ef" stroke="black" stroke-width="3" points="852.25,-1237.5 355.75,-1237.5 355.75,-1138.5 852.25,-1138.5 852.25,-1237.5"/>
<text text-anchor="start" x="377" y="-1209.1" font-family="Monospace" font-weight="bold" font-size="18.00">injected_characterizeImage</text>
<text text-anchor="start" x="377" y="-1181.8" font-family="Monospace" font-size="14.00">lsst.pipe.tasks.characterizeImage.CharacterizeImageTask</text>
<text text-anchor="start" x="377" y="-1155.8" font-family="Monospace" font-style="italic" font-size="14.00">dimensions:</text>
<text text-anchor="start" x="468" y="-1155.8" font-family="Monospace" font-size="14.00"> {detector, visit}</text>
</g>
<!-- injected_postISRCCD:0&#45;&gt;injected_characterizeImage:2 -->
<g id="edge11" class="edge"><title>injected_postISRCCD:0&#45;&gt;injected_characterizeImage:2</title>
<path fill="none" stroke="black" stroke-width="1.5" d="M505.375,-1292.43C505.375,-1292.43 505.375,-1252.75 505.375,-1252.75"/>
<polygon fill="black" stroke="black" points="510.625,-1252.75 505.375,-1237.75 500.125,-1252.75 510.625,-1252.75"/>
</g>
<!-- injected_icSrc:0 -->
<g id="node13" class="node"><title>injected_icSrc:0</title>
<path fill="#f5f5f5" stroke="#00babc" stroke-width="3" d="M420.25,-1068.5C420.25,-1068.5 161.75,-1068.5 161.75,-1068.5 155.75,-1068.5 149.75,-1062.5 149.75,-1056.5 149.75,-1056.5 149.75,-981.5 149.75,-981.5 149.75,-975.5 155.75,-969.5 161.75,-969.5 161.75,-969.5 420.25,-969.5 420.25,-969.5 426.25,-969.5 432.25,-975.5 432.25,-981.5 432.25,-981.5 432.25,-1056.5 432.25,-1056.5 432.25,-1062.5 426.25,-1068.5 420.25,-1068.5"/>
<text text-anchor="start" x="171" y="-1040.1" font-family="Monospace" font-weight="bold" font-size="18.00">injected_icSrc</text>
<text text-anchor="start" x="171" y="-1012.8" font-family="Monospace" font-style="italic" font-size="14.00">dimensions:</text>
<text text-anchor="start" x="262" y="-1012.8" font-family="Monospace" font-size="14.00"> {detector, visit}</text>
<text text-anchor="start" x="171" y="-986.8" font-family="Monospace" font-style="italic" font-size="14.00">storage class:</text>
<text text-anchor="start" x="287" y="-986.8" font-family="Monospace" font-size="14.00"> SourceCatalog</text>
</g>
<!-- injected_characterizeImage:2&#45;&gt;injected_icSrc:0 -->
<g id="edge12" class="edge"><title>injected_characterizeImage:2&#45;&gt;injected_icSrc:0</title>
<path fill="none" stroke="black" stroke-width="1.5" d="M394,-1138.21C394,-1138.21 394,-1083.73 394,-1083.73"/>
<polygon fill="black" stroke="black" points="399.25,-1083.73 394,-1068.73 388.75,-1083.73 399.25,-1083.73"/>
</g>
<!-- injected_icExpBackground:0 -->
<g id="node14" class="node"><title>injected_icExpBackground:0</title>
<path fill="#f5f5f5" stroke="#00babc" stroke-width="3" d="M753,-1068.5C753,-1068.5 481,-1068.5 481,-1068.5 475,-1068.5 469,-1062.5 469,-1056.5 469,-1056.5 469,-981.5 469,-981.5 469,-975.5 475,-969.5 481,-969.5 481,-969.5 753,-969.5 753,-969.5 759,-969.5 765,-975.5 765,-981.5 765,-981.5 765,-1056.5 765,-1056.5 765,-1062.5 759,-1068.5 753,-1068.5"/>
<text text-anchor="start" x="490" y="-1040.1" font-family="Monospace" font-weight="bold" font-size="18.00">injected_icExpBackground</text>
<text text-anchor="start" x="490" y="-1012.8" font-family="Monospace" font-style="italic" font-size="14.00">dimensions:</text>
<text text-anchor="start" x="581" y="-1012.8" font-family="Monospace" font-size="14.00"> {detector, visit}</text>
<text text-anchor="start" x="490" y="-986.8" font-family="Monospace" font-style="italic" font-size="14.00">storage class:</text>
<text text-anchor="start" x="606" y="-986.8" font-family="Monospace" font-size="14.00"> Background</text>
</g>
<!-- injected_characterizeImage:2&#45;&gt;injected_icExpBackground:0 -->
<g id="edge13" class="edge"><title>injected_characterizeImage:2&#45;&gt;injected_icExpBackground:0</title>
<path fill="none" stroke="black" stroke-width="1.5" d="M617,-1138.21C617,-1138.21 617,-1083.73 617,-1083.73"/>
<polygon fill="black" stroke="black" points="622.25,-1083.73 617,-1068.73 611.75,-1083.73 622.25,-1083.73"/>
</g>
<!-- injected_icExp:0 -->
<g id="node15" class="node"><title>injected_icExp:0</title>
<path fill="#f5f5f5" stroke="#00babc" stroke-width="3" d="M1072.25,-1068.5C1072.25,-1068.5 813.75,-1068.5 813.75,-1068.5 807.75,-1068.5 801.75,-1062.5 801.75,-1056.5 801.75,-1056.5 801.75,-981.5 801.75,-981.5 801.75,-975.5 807.75,-969.5 813.75,-969.5 813.75,-969.5 1072.25,-969.5 1072.25,-969.5 1078.25,-969.5 1084.25,-975.5 1084.25,-981.5 1084.25,-981.5 1084.25,-1056.5 1084.25,-1056.5 1084.25,-1062.5 1078.25,-1068.5 1072.25,-1068.5"/>
<text text-anchor="start" x="823" y="-1040.1" font-family="Monospace" font-weight="bold" font-size="18.00">injected_icExp</text>
<text text-anchor="start" x="823" y="-1012.8" font-family="Monospace" font-style="italic" font-size="14.00">dimensions:</text>
<text text-anchor="start" x="914" y="-1012.8" font-family="Monospace" font-size="14.00"> {detector, visit}</text>
<text text-anchor="start" x="823" y="-986.8" font-family="Monospace" font-style="italic" font-size="14.00">storage class:</text>
<text text-anchor="start" x="939" y="-986.8" font-family="Monospace" font-size="14.00"> ExposureF</text>
</g>
<!-- injected_characterizeImage:2&#45;&gt;injected_icExp:0 -->
<g id="edge14" class="edge"><title>injected_characterizeImage:2&#45;&gt;injected_icExp:0</title>
<path fill="none" stroke="black" stroke-width="1.5" d="M827,-1138.21C827,-1138.21 827,-1083.73 827,-1083.73"/>
<polygon fill="black" stroke="black" points="832.25,-1083.73 827,-1068.73 821.75,-1083.73 832.25,-1083.73"/>
</g>
<!-- injected_calibrate:2 -->
<g id="node16" class="node"><title>injected_calibrate:2</title>
<polygon fill="#b1f2ef" stroke="black" stroke-width="3" points="970.25,-899.5 605.75,-899.5 605.75,-800.5 970.25,-800.5 970.25,-899.5"/>
<text text-anchor="start" x="627" y="-871.1" font-family="Monospace" font-weight="bold" font-size="18.00">injected_calibrate</text>
<text text-anchor="start" x="627" y="-843.8" font-family="Monospace" font-size="14.00">lsst.pipe.tasks.calibrate.CalibrateTask</text>
<text text-anchor="start" x="627" y="-817.8" font-family="Monospace" font-style="italic" font-size="14.00">dimensions:</text>
<text text-anchor="start" x="718" y="-817.8" font-family="Monospace" font-size="14.00"> {detector, visit}</text>
</g>
<!-- injected_icSrc:0&#45;&gt;injected_calibrate:2 -->
<g id="edge15" class="edge"><title>injected_icSrc:0&#45;&gt;injected_calibrate:2</title>
<path fill="none" stroke="black" stroke-width="1.5" d="M291,-969.325C291,-924.65 291,-866 291,-866 291,-866 590.405,-866 590.405,-866"/>
<polygon fill="black" stroke="black" points="590.405,-871.25 605.405,-866 590.405,-860.75 590.405,-871.25"/>
</g>
<!-- injected_icExpBackground:0&#45;&gt;injected_calibrate:2 -->
<g id="edge16" class="edge"><title>injected_icExpBackground:0&#45;&gt;injected_calibrate:2</title>
<path fill="none" stroke="black" stroke-width="1.5" d="M685.375,-969.208C685.375,-969.208 685.375,-914.727 685.375,-914.727"/>
<polygon fill="black" stroke="black" points="690.625,-914.727 685.375,-899.727 680.125,-914.727 690.625,-914.727"/>
</g>
<!-- injected_icExp:0&#45;&gt;injected_calibrate:2 -->
<g id="edge17" class="edge"><title>injected_icExp:0&#45;&gt;injected_calibrate:2</title>
<path fill="none" stroke="black" stroke-width="1.5" d="M886,-969.208C886,-969.208 886,-914.727 886,-914.727"/>
<polygon fill="black" stroke="black" points="891.25,-914.727 886,-899.727 880.75,-914.727 891.25,-914.727"/>
</g>
<!-- injected_calexpBackground:0 -->
<g id="node17" class="node"><title>injected_calexpBackground:0</title>
<path fill="#f5f5f5" stroke="#00babc" stroke-width="3" d="M443,-730.5C443,-730.5 161,-730.5 161,-730.5 155,-730.5 149,-724.5 149,-718.5 149,-718.5 149,-643.5 149,-643.5 149,-637.5 155,-631.5 161,-631.5 161,-631.5 443,-631.5 443,-631.5 449,-631.5 455,-637.5 455,-643.5 455,-643.5 455,-718.5 455,-718.5 455,-724.5 449,-730.5 443,-730.5"/>
<text text-anchor="start" x="170" y="-702.1" font-family="Monospace" font-weight="bold" font-size="18.00">injected_calexpBackground</text>
<text text-anchor="start" x="170" y="-674.8" font-family="Monospace" font-style="italic" font-size="14.00">dimensions:</text>
<text text-anchor="start" x="261" y="-674.8" font-family="Monospace" font-size="14.00"> {detector, visit}</text>
<text text-anchor="start" x="170" y="-648.8" font-family="Monospace" font-style="italic" font-size="14.00">storage class:</text>
<text text-anchor="start" x="286" y="-648.8" font-family="Monospace" font-size="14.00"> Background</text>
</g>
<!-- injected_calibrate:2&#45;&gt;injected_calexpBackground:0 -->
<g id="edge18" class="edge"><title>injected_calibrate:2&#45;&gt;injected_calexpBackground:0</title>
<path fill="none" stroke="black" stroke-width="1.5" d="M605.729,-833C523.124,-833 443.625,-833 443.625,-833 443.625,-833 443.625,-745.77 443.625,-745.77"/>
<polygon fill="black" stroke="black" points="448.875,-745.77 443.625,-730.77 438.375,-745.771 448.875,-745.77"/>
</g>
<!-- injected_calibrate:2&#45;&gt;injected_src:0 -->
<g id="edge19" class="edge"><title>injected_calibrate:2&#45;&gt;injected_src:0</title>
<path fill="none" stroke="black" stroke-width="1.5" d="M690,-800.208C690,-800.208 690,-745.727 690,-745.727"/>
<polygon fill="black" stroke="black" points="695.25,-745.727 690,-730.727 684.75,-745.727 695.25,-745.727"/>
</g>
<!-- injected_calexp:0 -->
<g id="node18" class="node"><title>injected_calexp:0</title>
<path fill="#f5f5f5" stroke="#00babc" stroke-width="3" d="M1081.25,-730.5C1081.25,-730.5 822.75,-730.5 822.75,-730.5 816.75,-730.5 810.75,-724.5 810.75,-718.5 810.75,-718.5 810.75,-643.5 810.75,-643.5 810.75,-637.5 816.75,-631.5 822.75,-631.5 822.75,-631.5 1081.25,-631.5 1081.25,-631.5 1087.25,-631.5 1093.25,-637.5 1093.25,-643.5 1093.25,-643.5 1093.25,-718.5 1093.25,-718.5 1093.25,-724.5 1087.25,-730.5 1081.25,-730.5"/>
<text text-anchor="start" x="832" y="-702.1" font-family="Monospace" font-weight="bold" font-size="18.00">injected_calexp</text>
<text text-anchor="start" x="832" y="-674.8" font-family="Monospace" font-style="italic" font-size="14.00">dimensions:</text>
<text text-anchor="start" x="923" y="-674.8" font-family="Monospace" font-size="14.00"> {detector, visit}</text>
<text text-anchor="start" x="832" y="-648.8" font-family="Monospace" font-style="italic" font-size="14.00">storage class:</text>
<text text-anchor="start" x="948" y="-648.8" font-family="Monospace" font-size="14.00"> ExposureF</text>
</g>
<!-- injected_calibrate:2&#45;&gt;injected_calexp:0 -->
<g id="edge20" class="edge"><title>injected_calibrate:2&#45;&gt;injected_calexp:0</title>
<path fill="none" stroke="black" stroke-width="1.5" d="M863.917,-800.208C863.917,-800.208 863.917,-745.727 863.917,-745.727"/>
<polygon fill="black" stroke="black" points="869.167,-745.727 863.917,-730.727 858.667,-745.727 869.167,-745.727"/>
</g>
<!-- 25c862bf:0 -->
<g id="node20" class="node"><title>25c862bf:0</title>
<path fill="#f5f5f5" stroke="#00babc" stroke-width="3" d="M1400.25,-745.5C1400.25,-745.5 1141.75,-745.5 1141.75,-745.5 1135.75,-745.5 1129.75,-739.5 1129.75,-733.5 1129.75,-733.5 1129.75,-628.5 1129.75,-628.5 1129.75,-622.5 1135.75,-616.5 1141.75,-616.5 1141.75,-616.5 1400.25,-616.5 1400.25,-616.5 1406.25,-616.5 1412.25,-622.5 1412.25,-628.5 1412.25,-628.5 1412.25,-733.5 1412.25,-733.5 1412.25,-739.5 1406.25,-745.5 1400.25,-745.5"/>
<text text-anchor="start" x="1151" y="-717.1" font-family="Monospace" font-weight="bold" font-size="18.00">injected_srcMatchFull</text>
<text text-anchor="start" x="1151" y="-686.6" font-family="Monospace" font-weight="bold" font-size="18.00">injected_srcMatch</text>
<text text-anchor="start" x="1151" y="-659.8" font-family="Monospace" font-style="italic" font-size="14.00">dimensions:</text>
<text text-anchor="start" x="1242" y="-659.8" font-family="Monospace" font-size="14.00"> {detector, visit}</text>
<text text-anchor="start" x="1151" y="-633.8" font-family="Monospace" font-style="italic" font-size="14.00">storage class:</text>
<text text-anchor="start" x="1267" y="-633.8" font-family="Monospace" font-size="14.00"> Catalog</text>
</g>
<!-- injected_calibrate:2&#45;&gt;25c862bf:0 -->
<g id="edge21" class="edge"><title>injected_calibrate:2&#45;&gt;25c862bf:0</title>
<path fill="none" stroke="black" stroke-width="1.5" d="M917.083,-800.223C917.083,-770.31 917.083,-738 917.083,-738 917.083,-738 1114.6,-738 1114.6,-738"/>
<polygon fill="black" stroke="black" points="1114.6,-743.25 1129.6,-738 1114.6,-732.75 1114.6,-743.25"/>
</g>
<!-- c1110ee2:0 -->
<g id="node19" class="node"><title>c1110ee2:0</title>
<path fill="#f5f5f5" stroke="#00babc" stroke-width="3" d="M1383.25,-1083.5C1383.25,-1083.5 1132.75,-1083.5 1132.75,-1083.5 1126.75,-1083.5 1120.75,-1077.5 1120.75,-1071.5 1120.75,-1071.5 1120.75,-966.5 1120.75,-966.5 1120.75,-960.5 1126.75,-954.5 1132.75,-954.5 1132.75,-954.5 1383.25,-954.5 1383.25,-954.5 1389.25,-954.5 1395.25,-960.5 1395.25,-966.5 1395.25,-966.5 1395.25,-1071.5 1395.25,-1071.5 1395.25,-1077.5 1389.25,-1083.5 1383.25,-1083.5"/>
<text text-anchor="start" x="1142" y="-1055.1" font-family="Monospace" font-weight="bold" font-size="18.00">ps1_pv3_3pi_20170110</text>
<text text-anchor="start" x="1142" y="-1024.6" font-family="Monospace" font-weight="bold" font-size="18.00">gaia_dr3_20230707</text>
<text text-anchor="start" x="1142" y="-997.8" font-family="Monospace" font-style="italic" font-size="14.00">dimensions:</text>
<text text-anchor="start" x="1233" y="-997.8" font-family="Monospace" font-size="14.00"> {htm7}</text>
<text text-anchor="start" x="1142" y="-971.8" font-family="Monospace" font-style="italic" font-size="14.00">storage class:</text>
<text text-anchor="start" x="1258" y="-971.8" font-family="Monospace" font-size="14.00"> SimpleCatalog</text>
</g>
<!-- c1110ee2:0&#45;&gt;injected_calibrate:2 -->
<g id="edge22" class="edge"><title>c1110ee2:0&#45;&gt;injected_calibrate:2</title>
<path fill="none" stroke="black" stroke-width="1.5" d="M1125.25,-954.144C1125.25,-906.485 1125.25,-850 1125.25,-850 1125.25,-850 985.444,-850 985.444,-850"/>
<polygon fill="black" stroke="black" points="985.444,-844.75 970.444,-850 985.444,-855.25 985.444,-844.75"/>
</g>
</g>
</svg>
