<?xml version="1.0" encoding="UTF-8" standalone="no"?>
<!DOCTYPE svg PUBLIC "-//W3C//DTD SVG 1.1//EN"
 "http://www.w3.org/Graphics/SVG/1.1/DTD/svg11.dtd">
<!-- Generated by graphviz version 2.30.1 (20201013.1554)
 -->
<!-- Title: Pipeline Pages: 1 -->
<svg width="496pt" height="416pt"
 viewBox="0.00 0.00 496.00 416.00" xmlns="http://www.w3.org/2000/svg" xmlns:xlink="http://www.w3.org/1999/xlink">
<g id="graph0" class="graph" transform="scale(1 1) rotate(0) translate(4 412)">
<title>Pipeline</title>
<polygon fill="white" stroke="white" points="-4,5 -4,-412 493,-412 493,5 -4,5"/>
<!-- consolidateDiaSourceTable:2 -->
<g id="node1" class="node"><title>consolidateDiaSourceTable:2</title>
<polygon fill="#b1f2ef" stroke="black" stroke-width="3" points="488.25,-253.5 -0.25,-253.5 -0.25,-154.5 488.25,-154.5 488.25,-253.5"/>
<text text-anchor="start" x="21" y="-225.1" font-family="Monospace" font-weight="bold" font-size="18.00">consolidateDiaSourceTable</text>
<text text-anchor="start" x="21" y="-197.8" font-family="Monospace" font-size="14.00">lsst.pipe.tasks.postprocess.ConsolidateSourceTableTask</text>
<text text-anchor="start" x="21" y="-171.8" font-family="Monospace" font-style="italic" font-size="14.00">dimensions:</text>
<text text-anchor="start" x="112" y="-171.8" font-family="Monospace" font-size="14.00"> {visit}</text>
</g>
<!-- diaSourceTable:0 -->
<g id="node3" class="node"><title>diaSourceTable:0</title>
<path fill="#f5f5f5" stroke="#00babc" stroke-width="3" d="M353,-99.5C353,-99.5 135,-99.5 135,-99.5 129,-99.5 123,-93.5 123,-87.5 123,-87.5 123,-12.5 123,-12.5 123,-6.5 129,-0.5 135,-0.5 135,-0.5 353,-0.5 353,-0.5 359,-0.5 365,-6.5 365,-12.5 365,-12.5 365,-87.5 365,-87.5 365,-93.5 359,-99.5 353,-99.5"/>
<text text-anchor="start" x="144" y="-71.1" font-family="Monospace" font-weight="bold" font-size="18.00">diaSourceTable</text>
<text text-anchor="start" x="144" y="-43.8" font-family="Monospace" font-style="italic" font-size="14.00">dimensions:</text>
<text text-anchor="start" x="235" y="-43.8" font-family="Monospace" font-size="14.00"> {visit}</text>
<text text-anchor="start" x="144" y="-17.8" font-family="Monospace" font-style="italic" font-size="14.00">storage class:</text>
<text text-anchor="start" x="260" y="-17.8" font-family="Monospace" font-size="14.00"> DataFrame</text>
</g>
<!-- consolidateDiaSourceTable:2&#45;&gt;diaSourceTable:0 -->
<g id="edge1" class="edge"><title>consolidateDiaSourceTable:2&#45;&gt;diaSourceTable:0</title>
<path fill="none" stroke="black" stroke-width="1.5" d="M244,-154.426C244,-154.426 244,-114.745 244,-114.745"/>
<polygon fill="black" stroke="black" points="249.25,-114.745 244,-99.7452 238.75,-114.745 249.25,-114.745"/>
</g>
<!-- deepDiff_diaSrcTable:0 -->
<g id="node2" class="node"><title>deepDiff_diaSrcTable:0</title>
<path fill="#f5f5f5" stroke="#00babc" stroke-width="3" d="M373.25,-407.5C373.25,-407.5 114.75,-407.5 114.75,-407.5 108.75,-407.5 102.75,-401.5 102.75,-395.5 102.75,-395.5 102.75,-320.5 102.75,-320.5 102.75,-314.5 108.75,-308.5 114.75,-308.5 114.75,-308.5 373.25,-308.5 373.25,-308.5 379.25,-308.5 385.25,-314.5 385.25,-320.5 385.25,-320.5 385.25,-395.5 385.25,-395.5 385.25,-401.5 379.25,-407.5 373.25,-407.5"/>
<text text-anchor="start" x="124" y="-379.1" font-family="Monospace" font-weight="bold" font-size="18.00">deepDiff_diaSrcTable</text>
<text text-anchor="start" x="124" y="-351.8" font-family="Monospace" font-style="italic" font-size="14.00">dimensions:</text>
<text text-anchor="start" x="215" y="-351.8" font-family="Monospace" font-size="14.00"> {detector, visit}</text>
<text text-anchor="start" x="124" y="-325.8" font-family="Monospace" font-style="italic" font-size="14.00">storage class:</text>
<text text-anchor="start" x="240" y="-325.8" font-family="Monospace" font-size="14.00"> DataFrame</text>
</g>
<!-- deepDiff_diaSrcTable:0&#45;&gt;consolidateDiaSourceTable:2 -->
<g id="edge2" class="edge"><title>deepDiff_diaSrcTable:0&#45;&gt;consolidateDiaSourceTable:2</title>
<path fill="none" stroke="black" stroke-width="1.5" d="M244,-308.426C244,-308.426 244,-268.745 244,-268.745"/>
<polygon fill="black" stroke="black" points="249.25,-268.745 244,-253.745 238.75,-268.745 249.25,-268.745"/>
</g>
</g>
</svg>
