<?xml version="1.0" encoding="UTF-8" standalone="no"?>
<!DOCTYPE svg PUBLIC "-//W3C//DTD SVG 1.1//EN"
 "http://www.w3.org/Graphics/SVG/1.1/DTD/svg11.dtd">
<!-- Generated by graphviz version 2.30.1 (20201013.1554)
 -->
<!-- Title: Pipeline Pages: 1 -->
<svg width="372pt" height="416pt"
 viewBox="0.00 0.00 372.00 416.00" xmlns="http://www.w3.org/2000/svg" xmlns:xlink="http://www.w3.org/1999/xlink">
<g id="graph0" class="graph" transform="scale(1 1) rotate(0) translate(4 412)">
<title>Pipeline</title>
<polygon fill="white" stroke="white" points="-4,5 -4,-412 369,-412 369,5 -4,5"/>
<!-- cpBiasCombine:2 -->
<g id="node1" class="node"><title>cpBiasCombine:2</title>
<polygon fill="#b1f2ef" stroke="black" stroke-width="3" points="364.25,-253.5 -0.25,-253.5 -0.25,-154.5 364.25,-154.5 364.25,-253.5"/>
<text text-anchor="start" x="21" y="-225.1" font-family="Monospace" font-weight="bold" font-size="18.00">cpBiasCombine</text>
<text text-anchor="start" x="21" y="-197.8" font-family="Monospace" font-size="14.00">lsst.cp.pipe.cpCombine.CalibCombineTask</text>
<text text-anchor="start" x="21" y="-171.8" font-family="Monospace" font-style="italic" font-size="14.00">dimensions:</text>
<text text-anchor="start" x="112" y="-171.8" font-family="Monospace" font-size="14.00"> {detector}</text>
</g>
<!-- bias:0 -->
<g id="node3" class="node"><title>bias:0</title>
<path fill="#f5f5f5" stroke="#00babc" stroke-width="3" d="M291,-99.5C291,-99.5 73,-99.5 73,-99.5 67,-99.5 61,-93.5 61,-87.5 61,-87.5 61,-12.5 61,-12.5 61,-6.5 67,-0.5 73,-0.5 73,-0.5 291,-0.5 291,-0.5 297,-0.5 303,-6.5 303,-12.5 303,-12.5 303,-87.5 303,-87.5 303,-93.5 297,-99.5 291,-99.5"/>
<text text-anchor="start" x="82" y="-71.1" font-family="Monospace" font-weight="bold" font-size="18.00">bias</text>
<text text-anchor="start" x="82" y="-43.8" font-family="Monospace" font-style="italic" font-size="14.00">dimensions:</text>
<text text-anchor="start" x="173" y="-43.8" font-family="Monospace" font-size="14.00"> {detector}</text>
<text text-anchor="start" x="82" y="-17.8" font-family="Monospace" font-style="italic" font-size="14.00">storage class:</text>
<text text-anchor="start" x="198" y="-17.8" font-family="Monospace" font-size="14.00"> ExposureF</text>
</g>
<!-- cpBiasCombine:2&#45;&gt;bias:0 -->
<g id="edge1" class="edge"><title>cpBiasCombine:2&#45;&gt;bias:0</title>
<path fill="none" stroke="black" stroke-width="1.5" d="M182,-154.426C182,-154.426 182,-114.745 182,-114.745"/>
<polygon fill="black" stroke="black" points="187.25,-114.745 182,-99.7452 176.75,-114.745 187.25,-114.745"/>
</g>
<!-- cpBiasIsrExp:0 -->
<g id="node2" class="node"><title>cpBiasIsrExp:0</title>
<path fill="#f5f5f5" stroke="#00babc" stroke-width="3" d="M324,-407.5C324,-407.5 40,-407.5 40,-407.5 34,-407.5 28,-401.5 28,-395.5 28,-395.5 28,-320.5 28,-320.5 28,-314.5 34,-308.5 40,-308.5 40,-308.5 324,-308.5 324,-308.5 330,-308.5 336,-314.5 336,-320.5 336,-320.5 336,-395.5 336,-395.5 336,-401.5 330,-407.5 324,-407.5"/>
<text text-anchor="start" x="49" y="-379.1" font-family="Monospace" font-weight="bold" font-size="18.00">cpBiasIsrExp</text>
<text text-anchor="start" x="49" y="-351.8" font-family="Monospace" font-style="italic" font-size="14.00">dimensions:</text>
<text text-anchor="start" x="140" y="-351.8" font-family="Monospace" font-size="14.00"> {detector, exposure}</text>
<text text-anchor="start" x="49" y="-325.8" font-family="Monospace" font-style="italic" font-size="14.00">storage class:</text>
<text text-anchor="start" x="165" y="-325.8" font-family="Monospace" font-size="14.00"> Exposure</text>
</g>
<!-- cpBiasIsrExp:0&#45;&gt;cpBiasCombine:2 -->
<g id="edge2" class="edge"><title>cpBiasIsrExp:0&#45;&gt;cpBiasCombine:2</title>
<path fill="none" stroke="black" stroke-width="1.5" d="M182,-308.426C182,-308.426 182,-268.745 182,-268.745"/>
<polygon fill="black" stroke="black" points="187.25,-268.745 182,-253.745 176.75,-268.745 187.25,-268.745"/>
</g>
</g>
</svg>
