<?xml version="1.0" encoding="UTF-8" standalone="no"?>
<!DOCTYPE svg PUBLIC "-//W3C//DTD SVG 1.1//EN"
 "http://www.w3.org/Graphics/SVG/1.1/DTD/svg11.dtd">
<!-- Generated by graphviz version 2.30.1 (20201013.1554)
 -->
<!-- Title: Pipeline Pages: 1 -->
<svg width="604pt" height="446pt"
 viewBox="0.00 0.00 604.00 446.00" xmlns="http://www.w3.org/2000/svg" xmlns:xlink="http://www.w3.org/1999/xlink">
<g id="graph0" class="graph" transform="scale(1 1) rotate(0) translate(4 442)">
<title>Pipeline</title>
<polygon fill="white" stroke="white" points="-4,5 -4,-442 601,-442 601,5 -4,5"/>
<!-- isolatedStarAssociation:2 -->
<g id="node1" class="node"><title>isolatedStarAssociation:2</title>
<polygon fill="#b1f2ef" stroke="black" stroke-width="3" points="596,-283.5 0,-283.5 0,-184.5 596,-184.5 596,-283.5"/>
<text text-anchor="start" x="21" y="-255.1" font-family="Monospace" font-weight="bold" font-size="18.00">isolatedStarAssociation</text>
<text text-anchor="start" x="21" y="-227.8" font-family="Monospace" font-size="14.00">lsst.pipe.tasks.isolatedStarAssociation.IsolatedStarAssociationTask</text>
<text text-anchor="start" x="21" y="-201.8" font-family="Monospace" font-style="italic" font-size="14.00">dimensions:</text>
<text text-anchor="start" x="112" y="-201.8" font-family="Monospace" font-size="14.00"> {instrument, tract}</text>
</g>
<!-- 2e69bcb2:0 -->
<g id="node4" class="node"><title>2e69bcb2:0</title>
<path fill="#f5f5f5" stroke="#00babc" stroke-width="3" d="M436,-129.5C436,-129.5 160,-129.5 160,-129.5 154,-129.5 148,-123.5 148,-117.5 148,-117.5 148,-12.5 148,-12.5 148,-6.5 154,-0.5 160,-0.5 160,-0.5 436,-0.5 436,-0.5 442,-0.5 448,-6.5 448,-12.5 448,-12.5 448,-117.5 448,-117.5 448,-123.5 442,-129.5 436,-129.5"/>
<text text-anchor="start" x="169" y="-101.1" font-family="Monospace" font-weight="bold" font-size="18.00">isolated_star_sources</text>
<text text-anchor="start" x="169" y="-70.6" font-family="Monospace" font-weight="bold" font-size="18.00">isolated_star_cat</text>
<text text-anchor="start" x="169" y="-43.8" font-family="Monospace" font-style="italic" font-size="14.00">dimensions:</text>
<text text-anchor="start" x="260" y="-43.8" font-family="Monospace" font-size="14.00"> {instrument, tract}</text>
<text text-anchor="start" x="169" y="-17.8" font-family="Monospace" font-style="italic" font-size="14.00">storage class:</text>
<text text-anchor="start" x="285" y="-17.8" font-family="Monospace" font-size="14.00"> DataFrame</text>
</g>
<!-- isolatedStarAssociation:2&#45;&gt;2e69bcb2:0 -->
<g id="edge1" class="edge"><title>isolatedStarAssociation:2&#45;&gt;2e69bcb2:0</title>
<path fill="none" stroke="black" stroke-width="1.5" d="M298,-184.208C298,-184.208 298,-144.804 298,-144.804"/>
<polygon fill="black" stroke="black" points="303.25,-144.804 298,-129.804 292.75,-144.804 303.25,-144.804"/>
</g>
<!-- skyMap:0 -->
<g id="node2" class="node"><title>skyMap:0</title>
<path fill="#f5f5f5" stroke="#00babc" stroke-width="3" d="M258.25,-437.5C258.25,-437.5 65.75,-437.5 65.75,-437.5 59.75,-437.5 53.75,-431.5 53.75,-425.5 53.75,-425.5 53.75,-350.5 53.75,-350.5 53.75,-344.5 59.75,-338.5 65.75,-338.5 65.75,-338.5 258.25,-338.5 258.25,-338.5 264.25,-338.5 270.25,-344.5 270.25,-350.5 270.25,-350.5 270.25,-425.5 270.25,-425.5 270.25,-431.5 264.25,-437.5 258.25,-437.5"/>
<text text-anchor="start" x="75" y="-409.1" font-family="Monospace" font-weight="bold" font-size="18.00">skyMap</text>
<text text-anchor="start" x="75" y="-381.8" font-family="Monospace" font-style="italic" font-size="14.00">dimensions:</text>
<text text-anchor="start" x="166" y="-381.8" font-family="Monospace" font-size="14.00"> {skymap}</text>
<text text-anchor="start" x="75" y="-355.8" font-family="Monospace" font-style="italic" font-size="14.00">storage class:</text>
<text text-anchor="start" x="191" y="-355.8" font-family="Monospace" font-size="14.00"> SkyMap</text>
</g>
<!-- skyMap:0&#45;&gt;isolatedStarAssociation:2 -->
<g id="edge2" class="edge"><title>skyMap:0&#45;&gt;isolatedStarAssociation:2</title>
<path fill="none" stroke="black" stroke-width="1.5" d="M162,-338.426C162,-338.426 162,-298.745 162,-298.745"/>
<polygon fill="black" stroke="black" points="167.25,-298.745 162,-283.745 156.75,-298.745 167.25,-298.745"/>
</g>
<!-- preSourceTable_visit:0 -->
<g id="node3" class="node"><title>preSourceTable_visit:0</title>
<path fill="#f5f5f5" stroke="#00babc" stroke-width="3" d="M549,-437.5C549,-437.5 319,-437.5 319,-437.5 313,-437.5 307,-431.5 307,-425.5 307,-425.5 307,-350.5 307,-350.5 307,-344.5 313,-338.5 319,-338.5 319,-338.5 549,-338.5 549,-338.5 555,-338.5 561,-344.5 561,-350.5 561,-350.5 561,-425.5 561,-425.5 561,-431.5 555,-437.5 549,-437.5"/>
<text text-anchor="start" x="328" y="-409.1" font-family="Monospace" font-weight="bold" font-size="18.00">preSourceTable_visit</text>
<text text-anchor="start" x="328" y="-381.8" font-family="Monospace" font-style="italic" font-size="14.00">dimensions:</text>
<text text-anchor="start" x="419" y="-381.8" font-family="Monospace" font-size="14.00"> {visit}</text>
<text text-anchor="start" x="328" y="-355.8" font-family="Monospace" font-style="italic" font-size="14.00">storage class:</text>
<text text-anchor="start" x="444" y="-355.8" font-family="Monospace" font-size="14.00"> DataFrame</text>
</g>
<!-- preSourceTable_visit:0&#45;&gt;isolatedStarAssociation:2 -->
<g id="edge3" class="edge"><title>preSourceTable_visit:0&#45;&gt;isolatedStarAssociation:2</title>
<path fill="none" stroke="black" stroke-width="1.5" d="M434,-338.426C434,-338.426 434,-298.745 434,-298.745"/>
<polygon fill="black" stroke="black" points="439.25,-298.745 434,-283.745 428.75,-298.745 439.25,-298.745"/>
</g>
</g>
</svg>
