<?xml version="1.0" encoding="UTF-8" standalone="no"?>
<!DOCTYPE svg PUBLIC "-//W3C//DTD SVG 1.1//EN"
 "http://www.w3.org/Graphics/SVG/1.1/DTD/svg11.dtd">
<!-- Generated by graphviz version 2.30.1 (20201013.1554)
 -->
<!-- Title: Pipeline Pages: 1 -->
<svg width="1655pt" height="2632pt"
 viewBox="0.00 0.00 1655.00 2632.00" xmlns="http://www.w3.org/2000/svg" xmlns:xlink="http://www.w3.org/1999/xlink">
<g id="graph0" class="graph" transform="scale(1 1) rotate(0) translate(4 2628)">
<title>Pipeline</title>
<polygon fill="white" stroke="white" points="-4,5 -4,-2628 1652,-2628 1652,5 -4,5"/>
<!-- detection:2 -->
<g id="node1" class="node"><title>detection:2</title>
<polygon fill="#b1f2ef" stroke="black" stroke-width="3" points="993,-2469.5 553,-2469.5 553,-2370.5 993,-2370.5 993,-2469.5"/>
<text text-anchor="start" x="574" y="-2441.1" font-family="Monospace" font-weight="bold" font-size="18.00">detection</text>
<text text-anchor="start" x="574" y="-2413.8" font-family="Monospace" font-size="14.00">lsst.pipe.tasks.multiBand.DetectCoaddSourcesTask</text>
<text text-anchor="start" x="574" y="-2387.8" font-family="Monospace" font-style="italic" font-size="14.00">dimensions:</text>
<text text-anchor="start" x="665" y="-2387.8" font-family="Monospace" font-size="14.00"> {band, patch}</text>
</g>
<!-- deepCoadd_calexp_background:0 -->
<g id="node3" class="node"><title>deepCoadd_calexp_background:0</title>
<path fill="#f5f5f5" stroke="#00babc" stroke-width="3" d="M815.25,-2315.5C815.25,-2315.5 512.75,-2315.5 512.75,-2315.5 506.75,-2315.5 500.75,-2309.5 500.75,-2303.5 500.75,-2303.5 500.75,-2228.5 500.75,-2228.5 500.75,-2222.5 506.75,-2216.5 512.75,-2216.5 512.75,-2216.5 815.25,-2216.5 815.25,-2216.5 821.25,-2216.5 827.25,-2222.5 827.25,-2228.5 827.25,-2228.5 827.25,-2303.5 827.25,-2303.5 827.25,-2309.5 821.25,-2315.5 815.25,-2315.5"/>
<text text-anchor="start" x="522" y="-2287.1" font-family="Monospace" font-weight="bold" font-size="18.00">deepCoadd_calexp_background</text>
<text text-anchor="start" x="522" y="-2259.8" font-family="Monospace" font-style="italic" font-size="14.00">dimensions:</text>
<text text-anchor="start" x="613" y="-2259.8" font-family="Monospace" font-size="14.00"> {band, patch}</text>
<text text-anchor="start" x="522" y="-2233.8" font-family="Monospace" font-style="italic" font-size="14.00">storage class:</text>
<text text-anchor="start" x="638" y="-2233.8" font-family="Monospace" font-size="14.00"> Background</text>
</g>
<!-- detection:2&#45;&gt;deepCoadd_calexp_background:0 -->
<g id="edge1" class="edge"><title>detection:2&#45;&gt;deepCoadd_calexp_background:0</title>
<path fill="none" stroke="black" stroke-width="1.5" d="M690.125,-2370.43C690.125,-2370.43 690.125,-2330.75 690.125,-2330.75"/>
<polygon fill="black" stroke="black" points="695.375,-2330.75 690.125,-2315.75 684.875,-2330.75 695.375,-2330.75"/>
</g>
<!-- deepCoadd_calexp:0 -->
<g id="node4" class="node"><title>deepCoadd_calexp:0</title>
<path fill="#f5f5f5" stroke="#00babc" stroke-width="3" d="M996,-2007.5C996,-2007.5 770,-2007.5 770,-2007.5 764,-2007.5 758,-2001.5 758,-1995.5 758,-1995.5 758,-1920.5 758,-1920.5 758,-1914.5 764,-1908.5 770,-1908.5 770,-1908.5 996,-1908.5 996,-1908.5 1002,-1908.5 1008,-1914.5 1008,-1920.5 1008,-1920.5 1008,-1995.5 1008,-1995.5 1008,-2001.5 1002,-2007.5 996,-2007.5"/>
<text text-anchor="start" x="779" y="-1979.1" font-family="Monospace" font-weight="bold" font-size="18.00">deepCoadd_calexp</text>
<text text-anchor="start" x="779" y="-1951.8" font-family="Monospace" font-style="italic" font-size="14.00">dimensions:</text>
<text text-anchor="start" x="870" y="-1951.8" font-family="Monospace" font-size="14.00"> {band, patch}</text>
<text text-anchor="start" x="779" y="-1925.8" font-family="Monospace" font-style="italic" font-size="14.00">storage class:</text>
<text text-anchor="start" x="895" y="-1925.8" font-family="Monospace" font-size="14.00"> ExposureF</text>
</g>
<!-- detection:2&#45;&gt;deepCoadd_calexp:0 -->
<g id="edge2" class="edge"><title>detection:2&#45;&gt;deepCoadd_calexp:0</title>
<path fill="none" stroke="black" stroke-width="1.5" d="M882.5,-2370.12C882.5,-2370.12 882.5,-2022.67 882.5,-2022.67"/>
<polygon fill="black" stroke="black" points="887.75,-2022.67 882.5,-2007.67 877.25,-2022.67 887.75,-2022.67"/>
</g>
<!-- deepCoadd_det:0 -->
<g id="node5" class="node"><title>deepCoadd_det:0</title>
<path fill="#f5f5f5" stroke="#00babc" stroke-width="3" d="M1291.25,-2315.5C1291.25,-2315.5 1040.75,-2315.5 1040.75,-2315.5 1034.75,-2315.5 1028.75,-2309.5 1028.75,-2303.5 1028.75,-2303.5 1028.75,-2228.5 1028.75,-2228.5 1028.75,-2222.5 1034.75,-2216.5 1040.75,-2216.5 1040.75,-2216.5 1291.25,-2216.5 1291.25,-2216.5 1297.25,-2216.5 1303.25,-2222.5 1303.25,-2228.5 1303.25,-2228.5 1303.25,-2303.5 1303.25,-2303.5 1303.25,-2309.5 1297.25,-2315.5 1291.25,-2315.5"/>
<text text-anchor="start" x="1050" y="-2287.1" font-family="Monospace" font-weight="bold" font-size="18.00">deepCoadd_det</text>
<text text-anchor="start" x="1050" y="-2259.8" font-family="Monospace" font-style="italic" font-size="14.00">dimensions:</text>
<text text-anchor="start" x="1141" y="-2259.8" font-family="Monospace" font-size="14.00"> {band, patch}</text>
<text text-anchor="start" x="1050" y="-2233.8" font-family="Monospace" font-style="italic" font-size="14.00">storage class:</text>
<text text-anchor="start" x="1166" y="-2233.8" font-family="Monospace" font-size="14.00"> SourceCatalog</text>
</g>
<!-- detection:2&#45;&gt;deepCoadd_det:0 -->
<g id="edge3" class="edge"><title>detection:2&#45;&gt;deepCoadd_det:0</title>
<path fill="none" stroke="black" stroke-width="1.5" d="M937.75,-2370.43C937.75,-2325.41 937.75,-2266 937.75,-2266 937.75,-2266 1013.62,-2266 1013.62,-2266"/>
<polygon fill="black" stroke="black" points="1013.62,-2271.25 1028.62,-2266 1013.62,-2260.75 1013.62,-2271.25"/>
</g>
<!-- deepCoadd:0 -->
<g id="node2" class="node"><title>deepCoadd:0</title>
<path fill="#f5f5f5" stroke="#00babc" stroke-width="3" d="M469,-2623.5C469,-2623.5 243,-2623.5 243,-2623.5 237,-2623.5 231,-2617.5 231,-2611.5 231,-2611.5 231,-2536.5 231,-2536.5 231,-2530.5 237,-2524.5 243,-2524.5 243,-2524.5 469,-2524.5 469,-2524.5 475,-2524.5 481,-2530.5 481,-2536.5 481,-2536.5 481,-2611.5 481,-2611.5 481,-2617.5 475,-2623.5 469,-2623.5"/>
<text text-anchor="start" x="252" y="-2595.1" font-family="Monospace" font-weight="bold" font-size="18.00">deepCoadd</text>
<text text-anchor="start" x="252" y="-2567.8" font-family="Monospace" font-style="italic" font-size="14.00">dimensions:</text>
<text text-anchor="start" x="343" y="-2567.8" font-family="Monospace" font-size="14.00"> {band, patch}</text>
<text text-anchor="start" x="252" y="-2541.8" font-family="Monospace" font-style="italic" font-size="14.00">storage class:</text>
<text text-anchor="start" x="368" y="-2541.8" font-family="Monospace" font-size="14.00"> ExposureF</text>
</g>
<!-- deepCoadd:0&#45;&gt;detection:2 -->
<g id="edge4" class="edge"><title>deepCoadd:0&#45;&gt;detection:2</title>
<path fill="none" stroke="black" stroke-width="1.5" d="M451.875,-2524.43C451.875,-2479.41 451.875,-2420 451.875,-2420 451.875,-2420 537.6,-2420 537.6,-2420"/>
<polygon fill="black" stroke="black" points="537.6,-2425.25 552.6,-2420 537.6,-2414.75 537.6,-2425.25"/>
</g>
<!-- forcedPhotCoadd:2 -->
<g id="node22" class="node"><title>forcedPhotCoadd:2</title>
<polygon fill="#b1f2ef" stroke="black" stroke-width="3" points="456,-869.5 0,-869.5 0,-770.5 456,-770.5 456,-869.5"/>
<text text-anchor="start" x="21" y="-841.1" font-family="Monospace" font-weight="bold" font-size="18.00">forcedPhotCoadd</text>
<text text-anchor="start" x="21" y="-813.8" font-family="Monospace" font-size="14.00">lsst.drp.tasks.forcedPhotCoadd.ForcedPhotCoaddTask</text>
<text text-anchor="start" x="21" y="-787.8" font-family="Monospace" font-style="italic" font-size="14.00">dimensions:</text>
<text text-anchor="start" x="112" y="-787.8" font-family="Monospace" font-size="14.00"> {band, patch}</text>
</g>
<!-- deepCoadd:0&#45;&gt;forcedPhotCoadd:2 -->
<g id="edge5" class="edge"><title>deepCoadd:0&#45;&gt;forcedPhotCoadd:2</title>
<path fill="none" stroke="black" stroke-width="1.5" d="M230.676,-2574C136.351,-2574 23.25,-2574 23.25,-2574 23.25,-2574 23.25,-884.668 23.25,-884.668"/>
<polygon fill="black" stroke="black" points="28.5001,-884.668 23.25,-869.668 18.0001,-884.668 28.5001,-884.668"/>
</g>
<!-- deblend:2 -->
<g id="node9" class="node"><title>deblend:2</title>
<polygon fill="#b1f2ef" stroke="black" stroke-width="3" points="1576,-1853.5 938,-1853.5 938,-1754.5 1576,-1754.5 1576,-1853.5"/>
<text text-anchor="start" x="959" y="-1825.1" font-family="Monospace" font-weight="bold" font-size="18.00">deblend</text>
<text text-anchor="start" x="959" y="-1797.8" font-family="Monospace" font-size="14.00">lsst.pipe.tasks.deblendCoaddSourcesPipeline.DeblendCoaddSourcesMultiTask</text>
<text text-anchor="start" x="959" y="-1771.8" font-family="Monospace" font-style="italic" font-size="14.00">dimensions:</text>
<text text-anchor="start" x="1050" y="-1771.8" font-family="Monospace" font-size="14.00"> {patch}</text>
</g>
<!-- deepCoadd_calexp:0&#45;&gt;deblend:2 -->
<g id="edge6" class="edge"><title>deepCoadd_calexp:0&#45;&gt;deblend:2</title>
<path fill="none" stroke="black" stroke-width="1.5" d="M973,-1908.43C973,-1908.43 973,-1868.75 973,-1868.75"/>
<polygon fill="black" stroke="black" points="978.25,-1868.75 973,-1853.75 967.75,-1868.75 978.25,-1868.75"/>
</g>
<!-- measure:2 -->
<g id="node12" class="node"><title>measure:2</title>
<polygon fill="#b1f2ef" stroke="black" stroke-width="3" points="1109.25,-1515.5 612.75,-1515.5 612.75,-1416.5 1109.25,-1416.5 1109.25,-1515.5"/>
<text text-anchor="start" x="634" y="-1487.1" font-family="Monospace" font-weight="bold" font-size="18.00">measure</text>
<text text-anchor="start" x="634" y="-1459.8" font-family="Monospace" font-size="14.00">lsst.pipe.tasks.multiBand.MeasureMergedCoaddSourcesTask</text>
<text text-anchor="start" x="634" y="-1433.8" font-family="Monospace" font-style="italic" font-size="14.00">dimensions:</text>
<text text-anchor="start" x="725" y="-1433.8" font-family="Monospace" font-size="14.00"> {band, patch}</text>
</g>
<!-- deepCoadd_calexp:0&#45;&gt;measure:2 -->
<g id="edge7" class="edge"><title>deepCoadd_calexp:0&#45;&gt;measure:2</title>
<path fill="none" stroke="black" stroke-width="1.5" d="M757.861,-1941C733.646,-1941 715.625,-1941 715.625,-1941 715.625,-1941 715.625,-1530.94 715.625,-1530.94"/>
<polygon fill="black" stroke="black" points="720.875,-1530.94 715.625,-1515.94 710.375,-1530.94 720.875,-1530.94"/>
</g>
<!-- deepCoadd_calexp:0&#45;&gt;forcedPhotCoadd:2 -->
<g id="edge8" class="edge"><title>deepCoadd_calexp:0&#45;&gt;forcedPhotCoadd:2</title>
<path fill="none" stroke="black" stroke-width="1.5" d="M757.767,-1974C524.412,-1974 46.5,-1974 46.5,-1974 46.5,-1974 46.5,-884.586 46.5,-884.586"/>
<polygon fill="black" stroke="black" points="51.7501,-884.586 46.5,-869.586 41.2501,-884.586 51.7501,-884.586"/>
</g>
<!-- mergeDetections:2 -->
<g id="node6" class="node"><title>mergeDetections:2</title>
<polygon fill="#b1f2ef" stroke="black" stroke-width="3" points="1489,-2161.5 1025,-2161.5 1025,-2062.5 1489,-2062.5 1489,-2161.5"/>
<text text-anchor="start" x="1046" y="-2133.1" font-family="Monospace" font-weight="bold" font-size="18.00">mergeDetections</text>
<text text-anchor="start" x="1046" y="-2105.8" font-family="Monospace" font-size="14.00">lsst.pipe.tasks.mergeDetections.MergeDetectionsTask</text>
<text text-anchor="start" x="1046" y="-2079.8" font-family="Monospace" font-style="italic" font-size="14.00">dimensions:</text>
<text text-anchor="start" x="1137" y="-2079.8" font-family="Monospace" font-size="14.00"> {patch}</text>
</g>
<!-- deepCoadd_det:0&#45;&gt;mergeDetections:2 -->
<g id="edge9" class="edge"><title>deepCoadd_det:0&#45;&gt;mergeDetections:2</title>
<path fill="none" stroke="black" stroke-width="1.5" d="M1166,-2216.43C1166,-2216.43 1166,-2176.75 1166,-2176.75"/>
<polygon fill="black" stroke="black" points="1171.25,-2176.75 1166,-2161.75 1160.75,-2176.75 1171.25,-2176.75"/>
</g>
<!-- deepCoadd_mergeDet:0 -->
<g id="node8" class="node"><title>deepCoadd_mergeDet:0</title>
<path fill="#f5f5f5" stroke="#00babc" stroke-width="3" d="M1382.25,-2007.5C1382.25,-2007.5 1131.75,-2007.5 1131.75,-2007.5 1125.75,-2007.5 1119.75,-2001.5 1119.75,-1995.5 1119.75,-1995.5 1119.75,-1920.5 1119.75,-1920.5 1119.75,-1914.5 1125.75,-1908.5 1131.75,-1908.5 1131.75,-1908.5 1382.25,-1908.5 1382.25,-1908.5 1388.25,-1908.5 1394.25,-1914.5 1394.25,-1920.5 1394.25,-1920.5 1394.25,-1995.5 1394.25,-1995.5 1394.25,-2001.5 1388.25,-2007.5 1382.25,-2007.5"/>
<text text-anchor="start" x="1141" y="-1979.1" font-family="Monospace" font-weight="bold" font-size="18.00">deepCoadd_mergeDet</text>
<text text-anchor="start" x="1141" y="-1951.8" font-family="Monospace" font-style="italic" font-size="14.00">dimensions:</text>
<text text-anchor="start" x="1232" y="-1951.8" font-family="Monospace" font-size="14.00"> {patch}</text>
<text text-anchor="start" x="1141" y="-1925.8" font-family="Monospace" font-style="italic" font-size="14.00">storage class:</text>
<text text-anchor="start" x="1257" y="-1925.8" font-family="Monospace" font-size="14.00"> SourceCatalog</text>
</g>
<!-- mergeDetections:2&#45;&gt;deepCoadd_mergeDet:0 -->
<g id="edge10" class="edge"><title>mergeDetections:2&#45;&gt;deepCoadd_mergeDet:0</title>
<path fill="none" stroke="black" stroke-width="1.5" d="M1257,-2062.43C1257,-2062.43 1257,-2022.75 1257,-2022.75"/>
<polygon fill="black" stroke="black" points="1262.25,-2022.75 1257,-2007.75 1251.75,-2022.75 1262.25,-2022.75"/>
</g>
<!-- skyMap:0 -->
<g id="node7" class="node"><title>skyMap:0</title>
<path fill="#f5f5f5" stroke="#00babc" stroke-width="3" d="M1635.25,-2315.5C1635.25,-2315.5 1442.75,-2315.5 1442.75,-2315.5 1436.75,-2315.5 1430.75,-2309.5 1430.75,-2303.5 1430.75,-2303.5 1430.75,-2228.5 1430.75,-2228.5 1430.75,-2222.5 1436.75,-2216.5 1442.75,-2216.5 1442.75,-2216.5 1635.25,-2216.5 1635.25,-2216.5 1641.25,-2216.5 1647.25,-2222.5 1647.25,-2228.5 1647.25,-2228.5 1647.25,-2303.5 1647.25,-2303.5 1647.25,-2309.5 1641.25,-2315.5 1635.25,-2315.5"/>
<text text-anchor="start" x="1452" y="-2287.1" font-family="Monospace" font-weight="bold" font-size="18.00">skyMap</text>
<text text-anchor="start" x="1452" y="-2259.8" font-family="Monospace" font-style="italic" font-size="14.00">dimensions:</text>
<text text-anchor="start" x="1543" y="-2259.8" font-family="Monospace" font-size="14.00"> {skymap}</text>
<text text-anchor="start" x="1452" y="-2233.8" font-family="Monospace" font-style="italic" font-size="14.00">storage class:</text>
<text text-anchor="start" x="1568" y="-2233.8" font-family="Monospace" font-size="14.00"> SkyMap</text>
</g>
<!-- skyMap:0&#45;&gt;mergeDetections:2 -->
<g id="edge11" class="edge"><title>skyMap:0&#45;&gt;mergeDetections:2</title>
<path fill="none" stroke="black" stroke-width="1.5" d="M1459.88,-2216.43C1459.88,-2216.43 1459.88,-2176.75 1459.88,-2176.75"/>
<polygon fill="black" stroke="black" points="1465.13,-2176.75 1459.88,-2161.75 1454.63,-2176.75 1465.13,-2176.75"/>
</g>
<!-- skyMap:0&#45;&gt;measure:2 -->
<g id="edge12" class="edge"><title>skyMap:0&#45;&gt;measure:2</title>
<path fill="none" stroke="black" stroke-width="1.5" d="M1611.62,-2216.26C1611.62,-2041.48 1611.62,-1466 1611.62,-1466 1611.62,-1466 1124.38,-1466 1124.38,-1466"/>
<polygon fill="black" stroke="black" points="1124.38,-1460.75 1109.38,-1466 1124.38,-1471.25 1124.38,-1460.75"/>
</g>
<!-- deepCoadd_mergeDet:0&#45;&gt;deblend:2 -->
<g id="edge13" class="edge"><title>deepCoadd_mergeDet:0&#45;&gt;deblend:2</title>
<path fill="none" stroke="black" stroke-width="1.5" d="M1257,-1908.43C1257,-1908.43 1257,-1868.75 1257,-1868.75"/>
<polygon fill="black" stroke="black" points="1262.25,-1868.75 1257,-1853.75 1251.75,-1868.75 1262.25,-1868.75"/>
</g>
<!-- deepCoadd_deblendedCatalog:0 -->
<g id="node10" class="node"><title>deepCoadd_deblendedCatalog:0</title>
<path fill="#f5f5f5" stroke="#00babc" stroke-width="3" d="M1403.25,-1684.5C1403.25,-1684.5 1110.75,-1684.5 1110.75,-1684.5 1104.75,-1684.5 1098.75,-1678.5 1098.75,-1672.5 1098.75,-1672.5 1098.75,-1597.5 1098.75,-1597.5 1098.75,-1591.5 1104.75,-1585.5 1110.75,-1585.5 1110.75,-1585.5 1403.25,-1585.5 1403.25,-1585.5 1409.25,-1585.5 1415.25,-1591.5 1415.25,-1597.5 1415.25,-1597.5 1415.25,-1672.5 1415.25,-1672.5 1415.25,-1678.5 1409.25,-1684.5 1403.25,-1684.5"/>
<text text-anchor="start" x="1120" y="-1656.1" font-family="Monospace" font-weight="bold" font-size="18.00">deepCoadd_deblendedCatalog</text>
<text text-anchor="start" x="1120" y="-1628.8" font-family="Monospace" font-style="italic" font-size="14.00">dimensions:</text>
<text text-anchor="start" x="1211" y="-1628.8" font-family="Monospace" font-size="14.00"> {patch}</text>
<text text-anchor="start" x="1120" y="-1602.8" font-family="Monospace" font-style="italic" font-size="14.00">storage class:</text>
<text text-anchor="start" x="1236" y="-1602.8" font-family="Monospace" font-size="14.00"> SourceCatalog</text>
</g>
<!-- deblend:2&#45;&gt;deepCoadd_deblendedCatalog:0 -->
<g id="edge14" class="edge"><title>deblend:2&#45;&gt;deepCoadd_deblendedCatalog:0</title>
<path fill="none" stroke="black" stroke-width="1.5" d="M1257,-1754.21C1257,-1754.21 1257,-1699.73 1257,-1699.73"/>
<polygon fill="black" stroke="black" points="1262.25,-1699.73 1257,-1684.73 1251.75,-1699.73 1262.25,-1699.73"/>
</g>
<!-- deepCoadd_scarletModelData:0 -->
<g id="node11" class="node"><title>deepCoadd_scarletModelData:0</title>
<path fill="#f5f5f5" stroke="#00babc" stroke-width="3" d="M374.25,-1684.5C374.25,-1684.5 81.75,-1684.5 81.75,-1684.5 75.75,-1684.5 69.75,-1678.5 69.75,-1672.5 69.75,-1672.5 69.75,-1597.5 69.75,-1597.5 69.75,-1591.5 75.75,-1585.5 81.75,-1585.5 81.75,-1585.5 374.25,-1585.5 374.25,-1585.5 380.25,-1585.5 386.25,-1591.5 386.25,-1597.5 386.25,-1597.5 386.25,-1672.5 386.25,-1672.5 386.25,-1678.5 380.25,-1684.5 374.25,-1684.5"/>
<text text-anchor="start" x="91" y="-1656.1" font-family="Monospace" font-weight="bold" font-size="18.00">deepCoadd_scarletModelData</text>
<text text-anchor="start" x="91" y="-1628.8" font-family="Monospace" font-style="italic" font-size="14.00">dimensions:</text>
<text text-anchor="start" x="182" y="-1628.8" font-family="Monospace" font-size="14.00"> {patch}</text>
<text text-anchor="start" x="91" y="-1602.8" font-family="Monospace" font-style="italic" font-size="14.00">storage class:</text>
<text text-anchor="start" x="207" y="-1602.8" font-family="Monospace" font-size="14.00"> ScarletModelData</text>
</g>
<!-- deblend:2&#45;&gt;deepCoadd_scarletModelData:0 -->
<g id="edge15" class="edge"><title>deblend:2&#45;&gt;deepCoadd_scarletModelData:0</title>
<path fill="none" stroke="black" stroke-width="1.5" d="M937.906,-1804C662.488,-1804 308.625,-1804 308.625,-1804 308.625,-1804 308.625,-1699.79 308.625,-1699.79"/>
<polygon fill="black" stroke="black" points="313.875,-1699.79 308.625,-1684.79 303.375,-1699.79 313.875,-1699.79"/>
</g>
<!-- deepCoadd_deblendedCatalog:0&#45;&gt;measure:2 -->
<g id="edge16" class="edge"><title>deepCoadd_deblendedCatalog:0&#45;&gt;measure:2</title>
<path fill="none" stroke="black" stroke-width="1.5" d="M1104,-1585.21C1104,-1585.21 1104,-1530.73 1104,-1530.73"/>
<polygon fill="black" stroke="black" points="1109.25,-1530.73 1104,-1515.73 1098.75,-1530.73 1109.25,-1530.73"/>
</g>
<!-- deepCoadd_scarletModelData:0&#45;&gt;measure:2 -->
<g id="edge17" class="edge"><title>deepCoadd_scarletModelData:0&#45;&gt;measure:2</title>
<path fill="none" stroke="black" stroke-width="1.5" d="M360,-1585.21C360,-1535.36 360,-1466 360,-1466 360,-1466 597.702,-1466 597.702,-1466"/>
<polygon fill="black" stroke="black" points="597.702,-1471.25 612.702,-1466 597.702,-1460.75 597.702,-1471.25"/>
</g>
<!-- deepCoadd_scarletModelData:0&#45;&gt;forcedPhotCoadd:2 -->
<g id="edge18" class="edge"><title>deepCoadd_scarletModelData:0&#45;&gt;forcedPhotCoadd:2</title>
<path fill="none" stroke="black" stroke-width="1.5" d="M201.75,-1585.24C201.75,-1585.24 201.75,-884.62 201.75,-884.62"/>
<polygon fill="black" stroke="black" points="207,-884.62 201.75,-869.62 196.5,-884.621 207,-884.62"/>
</g>
<!-- deepCoadd_meas:0 -->
<g id="node14" class="node"><title>deepCoadd_meas:0</title>
<path fill="#f5f5f5" stroke="#00babc" stroke-width="3" d="M986.25,-1346.5C986.25,-1346.5 735.75,-1346.5 735.75,-1346.5 729.75,-1346.5 723.75,-1340.5 723.75,-1334.5 723.75,-1334.5 723.75,-1259.5 723.75,-1259.5 723.75,-1253.5 729.75,-1247.5 735.75,-1247.5 735.75,-1247.5 986.25,-1247.5 986.25,-1247.5 992.25,-1247.5 998.25,-1253.5 998.25,-1259.5 998.25,-1259.5 998.25,-1334.5 998.25,-1334.5 998.25,-1340.5 992.25,-1346.5 986.25,-1346.5"/>
<text text-anchor="start" x="745" y="-1318.1" font-family="Monospace" font-weight="bold" font-size="18.00">deepCoadd_meas</text>
<text text-anchor="start" x="745" y="-1290.8" font-family="Monospace" font-style="italic" font-size="14.00">dimensions:</text>
<text text-anchor="start" x="836" y="-1290.8" font-family="Monospace" font-size="14.00"> {band, patch}</text>
<text text-anchor="start" x="745" y="-1264.8" font-family="Monospace" font-style="italic" font-size="14.00">storage class:</text>
<text text-anchor="start" x="861" y="-1264.8" font-family="Monospace" font-size="14.00"> SourceCatalog</text>
</g>
<!-- measure:2&#45;&gt;deepCoadd_meas:0 -->
<g id="edge19" class="edge"><title>measure:2&#45;&gt;deepCoadd_meas:0</title>
<path fill="none" stroke="black" stroke-width="1.5" d="M861,-1416.21C861,-1416.21 861,-1361.73 861,-1361.73"/>
<polygon fill="black" stroke="black" points="866.25,-1361.73 861,-1346.73 855.75,-1361.73 866.25,-1361.73"/>
</g>
<!-- 39210d17:0 -->
<g id="node24" class="node"><title>39210d17:0</title>
<path fill="#f5f5f5" stroke="#00babc" stroke-width="3" d="M675.25,-1361.5C675.25,-1361.5 414.75,-1361.5 414.75,-1361.5 408.75,-1361.5 402.75,-1355.5 402.75,-1349.5 402.75,-1349.5 402.75,-1244.5 402.75,-1244.5 402.75,-1238.5 408.75,-1232.5 414.75,-1232.5 414.75,-1232.5 675.25,-1232.5 675.25,-1232.5 681.25,-1232.5 687.25,-1238.5 687.25,-1244.5 687.25,-1244.5 687.25,-1349.5 687.25,-1349.5 687.25,-1355.5 681.25,-1361.5 675.25,-1361.5"/>
<text text-anchor="start" x="424" y="-1333.1" font-family="Monospace" font-weight="bold" font-size="18.00">deepCoadd_measMatchFull</text>
<text text-anchor="start" x="424" y="-1302.6" font-family="Monospace" font-weight="bold" font-size="18.00">deepCoadd_measMatch</text>
<text text-anchor="start" x="424" y="-1275.8" font-family="Monospace" font-style="italic" font-size="14.00">dimensions:</text>
<text text-anchor="start" x="515" y="-1275.8" font-family="Monospace" font-size="14.00"> {band, patch}</text>
<text text-anchor="start" x="424" y="-1249.8" font-family="Monospace" font-style="italic" font-size="14.00">storage class:</text>
<text text-anchor="start" x="540" y="-1249.8" font-family="Monospace" font-size="14.00"> Catalog</text>
</g>
<!-- measure:2&#45;&gt;39210d17:0 -->
<g id="edge20" class="edge"><title>measure:2&#45;&gt;39210d17:0</title>
<path fill="none" stroke="black" stroke-width="1.5" d="M650,-1416.21C650,-1416.21 650,-1376.8 650,-1376.8"/>
<polygon fill="black" stroke="black" points="655.25,-1376.8 650,-1361.8 644.75,-1376.8 655.25,-1376.8"/>
</g>
<!-- ps1_pv3_3pi_20170110:0 -->
<g id="node13" class="node"><title>ps1_pv3_3pi_20170110:0</title>
<path fill="#f5f5f5" stroke="#00babc" stroke-width="3" d="M685.25,-1684.5C685.25,-1684.5 434.75,-1684.5 434.75,-1684.5 428.75,-1684.5 422.75,-1678.5 422.75,-1672.5 422.75,-1672.5 422.75,-1597.5 422.75,-1597.5 422.75,-1591.5 428.75,-1585.5 434.75,-1585.5 434.75,-1585.5 685.25,-1585.5 685.25,-1585.5 691.25,-1585.5 697.25,-1591.5 697.25,-1597.5 697.25,-1597.5 697.25,-1672.5 697.25,-1672.5 697.25,-1678.5 691.25,-1684.5 685.25,-1684.5"/>
<text text-anchor="start" x="444" y="-1656.1" font-family="Monospace" font-weight="bold" font-size="18.00">ps1_pv3_3pi_20170110</text>
<text text-anchor="start" x="444" y="-1628.8" font-family="Monospace" font-style="italic" font-size="14.00">dimensions:</text>
<text text-anchor="start" x="535" y="-1628.8" font-family="Monospace" font-size="14.00"> {htm7}</text>
<text text-anchor="start" x="444" y="-1602.8" font-family="Monospace" font-style="italic" font-size="14.00">storage class:</text>
<text text-anchor="start" x="560" y="-1602.8" font-family="Monospace" font-size="14.00"> SimpleCatalog</text>
</g>
<!-- ps1_pv3_3pi_20170110:0&#45;&gt;measure:2 -->
<g id="edge21" class="edge"><title>ps1_pv3_3pi_20170110:0&#45;&gt;measure:2</title>
<path fill="none" stroke="black" stroke-width="1.5" stroke-dasharray="5,2" d="M655,-1585.21C655,-1585.21 655,-1530.73 655,-1530.73"/>
<polygon fill="black" stroke="black" points="660.25,-1530.73 655,-1515.73 649.75,-1530.73 660.25,-1530.73"/>
</g>
<!-- mergeMeasurements:2 -->
<g id="node15" class="node"><title>mergeMeasurements:2</title>
<polygon fill="#b1f2ef" stroke="black" stroke-width="3" points="830.25,-1177.5 333.75,-1177.5 333.75,-1078.5 830.25,-1078.5 830.25,-1177.5"/>
<text text-anchor="start" x="355" y="-1149.1" font-family="Monospace" font-weight="bold" font-size="18.00">mergeMeasurements</text>
<text text-anchor="start" x="355" y="-1121.8" font-family="Monospace" font-size="14.00">lsst.pipe.tasks.mergeMeasurements.MergeMeasurementsTask</text>
<text text-anchor="start" x="355" y="-1095.8" font-family="Monospace" font-style="italic" font-size="14.00">dimensions:</text>
<text text-anchor="start" x="446" y="-1095.8" font-family="Monospace" font-size="14.00"> {patch}</text>
</g>
<!-- deepCoadd_meas:0&#45;&gt;mergeMeasurements:2 -->
<g id="edge22" class="edge"><title>deepCoadd_meas:0&#45;&gt;mergeMeasurements:2</title>
<path fill="none" stroke="black" stroke-width="1.5" d="M777,-1247.21C777,-1247.21 777,-1192.73 777,-1192.73"/>
<polygon fill="black" stroke="black" points="782.25,-1192.73 777,-1177.73 771.75,-1192.73 782.25,-1192.73"/>
</g>
<!-- writeObjectTable:2 -->
<g id="node17" class="node"><title>writeObjectTable:2</title>
<polygon fill="#b1f2ef" stroke="black" stroke-width="3" points="755,-561.5 315,-561.5 315,-462.5 755,-462.5 755,-561.5"/>
<text text-anchor="start" x="336" y="-533.1" font-family="Monospace" font-weight="bold" font-size="18.00">writeObjectTable</text>
<text text-anchor="start" x="336" y="-505.8" font-family="Monospace" font-size="14.00">lsst.pipe.tasks.postprocess.WriteObjectTableTask</text>
<text text-anchor="start" x="336" y="-479.8" font-family="Monospace" font-style="italic" font-size="14.00">dimensions:</text>
<text text-anchor="start" x="427" y="-479.8" font-family="Monospace" font-size="14.00"> {patch}</text>
</g>
<!-- deepCoadd_meas:0&#45;&gt;writeObjectTable:2 -->
<g id="edge23" class="edge"><title>deepCoadd_meas:0&#45;&gt;writeObjectTable:2</title>
<path fill="none" stroke="black" stroke-width="1.5" d="M942.25,-1247.3C942.25,-1074.74 942.25,-512 942.25,-512 942.25,-512 770.015,-512 770.015,-512"/>
<polygon fill="black" stroke="black" points="770.015,-506.75 755.015,-512 770.015,-517.25 770.015,-506.75"/>
</g>
<!-- deepCoadd_meas:0&#45;&gt;forcedPhotCoadd:2 -->
<g id="edge24" class="edge"><title>deepCoadd_meas:0&#45;&gt;forcedPhotCoadd:2</title>
<path fill="none" stroke="black" stroke-width="1.5" d="M886.25,-1247.3C886.25,-1125.13 886.25,-820 886.25,-820 886.25,-820 471.377,-820 471.377,-820"/>
<polygon fill="black" stroke="black" points="471.377,-814.75 456.377,-820 471.377,-825.25 471.377,-814.75"/>
</g>
<!-- deepCoadd_ref:0 -->
<g id="node16" class="node"><title>deepCoadd_ref:0</title>
<path fill="#f5f5f5" stroke="#00babc" stroke-width="3" d="M660.25,-1023.5C660.25,-1023.5 409.75,-1023.5 409.75,-1023.5 403.75,-1023.5 397.75,-1017.5 397.75,-1011.5 397.75,-1011.5 397.75,-936.5 397.75,-936.5 397.75,-930.5 403.75,-924.5 409.75,-924.5 409.75,-924.5 660.25,-924.5 660.25,-924.5 666.25,-924.5 672.25,-930.5 672.25,-936.5 672.25,-936.5 672.25,-1011.5 672.25,-1011.5 672.25,-1017.5 666.25,-1023.5 660.25,-1023.5"/>
<text text-anchor="start" x="419" y="-995.1" font-family="Monospace" font-weight="bold" font-size="18.00">deepCoadd_ref</text>
<text text-anchor="start" x="419" y="-967.8" font-family="Monospace" font-style="italic" font-size="14.00">dimensions:</text>
<text text-anchor="start" x="510" y="-967.8" font-family="Monospace" font-size="14.00"> {patch}</text>
<text text-anchor="start" x="419" y="-941.8" font-family="Monospace" font-style="italic" font-size="14.00">storage class:</text>
<text text-anchor="start" x="535" y="-941.8" font-family="Monospace" font-size="14.00"> SourceCatalog</text>
</g>
<!-- mergeMeasurements:2&#45;&gt;deepCoadd_ref:0 -->
<g id="edge25" class="edge"><title>mergeMeasurements:2&#45;&gt;deepCoadd_ref:0</title>
<path fill="none" stroke="black" stroke-width="1.5" d="M535,-1078.43C535,-1078.43 535,-1038.75 535,-1038.75"/>
<polygon fill="black" stroke="black" points="540.25,-1038.75 535,-1023.75 529.75,-1038.75 540.25,-1038.75"/>
</g>
<!-- deepCoadd_ref:0&#45;&gt;writeObjectTable:2 -->
<g id="edge26" class="edge"><title>deepCoadd_ref:0&#45;&gt;writeObjectTable:2</title>
<path fill="none" stroke="black" stroke-width="1.5" d="M564.125,-924.119C564.125,-924.119 564.125,-576.673 564.125,-576.673"/>
<polygon fill="black" stroke="black" points="569.375,-576.672 564.125,-561.673 558.875,-576.673 569.375,-576.672"/>
</g>
<!-- deepCoadd_ref:0&#45;&gt;forcedPhotCoadd:2 -->
<g id="edge27" class="edge"><title>deepCoadd_ref:0&#45;&gt;forcedPhotCoadd:2</title>
<path fill="none" stroke="black" stroke-width="1.5" d="M426.875,-924.426C426.875,-924.426 426.875,-884.745 426.875,-884.745"/>
<polygon fill="black" stroke="black" points="432.125,-884.745 426.875,-869.745 421.625,-884.745 432.125,-884.745"/>
</g>
<!-- deepCoadd_obj:0 -->
<g id="node19" class="node"><title>deepCoadd_obj:0</title>
<path fill="#f5f5f5" stroke="#00babc" stroke-width="3" d="M644,-407.5C644,-407.5 426,-407.5 426,-407.5 420,-407.5 414,-401.5 414,-395.5 414,-395.5 414,-320.5 414,-320.5 414,-314.5 420,-308.5 426,-308.5 426,-308.5 644,-308.5 644,-308.5 650,-308.5 656,-314.5 656,-320.5 656,-320.5 656,-395.5 656,-395.5 656,-401.5 650,-407.5 644,-407.5"/>
<text text-anchor="start" x="435" y="-379.1" font-family="Monospace" font-weight="bold" font-size="18.00">deepCoadd_obj</text>
<text text-anchor="start" x="435" y="-351.8" font-family="Monospace" font-style="italic" font-size="14.00">dimensions:</text>
<text text-anchor="start" x="526" y="-351.8" font-family="Monospace" font-size="14.00"> {patch}</text>
<text text-anchor="start" x="435" y="-325.8" font-family="Monospace" font-style="italic" font-size="14.00">storage class:</text>
<text text-anchor="start" x="551" y="-325.8" font-family="Monospace" font-size="14.00"> DataFrame</text>
</g>
<!-- writeObjectTable:2&#45;&gt;deepCoadd_obj:0 -->
<g id="edge28" class="edge"><title>writeObjectTable:2&#45;&gt;deepCoadd_obj:0</title>
<path fill="none" stroke="black" stroke-width="1.5" d="M535,-462.426C535,-462.426 535,-422.745 535,-422.745"/>
<polygon fill="black" stroke="black" points="540.25,-422.745 535,-407.745 529.75,-422.745 540.25,-422.745"/>
</g>
<!-- deepCoadd_forced_src:0 -->
<g id="node18" class="node"><title>deepCoadd_forced_src:0</title>
<path fill="#f5f5f5" stroke="#00babc" stroke-width="3" d="M398.25,-715.5C398.25,-715.5 147.75,-715.5 147.75,-715.5 141.75,-715.5 135.75,-709.5 135.75,-703.5 135.75,-703.5 135.75,-628.5 135.75,-628.5 135.75,-622.5 141.75,-616.5 147.75,-616.5 147.75,-616.5 398.25,-616.5 398.25,-616.5 404.25,-616.5 410.25,-622.5 410.25,-628.5 410.25,-628.5 410.25,-703.5 410.25,-703.5 410.25,-709.5 404.25,-715.5 398.25,-715.5"/>
<text text-anchor="start" x="157" y="-687.1" font-family="Monospace" font-weight="bold" font-size="18.00">deepCoadd_forced_src</text>
<text text-anchor="start" x="157" y="-659.8" font-family="Monospace" font-style="italic" font-size="14.00">dimensions:</text>
<text text-anchor="start" x="248" y="-659.8" font-family="Monospace" font-size="14.00"> {band, patch}</text>
<text text-anchor="start" x="157" y="-633.8" font-family="Monospace" font-style="italic" font-size="14.00">storage class:</text>
<text text-anchor="start" x="273" y="-633.8" font-family="Monospace" font-size="14.00"> SourceCatalog</text>
</g>
<!-- deepCoadd_forced_src:0&#45;&gt;writeObjectTable:2 -->
<g id="edge29" class="edge"><title>deepCoadd_forced_src:0&#45;&gt;writeObjectTable:2</title>
<path fill="none" stroke="black" stroke-width="1.5" d="M362.625,-616.426C362.625,-616.426 362.625,-576.745 362.625,-576.745"/>
<polygon fill="black" stroke="black" points="367.875,-576.745 362.625,-561.745 357.375,-576.745 367.875,-576.745"/>
</g>
<!-- transformObjectTable:2 -->
<g id="node20" class="node"><title>transformObjectTable:2</title>
<polygon fill="#b1f2ef" stroke="black" stroke-width="3" points="779.25,-253.5 290.75,-253.5 290.75,-154.5 779.25,-154.5 779.25,-253.5"/>
<text text-anchor="start" x="312" y="-225.1" font-family="Monospace" font-weight="bold" font-size="18.00">transformObjectTable</text>
<text text-anchor="start" x="312" y="-197.8" font-family="Monospace" font-size="14.00">lsst.pipe.tasks.postprocess.TransformObjectCatalogTask</text>
<text text-anchor="start" x="312" y="-171.8" font-family="Monospace" font-style="italic" font-size="14.00">dimensions:</text>
<text text-anchor="start" x="403" y="-171.8" font-family="Monospace" font-size="14.00"> {patch}</text>
</g>
<!-- deepCoadd_obj:0&#45;&gt;transformObjectTable:2 -->
<g id="edge30" class="edge"><title>deepCoadd_obj:0&#45;&gt;transformObjectTable:2</title>
<path fill="none" stroke="black" stroke-width="1.5" d="M535,-308.426C535,-308.426 535,-268.745 535,-268.745"/>
<polygon fill="black" stroke="black" points="540.25,-268.745 535,-253.745 529.75,-268.745 540.25,-268.745"/>
</g>
<!-- objectTable:0 -->
<g id="node21" class="node"><title>objectTable:0</title>
<path fill="#f5f5f5" stroke="#00babc" stroke-width="3" d="M644,-99.5C644,-99.5 426,-99.5 426,-99.5 420,-99.5 414,-93.5 414,-87.5 414,-87.5 414,-12.5 414,-12.5 414,-6.5 420,-0.5 426,-0.5 426,-0.5 644,-0.5 644,-0.5 650,-0.5 656,-6.5 656,-12.5 656,-12.5 656,-87.5 656,-87.5 656,-93.5 650,-99.5 644,-99.5"/>
<text text-anchor="start" x="435" y="-71.1" font-family="Monospace" font-weight="bold" font-size="18.00">objectTable</text>
<text text-anchor="start" x="435" y="-43.8" font-family="Monospace" font-style="italic" font-size="14.00">dimensions:</text>
<text text-anchor="start" x="526" y="-43.8" font-family="Monospace" font-size="14.00"> {patch}</text>
<text text-anchor="start" x="435" y="-17.8" font-family="Monospace" font-style="italic" font-size="14.00">storage class:</text>
<text text-anchor="start" x="551" y="-17.8" font-family="Monospace" font-size="14.00"> DataFrame</text>
</g>
<!-- transformObjectTable:2&#45;&gt;objectTable:0 -->
<g id="edge31" class="edge"><title>transformObjectTable:2&#45;&gt;objectTable:0</title>
<path fill="none" stroke="black" stroke-width="1.5" d="M535,-154.426C535,-154.426 535,-114.745 535,-114.745"/>
<polygon fill="black" stroke="black" points="540.25,-114.745 535,-99.7452 529.75,-114.745 540.25,-114.745"/>
</g>
<!-- forcedPhotCoadd:2&#45;&gt;deepCoadd_forced_src:0 -->
<g id="edge32" class="edge"><title>forcedPhotCoadd:2&#45;&gt;deepCoadd_forced_src:0</title>
<path fill="none" stroke="black" stroke-width="1.5" d="M273,-770.426C273,-770.426 273,-730.745 273,-730.745"/>
<polygon fill="black" stroke="black" points="278.25,-730.745 273,-715.745 267.75,-730.745 278.25,-730.745"/>
</g>
<!-- ef90ed9f:0 -->
<g id="node23" class="node"><title>ef90ed9f:0</title>
<path fill="#f5f5f5" stroke="#00babc" stroke-width="3" d="M976,-1699.5C976,-1699.5 746,-1699.5 746,-1699.5 740,-1699.5 734,-1693.5 734,-1687.5 734,-1687.5 734,-1582.5 734,-1582.5 734,-1576.5 740,-1570.5 746,-1570.5 746,-1570.5 976,-1570.5 976,-1570.5 982,-1570.5 988,-1576.5 988,-1582.5 988,-1582.5 988,-1687.5 988,-1687.5 988,-1693.5 982,-1699.5 976,-1699.5"/>
<text text-anchor="start" x="755" y="-1671.1" font-family="Monospace" font-weight="bold" font-size="18.00">preSourceTable_visit</text>
<text text-anchor="start" x="755" y="-1640.6" font-family="Monospace" font-weight="bold" font-size="18.00">finalized_src_table</text>
<text text-anchor="start" x="755" y="-1613.8" font-family="Monospace" font-style="italic" font-size="14.00">dimensions:</text>
<text text-anchor="start" x="846" y="-1613.8" font-family="Monospace" font-size="14.00"> {visit}</text>
<text text-anchor="start" x="755" y="-1587.8" font-family="Monospace" font-style="italic" font-size="14.00">storage class:</text>
<text text-anchor="start" x="871" y="-1587.8" font-family="Monospace" font-size="14.00"> DataFrame</text>
</g>
<!-- ef90ed9f:0&#45;&gt;measure:2 -->
<g id="edge33" class="edge"><title>ef90ed9f:0&#45;&gt;measure:2</title>
<path fill="none" stroke="black" stroke-width="1.5" d="M861,-1570.14C861,-1570.14 861,-1530.72 861,-1530.72"/>
<polygon fill="black" stroke="black" points="866.25,-1530.72 861,-1515.72 855.75,-1530.72 866.25,-1530.72"/>
</g>
</g>
</svg>
