<?xml version="1.0" encoding="UTF-8" standalone="no"?>
<!DOCTYPE svg PUBLIC "-//W3C//DTD SVG 1.1//EN"
 "http://www.w3.org/Graphics/SVG/1.1/DTD/svg11.dtd">
<!-- Generated by graphviz version 2.30.1 (20201013.1554)
 -->
<!-- Title: Pipeline Pages: 1 -->
<svg width="573pt" height="754pt"
 viewBox="0.00 0.00 573.00 754.00" xmlns="http://www.w3.org/2000/svg" xmlns:xlink="http://www.w3.org/1999/xlink">
<g id="graph0" class="graph" transform="scale(1 1) rotate(0) translate(4 750)">
<title>Pipeline</title>
<polygon fill="white" stroke="white" points="-4,5 -4,-750 570,-750 570,5 -4,5"/>
<!-- drpAssociation:2 -->
<g id="node1" class="node"><title>drpAssociation:2</title>
<polygon fill="#b1f2ef" stroke="black" stroke-width="3" points="538,-591.5 24,-591.5 24,-492.5 538,-492.5 538,-591.5"/>
<text text-anchor="start" x="45" y="-563.1" font-family="Monospace" font-weight="bold" font-size="18.00">drpAssociation</text>
<text text-anchor="start" x="45" y="-535.8" font-family="Monospace" font-size="14.00">lsst.pipe.tasks.drpAssociationPipe.DrpAssociationPipeTask</text>
<text text-anchor="start" x="45" y="-509.8" font-family="Monospace" font-style="italic" font-size="14.00">dimensions:</text>
<text text-anchor="start" x="136" y="-509.8" font-family="Monospace" font-size="14.00"> {patch}</text>
</g>
<!-- aa54c164:0 -->
<g id="node6" class="node"><title>aa54c164:0</title>
<path fill="#f5f5f5" stroke="#00babc" stroke-width="3" d="M422,-437.5C422,-437.5 140,-437.5 140,-437.5 134,-437.5 128,-431.5 128,-425.5 128,-425.5 128,-320.5 128,-320.5 128,-314.5 134,-308.5 140,-308.5 140,-308.5 422,-308.5 422,-308.5 428,-308.5 434,-314.5 434,-320.5 434,-320.5 434,-425.5 434,-425.5 434,-431.5 428,-437.5 422,-437.5"/>
<text text-anchor="start" x="149" y="-409.1" font-family="Monospace" font-weight="bold" font-size="18.00">deepDiff_diaObjTable</text>
<text text-anchor="start" x="149" y="-378.6" font-family="Monospace" font-weight="bold" font-size="18.00">deepDiff_assocDiaSrcTable</text>
<text text-anchor="start" x="149" y="-351.8" font-family="Monospace" font-style="italic" font-size="14.00">dimensions:</text>
<text text-anchor="start" x="240" y="-351.8" font-family="Monospace" font-size="14.00"> {patch}</text>
<text text-anchor="start" x="149" y="-325.8" font-family="Monospace" font-style="italic" font-size="14.00">storage class:</text>
<text text-anchor="start" x="265" y="-325.8" font-family="Monospace" font-size="14.00"> DataFrame</text>
</g>
<!-- drpAssociation:2&#45;&gt;aa54c164:0 -->
<g id="edge1" class="edge"><title>drpAssociation:2&#45;&gt;aa54c164:0</title>
<path fill="none" stroke="black" stroke-width="1.5" d="M281,-492.208C281,-492.208 281,-452.804 281,-452.804"/>
<polygon fill="black" stroke="black" points="286.25,-452.804 281,-437.804 275.75,-452.804 286.25,-452.804"/>
</g>
<!-- skyMap:0 -->
<g id="node2" class="node"><title>skyMap:0</title>
<path fill="#f5f5f5" stroke="#00babc" stroke-width="3" d="M234.25,-745.5C234.25,-745.5 41.75,-745.5 41.75,-745.5 35.75,-745.5 29.75,-739.5 29.75,-733.5 29.75,-733.5 29.75,-658.5 29.75,-658.5 29.75,-652.5 35.75,-646.5 41.75,-646.5 41.75,-646.5 234.25,-646.5 234.25,-646.5 240.25,-646.5 246.25,-652.5 246.25,-658.5 246.25,-658.5 246.25,-733.5 246.25,-733.5 246.25,-739.5 240.25,-745.5 234.25,-745.5"/>
<text text-anchor="start" x="51" y="-717.1" font-family="Monospace" font-weight="bold" font-size="18.00">skyMap</text>
<text text-anchor="start" x="51" y="-689.8" font-family="Monospace" font-style="italic" font-size="14.00">dimensions:</text>
<text text-anchor="start" x="142" y="-689.8" font-family="Monospace" font-size="14.00"> {skymap}</text>
<text text-anchor="start" x="51" y="-663.8" font-family="Monospace" font-style="italic" font-size="14.00">storage class:</text>
<text text-anchor="start" x="167" y="-663.8" font-family="Monospace" font-size="14.00"> SkyMap</text>
</g>
<!-- skyMap:0&#45;&gt;drpAssociation:2 -->
<g id="edge2" class="edge"><title>skyMap:0&#45;&gt;drpAssociation:2</title>
<path fill="none" stroke="black" stroke-width="1.5" d="M138,-646.426C138,-646.426 138,-606.745 138,-606.745"/>
<polygon fill="black" stroke="black" points="143.25,-606.745 138,-591.745 132.75,-606.745 143.25,-606.745"/>
</g>
<!-- deepDiff_diaSrcTable:0 -->
<g id="node3" class="node"><title>deepDiff_diaSrcTable:0</title>
<path fill="#f5f5f5" stroke="#00babc" stroke-width="3" d="M553.25,-745.5C553.25,-745.5 294.75,-745.5 294.75,-745.5 288.75,-745.5 282.75,-739.5 282.75,-733.5 282.75,-733.5 282.75,-658.5 282.75,-658.5 282.75,-652.5 288.75,-646.5 294.75,-646.5 294.75,-646.5 553.25,-646.5 553.25,-646.5 559.25,-646.5 565.25,-652.5 565.25,-658.5 565.25,-658.5 565.25,-733.5 565.25,-733.5 565.25,-739.5 559.25,-745.5 553.25,-745.5"/>
<text text-anchor="start" x="304" y="-717.1" font-family="Monospace" font-weight="bold" font-size="18.00">deepDiff_diaSrcTable</text>
<text text-anchor="start" x="304" y="-689.8" font-family="Monospace" font-style="italic" font-size="14.00">dimensions:</text>
<text text-anchor="start" x="395" y="-689.8" font-family="Monospace" font-size="14.00"> {detector, visit}</text>
<text text-anchor="start" x="304" y="-663.8" font-family="Monospace" font-style="italic" font-size="14.00">storage class:</text>
<text text-anchor="start" x="420" y="-663.8" font-family="Monospace" font-size="14.00"> DataFrame</text>
</g>
<!-- deepDiff_diaSrcTable:0&#45;&gt;drpAssociation:2 -->
<g id="edge3" class="edge"><title>deepDiff_diaSrcTable:0&#45;&gt;drpAssociation:2</title>
<path fill="none" stroke="black" stroke-width="1.5" d="M410.375,-646.426C410.375,-646.426 410.375,-606.745 410.375,-606.745"/>
<polygon fill="black" stroke="black" points="415.625,-606.745 410.375,-591.745 405.125,-606.745 415.625,-606.745"/>
</g>
<!-- drpDiaCalculation:2 -->
<g id="node4" class="node"><title>drpDiaCalculation:2</title>
<polygon fill="#b1f2ef" stroke="black" stroke-width="3" points="562.25,-253.5 -0.25,-253.5 -0.25,-154.5 562.25,-154.5 562.25,-253.5"/>
<text text-anchor="start" x="21" y="-225.1" font-family="Monospace" font-weight="bold" font-size="18.00">drpDiaCalculation</text>
<text text-anchor="start" x="21" y="-197.8" font-family="Monospace" font-size="14.00">lsst.pipe.tasks.drpDiaCalculationPipe.DrpDiaCalculationPipeTask</text>
<text text-anchor="start" x="21" y="-171.8" font-family="Monospace" font-style="italic" font-size="14.00">dimensions:</text>
<text text-anchor="start" x="112" y="-171.8" font-family="Monospace" font-size="14.00"> {patch}</text>
</g>
<!-- deepDiff_fullDiaObjTable:0 -->
<g id="node5" class="node"><title>deepDiff_fullDiaObjTable:0</title>
<path fill="#f5f5f5" stroke="#00babc" stroke-width="3" d="M417,-99.5C417,-99.5 145,-99.5 145,-99.5 139,-99.5 133,-93.5 133,-87.5 133,-87.5 133,-12.5 133,-12.5 133,-6.5 139,-0.5 145,-0.5 145,-0.5 417,-0.5 417,-0.5 423,-0.5 429,-6.5 429,-12.5 429,-12.5 429,-87.5 429,-87.5 429,-93.5 423,-99.5 417,-99.5"/>
<text text-anchor="start" x="154" y="-71.1" font-family="Monospace" font-weight="bold" font-size="18.00">deepDiff_fullDiaObjTable</text>
<text text-anchor="start" x="154" y="-43.8" font-family="Monospace" font-style="italic" font-size="14.00">dimensions:</text>
<text text-anchor="start" x="245" y="-43.8" font-family="Monospace" font-size="14.00"> {patch}</text>
<text text-anchor="start" x="154" y="-17.8" font-family="Monospace" font-style="italic" font-size="14.00">storage class:</text>
<text text-anchor="start" x="270" y="-17.8" font-family="Monospace" font-size="14.00"> DataFrame</text>
</g>
<!-- drpDiaCalculation:2&#45;&gt;deepDiff_fullDiaObjTable:0 -->
<g id="edge4" class="edge"><title>drpDiaCalculation:2&#45;&gt;deepDiff_fullDiaObjTable:0</title>
<path fill="none" stroke="black" stroke-width="1.5" d="M281,-154.426C281,-154.426 281,-114.745 281,-114.745"/>
<polygon fill="black" stroke="black" points="286.25,-114.745 281,-99.7452 275.75,-114.745 286.25,-114.745"/>
</g>
<!-- aa54c164:0&#45;&gt;drpDiaCalculation:2 -->
<g id="edge5" class="edge"><title>aa54c164:0&#45;&gt;drpDiaCalculation:2</title>
<path fill="none" stroke="black" stroke-width="1.5" d="M281,-308.144C281,-308.144 281,-268.72 281,-268.72"/>
<polygon fill="black" stroke="black" points="286.25,-268.72 281,-253.72 275.75,-268.72 286.25,-268.72"/>
</g>
</g>
</svg>
