<?xml version="1.0" encoding="UTF-8" standalone="no"?>
<!DOCTYPE svg PUBLIC "-//W3C//DTD SVG 1.1//EN"
 "http://www.w3.org/Graphics/SVG/1.1/DTD/svg11.dtd">
<!-- Generated by graphviz version 2.30.1 (20201013.1554)
 -->
<!-- Title: Pipeline Pages: 1 -->
<svg width="915pt" height="416pt"
 viewBox="0.00 0.00 915.00 416.00" xmlns="http://www.w3.org/2000/svg" xmlns:xlink="http://www.w3.org/1999/xlink">
<g id="graph0" class="graph" transform="scale(1 1) rotate(0) translate(4 412)">
<title>Pipeline</title>
<polygon fill="white" stroke="white" points="-4,5 -4,-412 912,-412 912,5 -4,5"/>
<!-- makeCcdVisitTable:2 -->
<g id="node1" class="node"><title>makeCcdVisitTable:2</title>
<polygon fill="#b1f2ef" stroke="black" stroke-width="3" points="448,-253.5 -2.84217e-14,-253.5 -2.84217e-14,-154.5 448,-154.5 448,-253.5"/>
<text text-anchor="start" x="21" y="-225.1" font-family="Monospace" font-weight="bold" font-size="18.00">makeCcdVisitTable</text>
<text text-anchor="start" x="21" y="-197.8" font-family="Monospace" font-size="14.00">lsst.pipe.tasks.postprocess.MakeCcdVisitTableTask</text>
<text text-anchor="start" x="21" y="-171.8" font-family="Monospace" font-style="italic" font-size="14.00">dimensions:</text>
<text text-anchor="start" x="112" y="-171.8" font-family="Monospace" font-size="14.00"> {instrument}</text>
</g>
<!-- ccdVisitTable:0 -->
<g id="node3" class="node"><title>ccdVisitTable:0</title>
<path fill="#f5f5f5" stroke="#00babc" stroke-width="3" d="M333,-99.5C333,-99.5 115,-99.5 115,-99.5 109,-99.5 103,-93.5 103,-87.5 103,-87.5 103,-12.5 103,-12.5 103,-6.5 109,-0.5 115,-0.5 115,-0.5 333,-0.5 333,-0.5 339,-0.5 345,-6.5 345,-12.5 345,-12.5 345,-87.5 345,-87.5 345,-93.5 339,-99.5 333,-99.5"/>
<text text-anchor="start" x="124" y="-71.1" font-family="Monospace" font-weight="bold" font-size="18.00">ccdVisitTable</text>
<text text-anchor="start" x="124" y="-43.8" font-family="Monospace" font-style="italic" font-size="14.00">dimensions:</text>
<text text-anchor="start" x="215" y="-43.8" font-family="Monospace" font-size="14.00"> {instrument}</text>
<text text-anchor="start" x="124" y="-17.8" font-family="Monospace" font-style="italic" font-size="14.00">storage class:</text>
<text text-anchor="start" x="240" y="-17.8" font-family="Monospace" font-size="14.00"> DataFrame</text>
</g>
<!-- makeCcdVisitTable:2&#45;&gt;ccdVisitTable:0 -->
<g id="edge1" class="edge"><title>makeCcdVisitTable:2&#45;&gt;ccdVisitTable:0</title>
<path fill="none" stroke="black" stroke-width="1.5" d="M224,-154.426C224,-154.426 224,-114.745 224,-114.745"/>
<polygon fill="black" stroke="black" points="229.25,-114.745 224,-99.7452 218.75,-114.745 229.25,-114.745"/>
</g>
<!-- finalVisitSummary:0 -->
<g id="node2" class="node"><title>finalVisitSummary:0</title>
<path fill="#f5f5f5" stroke="#00babc" stroke-width="3" d="M594,-407.5C594,-407.5 326,-407.5 326,-407.5 320,-407.5 314,-401.5 314,-395.5 314,-395.5 314,-320.5 314,-320.5 314,-314.5 320,-308.5 326,-308.5 326,-308.5 594,-308.5 594,-308.5 600,-308.5 606,-314.5 606,-320.5 606,-320.5 606,-395.5 606,-395.5 606,-401.5 600,-407.5 594,-407.5"/>
<text text-anchor="start" x="335" y="-379.1" font-family="Monospace" font-weight="bold" font-size="18.00">finalVisitSummary</text>
<text text-anchor="start" x="335" y="-351.8" font-family="Monospace" font-style="italic" font-size="14.00">dimensions:</text>
<text text-anchor="start" x="426" y="-351.8" font-family="Monospace" font-size="14.00"> {visit}</text>
<text text-anchor="start" x="335" y="-325.8" font-family="Monospace" font-style="italic" font-size="14.00">storage class:</text>
<text text-anchor="start" x="451" y="-325.8" font-family="Monospace" font-size="14.00"> ExposureCatalog</text>
</g>
<!-- finalVisitSummary:0&#45;&gt;makeCcdVisitTable:2 -->
<g id="edge2" class="edge"><title>finalVisitSummary:0&#45;&gt;makeCcdVisitTable:2</title>
<path fill="none" stroke="black" stroke-width="1.5" d="M381,-308.426C381,-308.426 381,-268.745 381,-268.745"/>
<polygon fill="black" stroke="black" points="386.25,-268.745 381,-253.745 375.75,-268.745 386.25,-268.745"/>
</g>
<!-- makeVisitTable:2 -->
<g id="node4" class="node"><title>makeVisitTable:2</title>
<polygon fill="#b1f2ef" stroke="black" stroke-width="3" points="907.25,-253.5 484.75,-253.5 484.75,-154.5 907.25,-154.5 907.25,-253.5"/>
<text text-anchor="start" x="506" y="-225.1" font-family="Monospace" font-weight="bold" font-size="18.00">makeVisitTable</text>
<text text-anchor="start" x="506" y="-197.8" font-family="Monospace" font-size="14.00">lsst.pipe.tasks.postprocess.MakeVisitTableTask</text>
<text text-anchor="start" x="506" y="-171.8" font-family="Monospace" font-style="italic" font-size="14.00">dimensions:</text>
<text text-anchor="start" x="597" y="-171.8" font-family="Monospace" font-size="14.00"> {instrument}</text>
</g>
<!-- finalVisitSummary:0&#45;&gt;makeVisitTable:2 -->
<g id="edge3" class="edge"><title>finalVisitSummary:0&#45;&gt;makeVisitTable:2</title>
<path fill="none" stroke="black" stroke-width="1.5" d="M545.375,-308.426C545.375,-308.426 545.375,-268.745 545.375,-268.745"/>
<polygon fill="black" stroke="black" points="550.625,-268.745 545.375,-253.745 540.125,-268.745 550.625,-268.745"/>
</g>
<!-- visitTable:0 -->
<g id="node5" class="node"><title>visitTable:0</title>
<path fill="#f5f5f5" stroke="#00babc" stroke-width="3" d="M805,-99.5C805,-99.5 587,-99.5 587,-99.5 581,-99.5 575,-93.5 575,-87.5 575,-87.5 575,-12.5 575,-12.5 575,-6.5 581,-0.5 587,-0.5 587,-0.5 805,-0.5 805,-0.5 811,-0.5 817,-6.5 817,-12.5 817,-12.5 817,-87.5 817,-87.5 817,-93.5 811,-99.5 805,-99.5"/>
<text text-anchor="start" x="596" y="-71.1" font-family="Monospace" font-weight="bold" font-size="18.00">visitTable</text>
<text text-anchor="start" x="596" y="-43.8" font-family="Monospace" font-style="italic" font-size="14.00">dimensions:</text>
<text text-anchor="start" x="687" y="-43.8" font-family="Monospace" font-size="14.00"> {instrument}</text>
<text text-anchor="start" x="596" y="-17.8" font-family="Monospace" font-style="italic" font-size="14.00">storage class:</text>
<text text-anchor="start" x="712" y="-17.8" font-family="Monospace" font-size="14.00"> DataFrame</text>
</g>
<!-- makeVisitTable:2&#45;&gt;visitTable:0 -->
<g id="edge4" class="edge"><title>makeVisitTable:2&#45;&gt;visitTable:0</title>
<path fill="none" stroke="black" stroke-width="1.5" d="M696,-154.426C696,-154.426 696,-114.745 696,-114.745"/>
<polygon fill="black" stroke="black" points="701.25,-114.745 696,-99.7452 690.75,-114.745 701.25,-114.745"/>
</g>
</g>
</svg>
