<?xml version="1.0" encoding="UTF-8" standalone="no"?>
<!DOCTYPE svg PUBLIC "-//W3C//DTD SVG 1.1//EN"
 "http://www.w3.org/Graphics/SVG/1.1/DTD/svg11.dtd">
<!-- Generated by graphviz version 2.30.1 (20201013.1554)
 -->
<!-- Title: Pipeline Pages: 1 -->
<svg width="1430pt" height="754pt"
 viewBox="0.00 0.00 1430.00 754.00" xmlns="http://www.w3.org/2000/svg" xmlns:xlink="http://www.w3.org/1999/xlink">
<g id="graph0" class="graph" transform="scale(1 1) rotate(0) translate(4 750)">
<title>Pipeline</title>
<polygon fill="white" stroke="white" points="-4,5 -4,-750 1427,-750 1427,5 -4,5"/>
<!-- finalizeCharacterization:2 -->
<g id="node1" class="node"><title>finalizeCharacterization:2</title>
<polygon fill="#b1f2ef" stroke="black" stroke-width="3" points="766.25,-561.5 153.75,-561.5 153.75,-462.5 766.25,-462.5 766.25,-561.5"/>
<text text-anchor="start" x="175" y="-533.1" font-family="Monospace" font-weight="bold" font-size="18.00">finalizeCharacterization</text>
<text text-anchor="start" x="175" y="-505.8" font-family="Monospace" font-size="14.00">lsst.pipe.tasks.finalizeCharacterization.FinalizeCharacterizationTask</text>
<text text-anchor="start" x="175" y="-479.8" font-family="Monospace" font-style="italic" font-size="14.00">dimensions:</text>
<text text-anchor="start" x="266" y="-479.8" font-family="Monospace" font-size="14.00"> {visit}</text>
</g>
<!-- finalized_psf_ap_corr_catalog:0 -->
<g id="node4" class="node"><title>finalized_psf_ap_corr_catalog:0</title>
<path fill="#f5f5f5" stroke="#00babc" stroke-width="3" d="M475,-407.5C475,-407.5 151,-407.5 151,-407.5 145,-407.5 139,-401.5 139,-395.5 139,-395.5 139,-320.5 139,-320.5 139,-314.5 145,-308.5 151,-308.5 151,-308.5 475,-308.5 475,-308.5 481,-308.5 487,-314.5 487,-320.5 487,-320.5 487,-395.5 487,-395.5 487,-401.5 481,-407.5 475,-407.5"/>
<text text-anchor="start" x="160" y="-379.1" font-family="Monospace" font-weight="bold" font-size="18.00">finalized_psf_ap_corr_catalog</text>
<text text-anchor="start" x="160" y="-351.8" font-family="Monospace" font-style="italic" font-size="14.00">dimensions:</text>
<text text-anchor="start" x="251" y="-351.8" font-family="Monospace" font-size="14.00"> {visit}</text>
<text text-anchor="start" x="160" y="-325.8" font-family="Monospace" font-style="italic" font-size="14.00">storage class:</text>
<text text-anchor="start" x="276" y="-325.8" font-family="Monospace" font-size="14.00"> ExposureCatalog</text>
</g>
<!-- finalizeCharacterization:2&#45;&gt;finalized_psf_ap_corr_catalog:0 -->
<g id="edge1" class="edge"><title>finalizeCharacterization:2&#45;&gt;finalized_psf_ap_corr_catalog:0</title>
<path fill="none" stroke="black" stroke-width="1.5" d="M320.375,-462.426C320.375,-462.426 320.375,-422.745 320.375,-422.745"/>
<polygon fill="black" stroke="black" points="325.625,-422.745 320.375,-407.745 315.125,-422.745 325.625,-422.745"/>
</g>
<!-- finalized_src_table:0 -->
<g id="node5" class="node"><title>finalized_src_table:0</title>
<path fill="#f5f5f5" stroke="#00babc" stroke-width="3" d="M754.25,-407.5C754.25,-407.5 535.75,-407.5 535.75,-407.5 529.75,-407.5 523.75,-401.5 523.75,-395.5 523.75,-395.5 523.75,-320.5 523.75,-320.5 523.75,-314.5 529.75,-308.5 535.75,-308.5 535.75,-308.5 754.25,-308.5 754.25,-308.5 760.25,-308.5 766.25,-314.5 766.25,-320.5 766.25,-320.5 766.25,-395.5 766.25,-395.5 766.25,-401.5 760.25,-407.5 754.25,-407.5"/>
<text text-anchor="start" x="545" y="-379.1" font-family="Monospace" font-weight="bold" font-size="18.00">finalized_src_table</text>
<text text-anchor="start" x="545" y="-351.8" font-family="Monospace" font-style="italic" font-size="14.00">dimensions:</text>
<text text-anchor="start" x="636" y="-351.8" font-family="Monospace" font-size="14.00"> {visit}</text>
<text text-anchor="start" x="545" y="-325.8" font-family="Monospace" font-style="italic" font-size="14.00">storage class:</text>
<text text-anchor="start" x="661" y="-325.8" font-family="Monospace" font-size="14.00"> DataFrame</text>
</g>
<!-- finalizeCharacterization:2&#45;&gt;finalized_src_table:0 -->
<g id="edge2" class="edge"><title>finalizeCharacterization:2&#45;&gt;finalized_src_table:0</title>
<path fill="none" stroke="black" stroke-width="1.5" d="M645,-462.426C645,-462.426 645,-422.745 645,-422.745"/>
<polygon fill="black" stroke="black" points="650.25,-422.745 645,-407.745 639.75,-422.745 650.25,-422.745"/>
</g>
<!-- src:0 -->
<g id="node2" class="node"><title>src:0</title>
<path fill="#f5f5f5" stroke="#00babc" stroke-width="3" d="M270.25,-730.5C270.25,-730.5 11.75,-730.5 11.75,-730.5 5.75,-730.5 -0.25,-724.5 -0.25,-718.5 -0.25,-718.5 -0.25,-643.5 -0.25,-643.5 -0.25,-637.5 5.75,-631.5 11.75,-631.5 11.75,-631.5 270.25,-631.5 270.25,-631.5 276.25,-631.5 282.25,-637.5 282.25,-643.5 282.25,-643.5 282.25,-718.5 282.25,-718.5 282.25,-724.5 276.25,-730.5 270.25,-730.5"/>
<text text-anchor="start" x="21" y="-702.1" font-family="Monospace" font-weight="bold" font-size="18.00">src</text>
<text text-anchor="start" x="21" y="-674.8" font-family="Monospace" font-style="italic" font-size="14.00">dimensions:</text>
<text text-anchor="start" x="112" y="-674.8" font-family="Monospace" font-size="14.00"> {detector, visit}</text>
<text text-anchor="start" x="21" y="-648.8" font-family="Monospace" font-style="italic" font-size="14.00">storage class:</text>
<text text-anchor="start" x="137" y="-648.8" font-family="Monospace" font-size="14.00"> SourceCatalog</text>
</g>
<!-- src:0&#45;&gt;finalizeCharacterization:2 -->
<g id="edge3" class="edge"><title>src:0&#45;&gt;finalizeCharacterization:2</title>
<path fill="none" stroke="black" stroke-width="1.5" d="M218,-631.208C218,-631.208 218,-576.727 218,-576.727"/>
<polygon fill="black" stroke="black" points="223.25,-576.727 218,-561.727 212.75,-576.727 223.25,-576.727"/>
</g>
<!-- calexp:0 -->
<g id="node3" class="node"><title>calexp:0</title>
<path fill="#f5f5f5" stroke="#00babc" stroke-width="3" d="M934.25,-730.5C934.25,-730.5 675.75,-730.5 675.75,-730.5 669.75,-730.5 663.75,-724.5 663.75,-718.5 663.75,-718.5 663.75,-643.5 663.75,-643.5 663.75,-637.5 669.75,-631.5 675.75,-631.5 675.75,-631.5 934.25,-631.5 934.25,-631.5 940.25,-631.5 946.25,-637.5 946.25,-643.5 946.25,-643.5 946.25,-718.5 946.25,-718.5 946.25,-724.5 940.25,-730.5 934.25,-730.5"/>
<text text-anchor="start" x="685" y="-702.1" font-family="Monospace" font-weight="bold" font-size="18.00">calexp</text>
<text text-anchor="start" x="685" y="-674.8" font-family="Monospace" font-style="italic" font-size="14.00">dimensions:</text>
<text text-anchor="start" x="776" y="-674.8" font-family="Monospace" font-size="14.00"> {detector, visit}</text>
<text text-anchor="start" x="685" y="-648.8" font-family="Monospace" font-style="italic" font-size="14.00">storage class:</text>
<text text-anchor="start" x="801" y="-648.8" font-family="Monospace" font-size="14.00"> ExposureF</text>
</g>
<!-- calexp:0&#45;&gt;finalizeCharacterization:2 -->
<g id="edge4" class="edge"><title>calexp:0&#45;&gt;finalizeCharacterization:2</title>
<path fill="none" stroke="black" stroke-width="1.5" d="M715,-631.208C715,-631.208 715,-576.727 715,-576.727"/>
<polygon fill="black" stroke="black" points="720.25,-576.727 715,-561.727 709.75,-576.727 720.25,-576.727"/>
</g>
<!-- updateVisitSummary:2 -->
<g id="node6" class="node"><title>updateVisitSummary:2</title>
<polygon fill="#b1f2ef" stroke="black" stroke-width="3" points="994,-253.5 472,-253.5 472,-154.5 994,-154.5 994,-253.5"/>
<text text-anchor="start" x="493" y="-225.1" font-family="Monospace" font-weight="bold" font-size="18.00">updateVisitSummary</text>
<text text-anchor="start" x="493" y="-197.8" font-family="Monospace" font-size="14.00">lsst.drp.tasks.update_visit_summary.UpdateVisitSummaryTask</text>
<text text-anchor="start" x="493" y="-171.8" font-family="Monospace" font-style="italic" font-size="14.00">dimensions:</text>
<text text-anchor="start" x="584" y="-171.8" font-family="Monospace" font-size="14.00"> {visit}</text>
</g>
<!-- calexp:0&#45;&gt;updateVisitSummary:2 -->
<g id="edge5" class="edge"><title>calexp:0&#45;&gt;updateVisitSummary:2</title>
<path fill="none" stroke="black" stroke-width="1.5" d="M821.625,-631.303C821.625,-631.303 821.625,-268.586 821.625,-268.586"/>
<polygon fill="black" stroke="black" points="826.875,-268.586 821.625,-253.586 816.375,-268.586 826.875,-268.586"/>
</g>
<!-- finalized_psf_ap_corr_catalog:0&#45;&gt;updateVisitSummary:2 -->
<g id="edge6" class="edge"><title>finalized_psf_ap_corr_catalog:0&#45;&gt;updateVisitSummary:2</title>
<path fill="none" stroke="black" stroke-width="1.5" d="M477,-308.426C477,-308.426 477,-268.745 477,-268.745"/>
<polygon fill="black" stroke="black" points="482.25,-268.745 477,-253.745 471.75,-268.745 482.25,-268.745"/>
</g>
<!-- finalized_psf_ap_corr_catalog:0&#45;&gt;updateVisitSummary:2 -->
<g id="edge7" class="edge"><title>finalized_psf_ap_corr_catalog:0&#45;&gt;updateVisitSummary:2</title>
<path fill="none" stroke="black" stroke-width="1.5" d="M482,-308.426C482,-308.426 482,-268.745 482,-268.745"/>
<polygon fill="black" stroke="black" points="487.25,-268.745 482,-253.745 476.75,-268.745 487.25,-268.745"/>
</g>
<!-- finalized_src_table:0&#45;&gt;updateVisitSummary:2 -->
<g id="edge8" class="edge"><title>finalized_src_table:0&#45;&gt;updateVisitSummary:2</title>
<path fill="none" stroke="black" stroke-width="1.5" d="M645,-308.426C645,-308.426 645,-268.745 645,-268.745"/>
<polygon fill="black" stroke="black" points="650.25,-268.745 645,-253.745 639.75,-268.745 650.25,-268.745"/>
</g>
<!-- finalVisitSummary:0 -->
<g id="node9" class="node"><title>finalVisitSummary:0</title>
<path fill="#f5f5f5" stroke="#00babc" stroke-width="3" d="M867,-99.5C867,-99.5 599,-99.5 599,-99.5 593,-99.5 587,-93.5 587,-87.5 587,-87.5 587,-12.5 587,-12.5 587,-6.5 593,-0.5 599,-0.5 599,-0.5 867,-0.5 867,-0.5 873,-0.5 879,-6.5 879,-12.5 879,-12.5 879,-87.5 879,-87.5 879,-93.5 873,-99.5 867,-99.5"/>
<text text-anchor="start" x="608" y="-71.1" font-family="Monospace" font-weight="bold" font-size="18.00">finalVisitSummary</text>
<text text-anchor="start" x="608" y="-43.8" font-family="Monospace" font-style="italic" font-size="14.00">dimensions:</text>
<text text-anchor="start" x="699" y="-43.8" font-family="Monospace" font-size="14.00"> {visit}</text>
<text text-anchor="start" x="608" y="-17.8" font-family="Monospace" font-style="italic" font-size="14.00">storage class:</text>
<text text-anchor="start" x="724" y="-17.8" font-family="Monospace" font-size="14.00"> ExposureCatalog</text>
</g>
<!-- updateVisitSummary:2&#45;&gt;finalVisitSummary:0 -->
<g id="edge9" class="edge"><title>updateVisitSummary:2&#45;&gt;finalVisitSummary:0</title>
<path fill="none" stroke="black" stroke-width="1.5" d="M733,-154.426C733,-154.426 733,-114.745 733,-114.745"/>
<polygon fill="black" stroke="black" points="738.25,-114.745 733,-99.7452 727.75,-114.745 738.25,-114.745"/>
</g>
<!-- visitSummary:0 -->
<g id="node7" class="node"><title>visitSummary:0</title>
<path fill="#f5f5f5" stroke="#00babc" stroke-width="3" d="M1157,-407.5C1157,-407.5 889,-407.5 889,-407.5 883,-407.5 877,-401.5 877,-395.5 877,-395.5 877,-320.5 877,-320.5 877,-314.5 883,-308.5 889,-308.5 889,-308.5 1157,-308.5 1157,-308.5 1163,-308.5 1169,-314.5 1169,-320.5 1169,-320.5 1169,-395.5 1169,-395.5 1169,-401.5 1163,-407.5 1157,-407.5"/>
<text text-anchor="start" x="898" y="-379.1" font-family="Monospace" font-weight="bold" font-size="18.00">visitSummary</text>
<text text-anchor="start" x="898" y="-351.8" font-family="Monospace" font-style="italic" font-size="14.00">dimensions:</text>
<text text-anchor="start" x="989" y="-351.8" font-family="Monospace" font-size="14.00"> {visit}</text>
<text text-anchor="start" x="898" y="-325.8" font-family="Monospace" font-style="italic" font-size="14.00">storage class:</text>
<text text-anchor="start" x="1014" y="-325.8" font-family="Monospace" font-size="14.00"> ExposureCatalog</text>
</g>
<!-- visitSummary:0&#45;&gt;updateVisitSummary:2 -->
<g id="edge10" class="edge"><title>visitSummary:0&#45;&gt;updateVisitSummary:2</title>
<path fill="none" stroke="black" stroke-width="1.5" d="M935.5,-308.426C935.5,-308.426 935.5,-268.745 935.5,-268.745"/>
<polygon fill="black" stroke="black" points="940.75,-268.745 935.5,-253.745 930.25,-268.745 940.75,-268.745"/>
</g>
<!-- skyMap:0 -->
<g id="node8" class="node"><title>skyMap:0</title>
<path fill="#f5f5f5" stroke="#00babc" stroke-width="3" d="M1410.25,-407.5C1410.25,-407.5 1217.75,-407.5 1217.75,-407.5 1211.75,-407.5 1205.75,-401.5 1205.75,-395.5 1205.75,-395.5 1205.75,-320.5 1205.75,-320.5 1205.75,-314.5 1211.75,-308.5 1217.75,-308.5 1217.75,-308.5 1410.25,-308.5 1410.25,-308.5 1416.25,-308.5 1422.25,-314.5 1422.25,-320.5 1422.25,-320.5 1422.25,-395.5 1422.25,-395.5 1422.25,-401.5 1416.25,-407.5 1410.25,-407.5"/>
<text text-anchor="start" x="1227" y="-379.1" font-family="Monospace" font-weight="bold" font-size="18.00">skyMap</text>
<text text-anchor="start" x="1227" y="-351.8" font-family="Monospace" font-style="italic" font-size="14.00">dimensions:</text>
<text text-anchor="start" x="1318" y="-351.8" font-family="Monospace" font-size="14.00"> {skymap}</text>
<text text-anchor="start" x="1227" y="-325.8" font-family="Monospace" font-style="italic" font-size="14.00">storage class:</text>
<text text-anchor="start" x="1343" y="-325.8" font-family="Monospace" font-size="14.00"> SkyMap</text>
</g>
<!-- skyMap:0&#45;&gt;updateVisitSummary:2 -->
<g id="edge11" class="edge"><title>skyMap:0&#45;&gt;updateVisitSummary:2</title>
<path fill="none" stroke="black" stroke-width="1.5" d="M1314,-308.426C1314,-263.407 1314,-204 1314,-204 1314,-204 1009.18,-204 1009.18,-204"/>
<polygon fill="black" stroke="black" points="1009.18,-198.75 994.182,-204 1009.18,-209.25 1009.18,-198.75"/>
</g>
<!-- 2e69bcb2:0 -->
<g id="node10" class="node"><title>2e69bcb2:0</title>
<path fill="#f5f5f5" stroke="#00babc" stroke-width="3" d="M607,-745.5C607,-745.5 331,-745.5 331,-745.5 325,-745.5 319,-739.5 319,-733.5 319,-733.5 319,-628.5 319,-628.5 319,-622.5 325,-616.5 331,-616.5 331,-616.5 607,-616.5 607,-616.5 613,-616.5 619,-622.5 619,-628.5 619,-628.5 619,-733.5 619,-733.5 619,-739.5 613,-745.5 607,-745.5"/>
<text text-anchor="start" x="340" y="-717.1" font-family="Monospace" font-weight="bold" font-size="18.00">isolated_star_sources</text>
<text text-anchor="start" x="340" y="-686.6" font-family="Monospace" font-weight="bold" font-size="18.00">isolated_star_cat</text>
<text text-anchor="start" x="340" y="-659.8" font-family="Monospace" font-style="italic" font-size="14.00">dimensions:</text>
<text text-anchor="start" x="431" y="-659.8" font-family="Monospace" font-size="14.00"> {instrument, tract}</text>
<text text-anchor="start" x="340" y="-633.8" font-family="Monospace" font-style="italic" font-size="14.00">storage class:</text>
<text text-anchor="start" x="456" y="-633.8" font-family="Monospace" font-size="14.00"> DataFrame</text>
</g>
<!-- 2e69bcb2:0&#45;&gt;finalizeCharacterization:2 -->
<g id="edge12" class="edge"><title>2e69bcb2:0&#45;&gt;finalizeCharacterization:2</title>
<path fill="none" stroke="black" stroke-width="1.5" d="M469,-616.144C469,-616.144 469,-576.72 469,-576.72"/>
<polygon fill="black" stroke="black" points="474.25,-576.72 469,-561.72 463.75,-576.72 474.25,-576.72"/>
</g>
</g>
</svg>
