<?xml version="1.0" encoding="UTF-8" standalone="no"?>
<!DOCTYPE svg PUBLIC "-//W3C//DTD SVG 1.1//EN"
 "http://www.w3.org/Graphics/SVG/1.1/DTD/svg11.dtd">
<!-- Generated by graphviz version 2.30.1 (20201013.1554)
 -->
<!-- Title: Pipeline Pages: 1 -->
<svg width="1250pt" height="1062pt"
 viewBox="0.00 0.00 1250.00 1062.00" xmlns="http://www.w3.org/2000/svg" xmlns:xlink="http://www.w3.org/1999/xlink">
<g id="graph0" class="graph" transform="scale(1 1) rotate(0) translate(4 1058)">
<title>Pipeline</title>
<polygon fill="white" stroke="white" points="-4,5 -4,-1058 1247,-1058 1247,5 -4,5"/>
<!-- getTemplate:2 -->
<g id="node1" class="node"><title>getTemplate:2</title>
<polygon fill="#b1f2ef" stroke="black" stroke-width="3" points="599,-899.5 209,-899.5 209,-800.5 599,-800.5 599,-899.5"/>
<text text-anchor="start" x="230" y="-871.1" font-family="Monospace" font-weight="bold" font-size="18.00">getTemplate</text>
<text text-anchor="start" x="230" y="-843.8" font-family="Monospace" font-size="14.00">lsst.ip.diffim.getTemplate.GetTemplateTask</text>
<text text-anchor="start" x="230" y="-817.8" font-family="Monospace" font-style="italic" font-size="14.00">dimensions:</text>
<text text-anchor="start" x="321" y="-817.8" font-family="Monospace" font-size="14.00"> {skymap, detector, visit}</text>
</g>
<!-- deepDiff_templateExp:0 -->
<g id="node5" class="node"><title>deepDiff_templateExp:0</title>
<path fill="#f5f5f5" stroke="#00babc" stroke-width="3" d="M560.25,-745.5C560.25,-745.5 301.75,-745.5 301.75,-745.5 295.75,-745.5 289.75,-739.5 289.75,-733.5 289.75,-733.5 289.75,-658.5 289.75,-658.5 289.75,-652.5 295.75,-646.5 301.75,-646.5 301.75,-646.5 560.25,-646.5 560.25,-646.5 566.25,-646.5 572.25,-652.5 572.25,-658.5 572.25,-658.5 572.25,-733.5 572.25,-733.5 572.25,-739.5 566.25,-745.5 560.25,-745.5"/>
<text text-anchor="start" x="311" y="-717.1" font-family="Monospace" font-weight="bold" font-size="18.00">deepDiff_templateExp</text>
<text text-anchor="start" x="311" y="-689.8" font-family="Monospace" font-style="italic" font-size="14.00">dimensions:</text>
<text text-anchor="start" x="402" y="-689.8" font-family="Monospace" font-size="14.00"> {detector, visit}</text>
<text text-anchor="start" x="311" y="-663.8" font-family="Monospace" font-style="italic" font-size="14.00">storage class:</text>
<text text-anchor="start" x="427" y="-663.8" font-family="Monospace" font-size="14.00"> ExposureF</text>
</g>
<!-- getTemplate:2&#45;&gt;deepDiff_templateExp:0 -->
<g id="edge1" class="edge"><title>getTemplate:2&#45;&gt;deepDiff_templateExp:0</title>
<path fill="none" stroke="black" stroke-width="1.5" d="M431,-800.426C431,-800.426 431,-760.745 431,-760.745"/>
<polygon fill="black" stroke="black" points="436.25,-760.745 431,-745.745 425.75,-760.745 436.25,-760.745"/>
</g>
<!-- skyMap:0 -->
<g id="node2" class="node"><title>skyMap:0</title>
<path fill="#f5f5f5" stroke="#00babc" stroke-width="3" d="M204.25,-1053.5C204.25,-1053.5 11.75,-1053.5 11.75,-1053.5 5.75,-1053.5 -0.25,-1047.5 -0.25,-1041.5 -0.25,-1041.5 -0.25,-966.5 -0.25,-966.5 -0.25,-960.5 5.75,-954.5 11.75,-954.5 11.75,-954.5 204.25,-954.5 204.25,-954.5 210.25,-954.5 216.25,-960.5 216.25,-966.5 216.25,-966.5 216.25,-1041.5 216.25,-1041.5 216.25,-1047.5 210.25,-1053.5 204.25,-1053.5"/>
<text text-anchor="start" x="21" y="-1025.1" font-family="Monospace" font-weight="bold" font-size="18.00">skyMap</text>
<text text-anchor="start" x="21" y="-997.8" font-family="Monospace" font-style="italic" font-size="14.00">dimensions:</text>
<text text-anchor="start" x="112" y="-997.8" font-family="Monospace" font-size="14.00"> {skymap}</text>
<text text-anchor="start" x="21" y="-971.8" font-family="Monospace" font-style="italic" font-size="14.00">storage class:</text>
<text text-anchor="start" x="137" y="-971.8" font-family="Monospace" font-size="14.00"> SkyMap</text>
</g>
<!-- skyMap:0&#45;&gt;getTemplate:2 -->
<g id="edge2" class="edge"><title>skyMap:0&#45;&gt;getTemplate:2</title>
<path fill="none" stroke="black" stroke-width="1.5" d="M212.625,-954.426C212.625,-954.426 212.625,-914.745 212.625,-914.745"/>
<polygon fill="black" stroke="black" points="217.875,-914.745 212.625,-899.745 207.375,-914.745 217.875,-914.745"/>
</g>
<!-- injected_calexp:0 -->
<g id="node3" class="node"><title>injected_calexp:0</title>
<path fill="#f5f5f5" stroke="#00babc" stroke-width="3" d="M810.25,-1053.5C810.25,-1053.5 551.75,-1053.5 551.75,-1053.5 545.75,-1053.5 539.75,-1047.5 539.75,-1041.5 539.75,-1041.5 539.75,-966.5 539.75,-966.5 539.75,-960.5 545.75,-954.5 551.75,-954.5 551.75,-954.5 810.25,-954.5 810.25,-954.5 816.25,-954.5 822.25,-960.5 822.25,-966.5 822.25,-966.5 822.25,-1041.5 822.25,-1041.5 822.25,-1047.5 816.25,-1053.5 810.25,-1053.5"/>
<text text-anchor="start" x="561" y="-1025.1" font-family="Monospace" font-weight="bold" font-size="18.00">injected_calexp</text>
<text text-anchor="start" x="561" y="-997.8" font-family="Monospace" font-style="italic" font-size="14.00">dimensions:</text>
<text text-anchor="start" x="652" y="-997.8" font-family="Monospace" font-size="14.00"> {detector, visit}</text>
<text text-anchor="start" x="561" y="-971.8" font-family="Monospace" font-style="italic" font-size="14.00">storage class:</text>
<text text-anchor="start" x="677" y="-971.8" font-family="Monospace" font-size="14.00"> ExposureF</text>
</g>
<!-- injected_calexp:0&#45;&gt;getTemplate:2 -->
<g id="edge3" class="edge"><title>injected_calexp:0&#45;&gt;getTemplate:2</title>
<path fill="none" stroke="black" stroke-width="1.5" d="M559.5,-954.426C559.5,-954.426 559.5,-914.745 559.5,-914.745"/>
<polygon fill="black" stroke="black" points="564.75,-914.745 559.5,-899.745 554.25,-914.745 564.75,-914.745"/>
</g>
<!-- injected_calexp:0&#45;&gt;getTemplate:2 -->
<g id="edge4" class="edge"><title>injected_calexp:0&#45;&gt;getTemplate:2</title>
<path fill="none" stroke="black" stroke-width="1.5" d="M579.25,-954.426C579.25,-954.426 579.25,-914.745 579.25,-914.745"/>
<polygon fill="black" stroke="black" points="584.5,-914.745 579.25,-899.745 574,-914.745 584.5,-914.745"/>
</g>
<!-- subtractImages:2 -->
<g id="node6" class="node"><title>subtractImages:2</title>
<polygon fill="#b1f2ef" stroke="black" stroke-width="3" points="894.25,-591.5 413.75,-591.5 413.75,-492.5 894.25,-492.5 894.25,-591.5"/>
<text text-anchor="start" x="435" y="-563.1" font-family="Monospace" font-weight="bold" font-size="18.00">subtractImages</text>
<text text-anchor="start" x="435" y="-535.8" font-family="Monospace" font-size="14.00">lsst.ip.diffim.subtractImages.AlardLuptonSubtractTask</text>
<text text-anchor="start" x="435" y="-509.8" font-family="Monospace" font-style="italic" font-size="14.00">dimensions:</text>
<text text-anchor="start" x="526" y="-509.8" font-family="Monospace" font-size="14.00"> {detector, visit}</text>
</g>
<!-- injected_calexp:0&#45;&gt;subtractImages:2 -->
<g id="edge5" class="edge"><title>injected_calexp:0&#45;&gt;subtractImages:2</title>
<path fill="none" stroke="black" stroke-width="1.5" d="M654.375,-954.119C654.375,-954.119 654.375,-606.673 654.375,-606.673"/>
<polygon fill="black" stroke="black" points="659.625,-606.672 654.375,-591.673 649.125,-606.673 659.625,-606.672"/>
</g>
<!-- detectAndMeasureDiaSources:2 -->
<g id="node9" class="node"><title>detectAndMeasureDiaSources:2</title>
<polygon fill="#b1f2ef" stroke="black" stroke-width="3" points="1177.25,-253.5 704.75,-253.5 704.75,-154.5 1177.25,-154.5 1177.25,-253.5"/>
<text text-anchor="start" x="726" y="-225.1" font-family="Monospace" font-weight="bold" font-size="18.00">detectAndMeasureDiaSources</text>
<text text-anchor="start" x="726" y="-197.8" font-family="Monospace" font-size="14.00">lsst.ip.diffim.detectAndMeasure.DetectAndMeasureTask</text>
<text text-anchor="start" x="726" y="-171.8" font-family="Monospace" font-style="italic" font-size="14.00">dimensions:</text>
<text text-anchor="start" x="817" y="-171.8" font-family="Monospace" font-size="14.00"> {detector, visit}</text>
</g>
<!-- injected_calexp:0&#45;&gt;detectAndMeasureDiaSources:2 -->
<g id="edge6" class="edge"><title>injected_calexp:0&#45;&gt;detectAndMeasureDiaSources:2</title>
<path fill="none" stroke="black" stroke-width="1.5" d="M822.496,-1004C938.879,-1004 1084.75,-1004 1084.75,-1004 1084.75,-1004 1084.75,-268.741 1084.75,-268.741"/>
<polygon fill="black" stroke="black" points="1090,-268.741 1084.75,-253.741 1079.5,-268.741 1090,-268.741"/>
</g>
<!-- deepCoadd:0 -->
<g id="node4" class="node"><title>deepCoadd:0</title>
<path fill="#f5f5f5" stroke="#00babc" stroke-width="3" d="M491,-1053.5C491,-1053.5 265,-1053.5 265,-1053.5 259,-1053.5 253,-1047.5 253,-1041.5 253,-1041.5 253,-966.5 253,-966.5 253,-960.5 259,-954.5 265,-954.5 265,-954.5 491,-954.5 491,-954.5 497,-954.5 503,-960.5 503,-966.5 503,-966.5 503,-1041.5 503,-1041.5 503,-1047.5 497,-1053.5 491,-1053.5"/>
<text text-anchor="start" x="274" y="-1025.1" font-family="Monospace" font-weight="bold" font-size="18.00">deepCoadd</text>
<text text-anchor="start" x="274" y="-997.8" font-family="Monospace" font-style="italic" font-size="14.00">dimensions:</text>
<text text-anchor="start" x="365" y="-997.8" font-family="Monospace" font-size="14.00"> {band, patch}</text>
<text text-anchor="start" x="274" y="-971.8" font-family="Monospace" font-style="italic" font-size="14.00">storage class:</text>
<text text-anchor="start" x="390" y="-971.8" font-family="Monospace" font-size="14.00"> ExposureF</text>
</g>
<!-- deepCoadd:0&#45;&gt;getTemplate:2 -->
<g id="edge7" class="edge"><title>deepCoadd:0&#45;&gt;getTemplate:2</title>
<path fill="none" stroke="black" stroke-width="1.5" d="M378,-954.426C378,-954.426 378,-914.745 378,-914.745"/>
<polygon fill="black" stroke="black" points="383.25,-914.745 378,-899.745 372.75,-914.745 383.25,-914.745"/>
</g>
<!-- deepDiff_templateExp:0&#45;&gt;subtractImages:2 -->
<g id="edge8" class="edge"><title>deepDiff_templateExp:0&#45;&gt;subtractImages:2</title>
<path fill="none" stroke="black" stroke-width="1.5" d="M493,-646.426C493,-646.426 493,-606.745 493,-606.745"/>
<polygon fill="black" stroke="black" points="498.25,-606.745 493,-591.745 487.75,-606.745 498.25,-606.745"/>
</g>
<!-- injected_deepDiff_psfMatchKernel:0 -->
<g id="node8" class="node"><title>injected_deepDiff_psfMatchKernel:0</title>
<path fill="#f5f5f5" stroke="#00babc" stroke-width="3" d="M627,-422.5C627,-422.5 271,-422.5 271,-422.5 265,-422.5 259,-416.5 259,-410.5 259,-410.5 259,-335.5 259,-335.5 259,-329.5 265,-323.5 271,-323.5 271,-323.5 627,-323.5 627,-323.5 633,-323.5 639,-329.5 639,-335.5 639,-335.5 639,-410.5 639,-410.5 639,-416.5 633,-422.5 627,-422.5"/>
<text text-anchor="start" x="280" y="-394.1" font-family="Monospace" font-weight="bold" font-size="18.00">injected_deepDiff_psfMatchKernel</text>
<text text-anchor="start" x="280" y="-366.8" font-family="Monospace" font-style="italic" font-size="14.00">dimensions:</text>
<text text-anchor="start" x="371" y="-366.8" font-family="Monospace" font-size="14.00"> {detector, visit}</text>
<text text-anchor="start" x="280" y="-340.8" font-family="Monospace" font-style="italic" font-size="14.00">storage class:</text>
<text text-anchor="start" x="396" y="-340.8" font-family="Monospace" font-size="14.00"> MatchingKernel</text>
</g>
<!-- subtractImages:2&#45;&gt;injected_deepDiff_psfMatchKernel:0 -->
<g id="edge9" class="edge"><title>subtractImages:2&#45;&gt;injected_deepDiff_psfMatchKernel:0</title>
<path fill="none" stroke="black" stroke-width="1.5" d="M526.375,-492.208C526.375,-492.208 526.375,-437.727 526.375,-437.727"/>
<polygon fill="black" stroke="black" points="531.625,-437.727 526.375,-422.727 521.125,-437.727 531.625,-437.727"/>
</g>
<!-- 34fdb821:0 -->
<g id="node12" class="node"><title>34fdb821:0</title>
<path fill="#f5f5f5" stroke="#00babc" stroke-width="3" d="M980.25,-437.5C980.25,-437.5 687.75,-437.5 687.75,-437.5 681.75,-437.5 675.75,-431.5 675.75,-425.5 675.75,-425.5 675.75,-320.5 675.75,-320.5 675.75,-314.5 681.75,-308.5 687.75,-308.5 687.75,-308.5 980.25,-308.5 980.25,-308.5 986.25,-308.5 992.25,-314.5 992.25,-320.5 992.25,-320.5 992.25,-425.5 992.25,-425.5 992.25,-431.5 986.25,-437.5 980.25,-437.5"/>
<text text-anchor="start" x="697" y="-409.1" font-family="Monospace" font-weight="bold" font-size="18.00">deepDiff_matchedExp</text>
<text text-anchor="start" x="697" y="-378.6" font-family="Monospace" font-weight="bold" font-size="18.00">deepDiff_differenceTempExp</text>
<text text-anchor="start" x="697" y="-351.8" font-family="Monospace" font-style="italic" font-size="14.00">dimensions:</text>
<text text-anchor="start" x="788" y="-351.8" font-family="Monospace" font-size="14.00"> {detector, visit}</text>
<text text-anchor="start" x="697" y="-325.8" font-family="Monospace" font-style="italic" font-size="14.00">storage class:</text>
<text text-anchor="start" x="813" y="-325.8" font-family="Monospace" font-size="14.00"> ExposureF</text>
</g>
<!-- subtractImages:2&#45;&gt;34fdb821:0 -->
<g id="edge10" class="edge"><title>subtractImages:2&#45;&gt;34fdb821:0</title>
<path fill="none" stroke="black" stroke-width="1.5" d="M785,-492.208C785,-492.208 785,-452.804 785,-452.804"/>
<polygon fill="black" stroke="black" points="790.25,-452.804 785,-437.804 779.75,-452.804 790.25,-452.804"/>
</g>
<!-- injected_src:0 -->
<g id="node7" class="node"><title>injected_src:0</title>
<path fill="#f5f5f5" stroke="#00babc" stroke-width="3" d="M980.25,-745.5C980.25,-745.5 721.75,-745.5 721.75,-745.5 715.75,-745.5 709.75,-739.5 709.75,-733.5 709.75,-733.5 709.75,-658.5 709.75,-658.5 709.75,-652.5 715.75,-646.5 721.75,-646.5 721.75,-646.5 980.25,-646.5 980.25,-646.5 986.25,-646.5 992.25,-652.5 992.25,-658.5 992.25,-658.5 992.25,-733.5 992.25,-733.5 992.25,-739.5 986.25,-745.5 980.25,-745.5"/>
<text text-anchor="start" x="731" y="-717.1" font-family="Monospace" font-weight="bold" font-size="18.00">injected_src</text>
<text text-anchor="start" x="731" y="-689.8" font-family="Monospace" font-style="italic" font-size="14.00">dimensions:</text>
<text text-anchor="start" x="822" y="-689.8" font-family="Monospace" font-size="14.00"> {detector, visit}</text>
<text text-anchor="start" x="731" y="-663.8" font-family="Monospace" font-style="italic" font-size="14.00">storage class:</text>
<text text-anchor="start" x="847" y="-663.8" font-family="Monospace" font-size="14.00"> SourceCatalog</text>
</g>
<!-- injected_src:0&#45;&gt;subtractImages:2 -->
<g id="edge11" class="edge"><title>injected_src:0&#45;&gt;subtractImages:2</title>
<path fill="none" stroke="black" stroke-width="1.5" d="M802,-646.426C802,-646.426 802,-606.745 802,-606.745"/>
<polygon fill="black" stroke="black" points="807.25,-606.745 802,-591.745 796.75,-606.745 807.25,-606.745"/>
</g>
<!-- deepDiff_diaSrc:0 -->
<g id="node10" class="node"><title>deepDiff_diaSrc:0</title>
<path fill="#f5f5f5" stroke="#00babc" stroke-width="3" d="M911.25,-99.5C911.25,-99.5 652.75,-99.5 652.75,-99.5 646.75,-99.5 640.75,-93.5 640.75,-87.5 640.75,-87.5 640.75,-12.5 640.75,-12.5 640.75,-6.5 646.75,-0.5 652.75,-0.5 652.75,-0.5 911.25,-0.5 911.25,-0.5 917.25,-0.5 923.25,-6.5 923.25,-12.5 923.25,-12.5 923.25,-87.5 923.25,-87.5 923.25,-93.5 917.25,-99.5 911.25,-99.5"/>
<text text-anchor="start" x="662" y="-71.1" font-family="Monospace" font-weight="bold" font-size="18.00">deepDiff_diaSrc</text>
<text text-anchor="start" x="662" y="-43.8" font-family="Monospace" font-style="italic" font-size="14.00">dimensions:</text>
<text text-anchor="start" x="753" y="-43.8" font-family="Monospace" font-size="14.00"> {detector, visit}</text>
<text text-anchor="start" x="662" y="-17.8" font-family="Monospace" font-style="italic" font-size="14.00">storage class:</text>
<text text-anchor="start" x="778" y="-17.8" font-family="Monospace" font-size="14.00"> SourceCatalog</text>
</g>
<!-- detectAndMeasureDiaSources:2&#45;&gt;deepDiff_diaSrc:0 -->
<g id="edge12" class="edge"><title>detectAndMeasureDiaSources:2&#45;&gt;deepDiff_diaSrc:0</title>
<path fill="none" stroke="black" stroke-width="1.5" d="M814,-154.426C814,-154.426 814,-114.745 814,-114.745"/>
<polygon fill="black" stroke="black" points="819.25,-114.745 814,-99.7452 808.75,-114.745 819.25,-114.745"/>
</g>
<!-- deepDiff_differenceExp:0 -->
<g id="node11" class="node"><title>deepDiff_differenceExp:0</title>
<path fill="#f5f5f5" stroke="#00babc" stroke-width="3" d="M1230.25,-99.5C1230.25,-99.5 971.75,-99.5 971.75,-99.5 965.75,-99.5 959.75,-93.5 959.75,-87.5 959.75,-87.5 959.75,-12.5 959.75,-12.5 959.75,-6.5 965.75,-0.5 971.75,-0.5 971.75,-0.5 1230.25,-0.5 1230.25,-0.5 1236.25,-0.5 1242.25,-6.5 1242.25,-12.5 1242.25,-12.5 1242.25,-87.5 1242.25,-87.5 1242.25,-93.5 1236.25,-99.5 1230.25,-99.5"/>
<text text-anchor="start" x="981" y="-71.1" font-family="Monospace" font-weight="bold" font-size="18.00">deepDiff_differenceExp</text>
<text text-anchor="start" x="981" y="-43.8" font-family="Monospace" font-style="italic" font-size="14.00">dimensions:</text>
<text text-anchor="start" x="1072" y="-43.8" font-family="Monospace" font-size="14.00"> {detector, visit}</text>
<text text-anchor="start" x="981" y="-17.8" font-family="Monospace" font-style="italic" font-size="14.00">storage class:</text>
<text text-anchor="start" x="1097" y="-17.8" font-family="Monospace" font-size="14.00"> ExposureF</text>
</g>
<!-- detectAndMeasureDiaSources:2&#45;&gt;deepDiff_differenceExp:0 -->
<g id="edge13" class="edge"><title>detectAndMeasureDiaSources:2&#45;&gt;deepDiff_differenceExp:0</title>
<path fill="none" stroke="black" stroke-width="1.5" d="M1068.5,-154.426C1068.5,-154.426 1068.5,-114.745 1068.5,-114.745"/>
<polygon fill="black" stroke="black" points="1073.75,-114.745 1068.5,-99.7452 1063.25,-114.745 1073.75,-114.745"/>
</g>
<!-- 34fdb821:0&#45;&gt;detectAndMeasureDiaSources:2 -->
<g id="edge14" class="edge"><title>34fdb821:0&#45;&gt;detectAndMeasureDiaSources:2</title>
<path fill="none" stroke="black" stroke-width="1.5" d="M848.5,-308.144C848.5,-308.144 848.5,-268.72 848.5,-268.72"/>
<polygon fill="black" stroke="black" points="853.75,-268.72 848.5,-253.72 843.25,-268.72 853.75,-268.72"/>
</g>
</g>
</svg>
