<?xml version="1.0" encoding="UTF-8" standalone="no"?>
<!DOCTYPE svg PUBLIC "-//W3C//DTD SVG 1.1//EN"
 "http://www.w3.org/Graphics/SVG/1.1/DTD/svg11.dtd">
<!-- Generated by graphviz version 2.30.1 (20201013.1554)
 -->
<!-- Title: Pipeline Pages: 1 -->
<svg width="1478pt" height="754pt"
 viewBox="0.00 0.00 1478.00 754.00" xmlns="http://www.w3.org/2000/svg" xmlns:xlink="http://www.w3.org/1999/xlink">
<g id="graph0" class="graph" transform="scale(1 1) rotate(0) translate(4 750)">
<title>Pipeline</title>
<polygon fill="white" stroke="white" points="-4,5 -4,-750 1475,-750 1475,5 -4,5"/>
<!-- cpFlatIsr:2 -->
<g id="node1" class="node"><title>cpFlatIsr:2</title>
<polygon fill="#b1f2ef" stroke="black" stroke-width="3" points="839,-561.5 531,-561.5 531,-462.5 839,-462.5 839,-561.5"/>
<text text-anchor="start" x="552" y="-533.1" font-family="Monospace" font-weight="bold" font-size="18.00">cpFlatIsr</text>
<text text-anchor="start" x="552" y="-505.8" font-family="Monospace" font-size="14.00">lsst.ip.isr.isrTask.IsrTask</text>
<text text-anchor="start" x="552" y="-479.8" font-family="Monospace" font-style="italic" font-size="14.00">dimensions:</text>
<text text-anchor="start" x="643" y="-479.8" font-family="Monospace" font-size="14.00"> {detector, exposure}</text>
</g>
<!-- cpFlatIsrExp:0 -->
<g id="node6" class="node"><title>cpFlatIsrExp:0</title>
<path fill="#f5f5f5" stroke="#00babc" stroke-width="3" d="M827,-407.5C827,-407.5 543,-407.5 543,-407.5 537,-407.5 531,-401.5 531,-395.5 531,-395.5 531,-320.5 531,-320.5 531,-314.5 537,-308.5 543,-308.5 543,-308.5 827,-308.5 827,-308.5 833,-308.5 839,-314.5 839,-320.5 839,-320.5 839,-395.5 839,-395.5 839,-401.5 833,-407.5 827,-407.5"/>
<text text-anchor="start" x="552" y="-379.1" font-family="Monospace" font-weight="bold" font-size="18.00">cpFlatIsrExp</text>
<text text-anchor="start" x="552" y="-351.8" font-family="Monospace" font-style="italic" font-size="14.00">dimensions:</text>
<text text-anchor="start" x="643" y="-351.8" font-family="Monospace" font-size="14.00"> {detector, exposure}</text>
<text text-anchor="start" x="552" y="-325.8" font-family="Monospace" font-style="italic" font-size="14.00">storage class:</text>
<text text-anchor="start" x="668" y="-325.8" font-family="Monospace" font-size="14.00"> Exposure</text>
</g>
<!-- cpFlatIsr:2&#45;&gt;cpFlatIsrExp:0 -->
<g id="edge1" class="edge"><title>cpFlatIsr:2&#45;&gt;cpFlatIsrExp:0</title>
<path fill="none" stroke="black" stroke-width="1.5" d="M685,-462.426C685,-462.426 685,-422.745 685,-422.745"/>
<polygon fill="black" stroke="black" points="690.25,-422.745 685,-407.745 679.75,-422.745 690.25,-422.745"/>
</g>
<!-- linearizer:0 -->
<g id="node2" class="node"><title>linearizer:0</title>
<path fill="#f5f5f5" stroke="#00babc" stroke-width="3" d="M238,-730.5C238,-730.5 12,-730.5 12,-730.5 6,-730.5 0,-724.5 0,-718.5 0,-718.5 0,-643.5 0,-643.5 0,-637.5 6,-631.5 12,-631.5 12,-631.5 238,-631.5 238,-631.5 244,-631.5 250,-637.5 250,-643.5 250,-643.5 250,-718.5 250,-718.5 250,-724.5 244,-730.5 238,-730.5"/>
<text text-anchor="start" x="21" y="-702.1" font-family="Monospace" font-weight="bold" font-size="18.00">linearizer</text>
<text text-anchor="start" x="21" y="-674.8" font-family="Monospace" font-style="italic" font-size="14.00">dimensions:</text>
<text text-anchor="start" x="112" y="-674.8" font-family="Monospace" font-size="14.00"> {detector}</text>
<text text-anchor="start" x="21" y="-648.8" font-family="Monospace" font-style="italic" font-size="14.00">storage class:</text>
<text text-anchor="start" x="137" y="-648.8" font-family="Monospace" font-size="14.00"> Linearizer</text>
</g>
<!-- linearizer:0&#45;&gt;cpFlatIsr:2 -->
<g id="edge2" class="edge"><title>linearizer:0&#45;&gt;cpFlatIsr:2</title>
<path fill="none" stroke="black" stroke-width="1.5" stroke-dasharray="5,2" d="M125,-631.208C125,-581.358 125,-512 125,-512 125,-512 515.866,-512 515.866,-512"/>
<polygon fill="black" stroke="black" points="515.866,-517.25 530.866,-512 515.866,-506.75 515.866,-517.25"/>
</g>
<!-- camera:0 -->
<g id="node3" class="node"><title>camera:0</title>
<path fill="#f5f5f5" stroke="#00babc" stroke-width="3" d="M516,-730.5C516,-730.5 298,-730.5 298,-730.5 292,-730.5 286,-724.5 286,-718.5 286,-718.5 286,-643.5 286,-643.5 286,-637.5 292,-631.5 298,-631.5 298,-631.5 516,-631.5 516,-631.5 522,-631.5 528,-637.5 528,-643.5 528,-643.5 528,-718.5 528,-718.5 528,-724.5 522,-730.5 516,-730.5"/>
<text text-anchor="start" x="307" y="-702.1" font-family="Monospace" font-weight="bold" font-size="18.00">camera</text>
<text text-anchor="start" x="307" y="-674.8" font-family="Monospace" font-style="italic" font-size="14.00">dimensions:</text>
<text text-anchor="start" x="398" y="-674.8" font-family="Monospace" font-size="14.00"> {instrument}</text>
<text text-anchor="start" x="307" y="-648.8" font-family="Monospace" font-style="italic" font-size="14.00">storage class:</text>
<text text-anchor="start" x="423" y="-648.8" font-family="Monospace" font-size="14.00"> Camera</text>
</g>
<!-- camera:0&#45;&gt;cpFlatIsr:2 -->
<g id="edge3" class="edge"><title>camera:0&#45;&gt;cpFlatIsr:2</title>
<path fill="none" stroke="black" stroke-width="1.5" stroke-dasharray="5,2" d="M528.259,-681C539.91,-681 547.5,-681 547.5,-681 547.5,-681 547.5,-576.792 547.5,-576.792"/>
<polygon fill="black" stroke="black" points="552.75,-576.791 547.5,-561.792 542.25,-576.792 552.75,-576.791"/>
</g>
<!-- bias:0 -->
<g id="node4" class="node"><title>bias:0</title>
<path fill="#f5f5f5" stroke="#00babc" stroke-width="3" d="M794,-730.5C794,-730.5 576,-730.5 576,-730.5 570,-730.5 564,-724.5 564,-718.5 564,-718.5 564,-643.5 564,-643.5 564,-637.5 570,-631.5 576,-631.5 576,-631.5 794,-631.5 794,-631.5 800,-631.5 806,-637.5 806,-643.5 806,-643.5 806,-718.5 806,-718.5 806,-724.5 800,-730.5 794,-730.5"/>
<text text-anchor="start" x="585" y="-702.1" font-family="Monospace" font-weight="bold" font-size="18.00">bias</text>
<text text-anchor="start" x="585" y="-674.8" font-family="Monospace" font-style="italic" font-size="14.00">dimensions:</text>
<text text-anchor="start" x="676" y="-674.8" font-family="Monospace" font-size="14.00"> {detector}</text>
<text text-anchor="start" x="585" y="-648.8" font-family="Monospace" font-style="italic" font-size="14.00">storage class:</text>
<text text-anchor="start" x="701" y="-648.8" font-family="Monospace" font-size="14.00"> ExposureF</text>
</g>
<!-- bias:0&#45;&gt;cpFlatIsr:2 -->
<g id="edge4" class="edge"><title>bias:0&#45;&gt;cpFlatIsr:2</title>
<path fill="none" stroke="black" stroke-width="1.5" stroke-dasharray="5,2" d="M685,-631.208C685,-631.208 685,-576.727 685,-576.727"/>
<polygon fill="black" stroke="black" points="690.25,-576.727 685,-561.727 679.75,-576.727 690.25,-576.727"/>
</g>
<!-- crosstalk:0 -->
<g id="node5" class="node"><title>crosstalk:0</title>
<path fill="#f5f5f5" stroke="#00babc" stroke-width="3" d="M1113.25,-730.5C1113.25,-730.5 854.75,-730.5 854.75,-730.5 848.75,-730.5 842.75,-724.5 842.75,-718.5 842.75,-718.5 842.75,-643.5 842.75,-643.5 842.75,-637.5 848.75,-631.5 854.75,-631.5 854.75,-631.5 1113.25,-631.5 1113.25,-631.5 1119.25,-631.5 1125.25,-637.5 1125.25,-643.5 1125.25,-643.5 1125.25,-718.5 1125.25,-718.5 1125.25,-724.5 1119.25,-730.5 1113.25,-730.5"/>
<text text-anchor="start" x="864" y="-702.1" font-family="Monospace" font-weight="bold" font-size="18.00">crosstalk</text>
<text text-anchor="start" x="864" y="-674.8" font-family="Monospace" font-style="italic" font-size="14.00">dimensions:</text>
<text text-anchor="start" x="955" y="-674.8" font-family="Monospace" font-size="14.00"> {detector}</text>
<text text-anchor="start" x="864" y="-648.8" font-family="Monospace" font-style="italic" font-size="14.00">storage class:</text>
<text text-anchor="start" x="980" y="-648.8" font-family="Monospace" font-size="14.00"> CrosstalkCalib</text>
</g>
<!-- crosstalk:0&#45;&gt;cpFlatIsr:2 -->
<g id="edge5" class="edge"><title>crosstalk:0&#45;&gt;cpFlatIsr:2</title>
<path fill="none" stroke="black" stroke-width="1.5" stroke-dasharray="5,2" d="M842.728,-681C827.275,-681 817,-681 817,-681 817,-681 817,-576.792 817,-576.792"/>
<polygon fill="black" stroke="black" points="822.25,-576.791 817,-561.792 811.75,-576.792 822.25,-576.791"/>
</g>
<!-- cpFlatMeasure:2 -->
<g id="node7" class="node"><title>cpFlatMeasure:2</title>
<polygon fill="#b1f2ef" stroke="black" stroke-width="3" points="888.25,-253.5 481.75,-253.5 481.75,-154.5 888.25,-154.5 888.25,-253.5"/>
<text text-anchor="start" x="503" y="-225.1" font-family="Monospace" font-weight="bold" font-size="18.00">cpFlatMeasure</text>
<text text-anchor="start" x="503" y="-197.8" font-family="Monospace" font-size="14.00">lsst.cp.pipe.cpFlatMeasure.CpFlatMeasureTask</text>
<text text-anchor="start" x="503" y="-171.8" font-family="Monospace" font-style="italic" font-size="14.00">dimensions:</text>
<text text-anchor="start" x="594" y="-171.8" font-family="Monospace" font-size="14.00"> {detector, exposure}</text>
</g>
<!-- cpFlatIsrExp:0&#45;&gt;cpFlatMeasure:2 -->
<g id="edge6" class="edge"><title>cpFlatIsrExp:0&#45;&gt;cpFlatMeasure:2</title>
<path fill="none" stroke="black" stroke-width="1.5" d="M685,-308.426C685,-308.426 685,-268.745 685,-268.745"/>
<polygon fill="black" stroke="black" points="690.25,-268.745 685,-253.745 679.75,-268.745 690.25,-268.745"/>
</g>
<!-- cpFlatStatistics:0 -->
<g id="node8" class="node"><title>cpFlatStatistics:0</title>
<path fill="#f5f5f5" stroke="#00babc" stroke-width="3" d="M827,-99.5C827,-99.5 543,-99.5 543,-99.5 537,-99.5 531,-93.5 531,-87.5 531,-87.5 531,-12.5 531,-12.5 531,-6.5 537,-0.5 543,-0.5 543,-0.5 827,-0.5 827,-0.5 833,-0.5 839,-6.5 839,-12.5 839,-12.5 839,-87.5 839,-87.5 839,-93.5 833,-99.5 827,-99.5"/>
<text text-anchor="start" x="552" y="-71.1" font-family="Monospace" font-weight="bold" font-size="18.00">cpFlatStatistics</text>
<text text-anchor="start" x="552" y="-43.8" font-family="Monospace" font-style="italic" font-size="14.00">dimensions:</text>
<text text-anchor="start" x="643" y="-43.8" font-family="Monospace" font-size="14.00"> {detector, exposure}</text>
<text text-anchor="start" x="552" y="-17.8" font-family="Monospace" font-style="italic" font-size="14.00">storage class:</text>
<text text-anchor="start" x="668" y="-17.8" font-family="Monospace" font-size="14.00"> PropertyList</text>
</g>
<!-- cpFlatMeasure:2&#45;&gt;cpFlatStatistics:0 -->
<g id="edge7" class="edge"><title>cpFlatMeasure:2&#45;&gt;cpFlatStatistics:0</title>
<path fill="none" stroke="black" stroke-width="1.5" d="M685,-154.426C685,-154.426 685,-114.745 685,-114.745"/>
<polygon fill="black" stroke="black" points="690.25,-114.745 685,-99.7452 679.75,-114.745 690.25,-114.745"/>
</g>
<!-- 998e6c26:0 -->
<g id="node9" class="node"><title>998e6c26:0</title>
<path fill="#f5f5f5" stroke="#00babc" stroke-width="3" d="M1458,-745.5C1458,-745.5 1174,-745.5 1174,-745.5 1168,-745.5 1162,-739.5 1162,-733.5 1162,-733.5 1162,-628.5 1162,-628.5 1162,-622.5 1168,-616.5 1174,-616.5 1174,-616.5 1458,-616.5 1458,-616.5 1464,-616.5 1470,-622.5 1470,-628.5 1470,-628.5 1470,-733.5 1470,-733.5 1470,-739.5 1464,-745.5 1458,-745.5"/>
<text text-anchor="start" x="1183" y="-717.1" font-family="Monospace" font-weight="bold" font-size="18.00">raw</text>
<text text-anchor="start" x="1183" y="-686.6" font-family="Monospace" font-weight="bold" font-size="18.00">overscanRaw</text>
<text text-anchor="start" x="1183" y="-659.8" font-family="Monospace" font-style="italic" font-size="14.00">dimensions:</text>
<text text-anchor="start" x="1274" y="-659.8" font-family="Monospace" font-size="14.00"> {detector, exposure}</text>
<text text-anchor="start" x="1183" y="-633.8" font-family="Monospace" font-style="italic" font-size="14.00">storage class:</text>
<text text-anchor="start" x="1299" y="-633.8" font-family="Monospace" font-size="14.00"> Exposure</text>
</g>
<!-- 998e6c26:0&#45;&gt;cpFlatIsr:2 -->
<g id="edge8" class="edge"><title>998e6c26:0&#45;&gt;cpFlatIsr:2</title>
<path fill="none" stroke="black" stroke-width="1.5" d="M1161.93,-624C1018.92,-624 828,-624 828,-624 828,-624 828,-576.777 828,-576.777"/>
<polygon fill="black" stroke="black" points="833.25,-576.777 828,-561.777 822.75,-576.777 833.25,-576.777"/>
</g>
</g>
</svg>
