<?xml version="1.0" encoding="UTF-8" standalone="no"?>
<!DOCTYPE svg PUBLIC "-//W3C//DTD SVG 1.1//EN"
 "http://www.w3.org/Graphics/SVG/1.1/DTD/svg11.dtd">
<!-- Generated by graphviz version 2.30.1 (20201013.1554)
 -->
<!-- Title: Pipeline Pages: 1 -->
<svg width="1986pt" height="416pt"
 viewBox="0.00 0.00 1986.00 416.00" xmlns="http://www.w3.org/2000/svg" xmlns:xlink="http://www.w3.org/1999/xlink">
<g id="graph0" class="graph" transform="scale(1 1) rotate(0) translate(4 412)">
<title>Pipeline</title>
<polygon fill="white" stroke="white" points="-4,5 -4,-412 1983,-412 1983,5 -4,5"/>
<!-- forcedPhotCcd:2 -->
<g id="node1" class="node"><title>forcedPhotCcd:2</title>
<polygon fill="#b1f2ef" stroke="black" stroke-width="3" points="700.25,-253.5 277.75,-253.5 277.75,-154.5 700.25,-154.5 700.25,-253.5"/>
<text text-anchor="start" x="299" y="-225.1" font-family="Monospace" font-weight="bold" font-size="18.00">forcedPhotCcd</text>
<text text-anchor="start" x="299" y="-197.8" font-family="Monospace" font-size="14.00">lsst.meas.base.forcedPhotCcd.ForcedPhotCcdTask</text>
<text text-anchor="start" x="299" y="-171.8" font-family="Monospace" font-style="italic" font-size="14.00">dimensions:</text>
<text text-anchor="start" x="390" y="-171.8" font-family="Monospace" font-size="14.00"> {detector, tract, visit}</text>
</g>
<!-- forced_calexp:0 -->
<g id="node6" class="node"><title>forced_calexp:0</title>
<path fill="#f5f5f5" stroke="#00babc" stroke-width="3" d="M647.25,-99.5C647.25,-99.5 330.75,-99.5 330.75,-99.5 324.75,-99.5 318.75,-93.5 318.75,-87.5 318.75,-87.5 318.75,-12.5 318.75,-12.5 318.75,-6.5 324.75,-0.5 330.75,-0.5 330.75,-0.5 647.25,-0.5 647.25,-0.5 653.25,-0.5 659.25,-6.5 659.25,-12.5 659.25,-12.5 659.25,-87.5 659.25,-87.5 659.25,-93.5 653.25,-99.5 647.25,-99.5"/>
<text text-anchor="start" x="340" y="-71.1" font-family="Monospace" font-weight="bold" font-size="18.00">forced_calexp</text>
<text text-anchor="start" x="340" y="-43.8" font-family="Monospace" font-style="italic" font-size="14.00">dimensions:</text>
<text text-anchor="start" x="431" y="-43.8" font-family="Monospace" font-size="14.00"> {detector, tract, visit}</text>
<text text-anchor="start" x="340" y="-17.8" font-family="Monospace" font-style="italic" font-size="14.00">storage class:</text>
<text text-anchor="start" x="456" y="-17.8" font-family="Monospace" font-size="14.00"> SourceCatalog</text>
</g>
<!-- forcedPhotCcd:2&#45;&gt;forced_calexp:0 -->
<g id="edge1" class="edge"><title>forcedPhotCcd:2&#45;&gt;forced_calexp:0</title>
<path fill="none" stroke="black" stroke-width="1.5" d="M489,-154.426C489,-154.426 489,-114.745 489,-114.745"/>
<polygon fill="black" stroke="black" points="494.25,-114.745 489,-99.7452 483.75,-114.745 494.25,-114.745"/>
</g>
<!-- finalVisitSummary:0 -->
<g id="node2" class="node"><title>finalVisitSummary:0</title>
<path fill="#f5f5f5" stroke="#00babc" stroke-width="3" d="M599,-407.5C599,-407.5 331,-407.5 331,-407.5 325,-407.5 319,-401.5 319,-395.5 319,-395.5 319,-320.5 319,-320.5 319,-314.5 325,-308.5 331,-308.5 331,-308.5 599,-308.5 599,-308.5 605,-308.5 611,-314.5 611,-320.5 611,-320.5 611,-395.5 611,-395.5 611,-401.5 605,-407.5 599,-407.5"/>
<text text-anchor="start" x="340" y="-379.1" font-family="Monospace" font-weight="bold" font-size="18.00">finalVisitSummary</text>
<text text-anchor="start" x="340" y="-351.8" font-family="Monospace" font-style="italic" font-size="14.00">dimensions:</text>
<text text-anchor="start" x="431" y="-351.8" font-family="Monospace" font-size="14.00"> {visit}</text>
<text text-anchor="start" x="340" y="-325.8" font-family="Monospace" font-style="italic" font-size="14.00">storage class:</text>
<text text-anchor="start" x="456" y="-325.8" font-family="Monospace" font-size="14.00"> ExposureCatalog</text>
</g>
<!-- finalVisitSummary:0&#45;&gt;forcedPhotCcd:2 -->
<g id="edge2" class="edge"><title>finalVisitSummary:0&#45;&gt;forcedPhotCcd:2</title>
<path fill="none" stroke="black" stroke-width="1.5" d="M416.333,-308.426C416.333,-308.426 416.333,-268.745 416.333,-268.745"/>
<polygon fill="black" stroke="black" points="421.583,-268.745 416.333,-253.745 411.083,-268.745 421.583,-268.745"/>
</g>
<!-- forcedPhotDiffim:2 -->
<g id="node11" class="node"><title>forcedPhotDiffim:2</title>
<polygon fill="#b1f2ef" stroke="black" stroke-width="3" points="1230.25,-253.5 807.75,-253.5 807.75,-154.5 1230.25,-154.5 1230.25,-253.5"/>
<text text-anchor="start" x="829" y="-225.1" font-family="Monospace" font-weight="bold" font-size="18.00">forcedPhotDiffim</text>
<text text-anchor="start" x="829" y="-197.8" font-family="Monospace" font-size="14.00">lsst.meas.base.forcedPhotCcd.ForcedPhotCcdTask</text>
<text text-anchor="start" x="829" y="-171.8" font-family="Monospace" font-style="italic" font-size="14.00">dimensions:</text>
<text text-anchor="start" x="920" y="-171.8" font-family="Monospace" font-size="14.00"> {detector, tract, visit}</text>
</g>
<!-- finalVisitSummary:0&#45;&gt;forcedPhotDiffim:2 -->
<g id="edge3" class="edge"><title>finalVisitSummary:0&#45;&gt;forcedPhotDiffim:2</title>
<path fill="none" stroke="black" stroke-width="1.5" d="M513.667,-308.401C513.667,-288.863 513.667,-271 513.667,-271 513.667,-271 845.917,-271 845.917,-271 845.917,-271 845.917,-268.746 845.917,-268.746"/>
<polygon fill="black" stroke="black" points="851.167,-268.746 845.917,-253.746 840.667,-268.746 851.167,-268.746"/>
</g>
<!-- injected_calexp:0 -->
<g id="node3" class="node"><title>injected_calexp:0</title>
<path fill="#f5f5f5" stroke="#00babc" stroke-width="3" d="M270.25,-407.5C270.25,-407.5 11.75,-407.5 11.75,-407.5 5.75,-407.5 -0.25,-401.5 -0.25,-395.5 -0.25,-395.5 -0.25,-320.5 -0.25,-320.5 -0.25,-314.5 5.75,-308.5 11.75,-308.5 11.75,-308.5 270.25,-308.5 270.25,-308.5 276.25,-308.5 282.25,-314.5 282.25,-320.5 282.25,-320.5 282.25,-395.5 282.25,-395.5 282.25,-401.5 276.25,-407.5 270.25,-407.5"/>
<text text-anchor="start" x="21" y="-379.1" font-family="Monospace" font-weight="bold" font-size="18.00">injected_calexp</text>
<text text-anchor="start" x="21" y="-351.8" font-family="Monospace" font-style="italic" font-size="14.00">dimensions:</text>
<text text-anchor="start" x="112" y="-351.8" font-family="Monospace" font-size="14.00"> {detector, visit}</text>
<text text-anchor="start" x="21" y="-325.8" font-family="Monospace" font-style="italic" font-size="14.00">storage class:</text>
<text text-anchor="start" x="137" y="-325.8" font-family="Monospace" font-size="14.00"> ExposureF</text>
</g>
<!-- injected_calexp:0&#45;&gt;forcedPhotCcd:2 -->
<g id="edge4" class="edge"><title>injected_calexp:0&#45;&gt;forcedPhotCcd:2</title>
<path fill="none" stroke="black" stroke-width="1.5" d="M282.314,-358C293.523,-358 300.625,-358 300.625,-358 300.625,-358 300.625,-268.574 300.625,-268.574"/>
<polygon fill="black" stroke="black" points="305.875,-268.574 300.625,-253.574 295.375,-268.574 305.875,-268.574"/>
</g>
<!-- deepCoadd_ref:0 -->
<g id="node4" class="node"><title>deepCoadd_ref:0</title>
<path fill="#f5f5f5" stroke="#00babc" stroke-width="3" d="M910.25,-407.5C910.25,-407.5 659.75,-407.5 659.75,-407.5 653.75,-407.5 647.75,-401.5 647.75,-395.5 647.75,-395.5 647.75,-320.5 647.75,-320.5 647.75,-314.5 653.75,-308.5 659.75,-308.5 659.75,-308.5 910.25,-308.5 910.25,-308.5 916.25,-308.5 922.25,-314.5 922.25,-320.5 922.25,-320.5 922.25,-395.5 922.25,-395.5 922.25,-401.5 916.25,-407.5 910.25,-407.5"/>
<text text-anchor="start" x="669" y="-379.1" font-family="Monospace" font-weight="bold" font-size="18.00">deepCoadd_ref</text>
<text text-anchor="start" x="669" y="-351.8" font-family="Monospace" font-style="italic" font-size="14.00">dimensions:</text>
<text text-anchor="start" x="760" y="-351.8" font-family="Monospace" font-size="14.00"> {patch}</text>
<text text-anchor="start" x="669" y="-325.8" font-family="Monospace" font-style="italic" font-size="14.00">storage class:</text>
<text text-anchor="start" x="785" y="-325.8" font-family="Monospace" font-size="14.00"> SourceCatalog</text>
</g>
<!-- deepCoadd_ref:0&#45;&gt;forcedPhotCcd:2 -->
<g id="edge5" class="edge"><title>deepCoadd_ref:0&#45;&gt;forcedPhotCcd:2</title>
<path fill="none" stroke="black" stroke-width="1.5" d="M665.25,-308.426C665.25,-308.426 665.25,-268.745 665.25,-268.745"/>
<polygon fill="black" stroke="black" points="670.5,-268.745 665.25,-253.745 660,-268.745 670.5,-268.745"/>
</g>
<!-- deepCoadd_ref:0&#45;&gt;forcedPhotDiffim:2 -->
<g id="edge6" class="edge"><title>deepCoadd_ref:0&#45;&gt;forcedPhotDiffim:2</title>
<path fill="none" stroke="black" stroke-width="1.5" d="M884.083,-308.426C884.083,-308.426 884.083,-268.745 884.083,-268.745"/>
<polygon fill="black" stroke="black" points="889.333,-268.745 884.083,-253.745 878.833,-268.745 889.333,-268.745"/>
</g>
<!-- skyMap:0 -->
<g id="node5" class="node"><title>skyMap:0</title>
<path fill="#f5f5f5" stroke="#00babc" stroke-width="3" d="M1163.25,-407.5C1163.25,-407.5 970.75,-407.5 970.75,-407.5 964.75,-407.5 958.75,-401.5 958.75,-395.5 958.75,-395.5 958.75,-320.5 958.75,-320.5 958.75,-314.5 964.75,-308.5 970.75,-308.5 970.75,-308.5 1163.25,-308.5 1163.25,-308.5 1169.25,-308.5 1175.25,-314.5 1175.25,-320.5 1175.25,-320.5 1175.25,-395.5 1175.25,-395.5 1175.25,-401.5 1169.25,-407.5 1163.25,-407.5"/>
<text text-anchor="start" x="980" y="-379.1" font-family="Monospace" font-weight="bold" font-size="18.00">skyMap</text>
<text text-anchor="start" x="980" y="-351.8" font-family="Monospace" font-style="italic" font-size="14.00">dimensions:</text>
<text text-anchor="start" x="1071" y="-351.8" font-family="Monospace" font-size="14.00"> {skymap}</text>
<text text-anchor="start" x="980" y="-325.8" font-family="Monospace" font-style="italic" font-size="14.00">storage class:</text>
<text text-anchor="start" x="1096" y="-325.8" font-family="Monospace" font-size="14.00"> SkyMap</text>
</g>
<!-- skyMap:0&#45;&gt;forcedPhotCcd:2 -->
<g id="edge7" class="edge"><title>skyMap:0&#45;&gt;forcedPhotCcd:2</title>
<path fill="none" stroke="black" stroke-width="1.5" d="M1030.92,-308.223C1030.92,-297.854 1030.92,-290 1030.92,-290 1030.92,-290 682.75,-290 682.75,-290 682.75,-290 682.75,-268.528 682.75,-268.528"/>
<polygon fill="black" stroke="black" points="688,-268.528 682.75,-253.528 677.5,-268.528 688,-268.528"/>
</g>
<!-- skyMap:0&#45;&gt;forcedPhotDiffim:2 -->
<g id="edge8" class="edge"><title>skyMap:0&#45;&gt;forcedPhotDiffim:2</title>
<path fill="none" stroke="black" stroke-width="1.5" d="M1103.08,-308.426C1103.08,-308.426 1103.08,-268.745 1103.08,-268.745"/>
<polygon fill="black" stroke="black" points="1108.33,-268.745 1103.08,-253.745 1097.83,-268.745 1108.33,-268.745"/>
</g>
<!-- transformDiaSourceCat:2 -->
<g id="node7" class="node"><title>transformDiaSourceCat:2</title>
<polygon fill="#b1f2ef" stroke="black" stroke-width="3" points="1978,-253.5 1316,-253.5 1316,-154.5 1978,-154.5 1978,-253.5"/>
<text text-anchor="start" x="1337" y="-225.1" font-family="Monospace" font-weight="bold" font-size="18.00">transformDiaSourceCat</text>
<text text-anchor="start" x="1337" y="-197.8" font-family="Monospace" font-size="14.00">lsst.ap.association.transformDiaSourceCatalog.TransformDiaSourceCatalogTask</text>
<text text-anchor="start" x="1337" y="-171.8" font-family="Monospace" font-style="italic" font-size="14.00">dimensions:</text>
<text text-anchor="start" x="1428" y="-171.8" font-family="Monospace" font-size="14.00"> {detector, visit}</text>
</g>
<!-- deepDiff_diaSrcTable:0 -->
<g id="node10" class="node"><title>deepDiff_diaSrcTable:0</title>
<path fill="#f5f5f5" stroke="#00babc" stroke-width="3" d="M1776.25,-99.5C1776.25,-99.5 1517.75,-99.5 1517.75,-99.5 1511.75,-99.5 1505.75,-93.5 1505.75,-87.5 1505.75,-87.5 1505.75,-12.5 1505.75,-12.5 1505.75,-6.5 1511.75,-0.5 1517.75,-0.5 1517.75,-0.5 1776.25,-0.5 1776.25,-0.5 1782.25,-0.5 1788.25,-6.5 1788.25,-12.5 1788.25,-12.5 1788.25,-87.5 1788.25,-87.5 1788.25,-93.5 1782.25,-99.5 1776.25,-99.5"/>
<text text-anchor="start" x="1527" y="-71.1" font-family="Monospace" font-weight="bold" font-size="18.00">deepDiff_diaSrcTable</text>
<text text-anchor="start" x="1527" y="-43.8" font-family="Monospace" font-style="italic" font-size="14.00">dimensions:</text>
<text text-anchor="start" x="1618" y="-43.8" font-family="Monospace" font-size="14.00"> {detector, visit}</text>
<text text-anchor="start" x="1527" y="-17.8" font-family="Monospace" font-style="italic" font-size="14.00">storage class:</text>
<text text-anchor="start" x="1643" y="-17.8" font-family="Monospace" font-size="14.00"> DataFrame</text>
</g>
<!-- transformDiaSourceCat:2&#45;&gt;deepDiff_diaSrcTable:0 -->
<g id="edge9" class="edge"><title>transformDiaSourceCat:2&#45;&gt;deepDiff_diaSrcTable:0</title>
<path fill="none" stroke="black" stroke-width="1.5" d="M1647,-154.426C1647,-154.426 1647,-114.745 1647,-114.745"/>
<polygon fill="black" stroke="black" points="1652.25,-114.745 1647,-99.7452 1641.75,-114.745 1652.25,-114.745"/>
</g>
<!-- deepDiff_differenceExp:0 -->
<g id="node8" class="node"><title>deepDiff_differenceExp:0</title>
<path fill="#f5f5f5" stroke="#00babc" stroke-width="3" d="M1482.25,-407.5C1482.25,-407.5 1223.75,-407.5 1223.75,-407.5 1217.75,-407.5 1211.75,-401.5 1211.75,-395.5 1211.75,-395.5 1211.75,-320.5 1211.75,-320.5 1211.75,-314.5 1217.75,-308.5 1223.75,-308.5 1223.75,-308.5 1482.25,-308.5 1482.25,-308.5 1488.25,-308.5 1494.25,-314.5 1494.25,-320.5 1494.25,-320.5 1494.25,-395.5 1494.25,-395.5 1494.25,-401.5 1488.25,-407.5 1482.25,-407.5"/>
<text text-anchor="start" x="1233" y="-379.1" font-family="Monospace" font-weight="bold" font-size="18.00">deepDiff_differenceExp</text>
<text text-anchor="start" x="1233" y="-351.8" font-family="Monospace" font-style="italic" font-size="14.00">dimensions:</text>
<text text-anchor="start" x="1324" y="-351.8" font-family="Monospace" font-size="14.00"> {detector, visit}</text>
<text text-anchor="start" x="1233" y="-325.8" font-family="Monospace" font-style="italic" font-size="14.00">storage class:</text>
<text text-anchor="start" x="1349" y="-325.8" font-family="Monospace" font-size="14.00"> ExposureF</text>
</g>
<!-- deepDiff_differenceExp:0&#45;&gt;transformDiaSourceCat:2 -->
<g id="edge10" class="edge"><title>deepDiff_differenceExp:0&#45;&gt;transformDiaSourceCat:2</title>
<path fill="none" stroke="black" stroke-width="1.5" d="M1405.12,-308.426C1405.12,-308.426 1405.12,-268.745 1405.12,-268.745"/>
<polygon fill="black" stroke="black" points="1410.38,-268.745 1405.12,-253.745 1399.88,-268.745 1410.38,-268.745"/>
</g>
<!-- deepDiff_differenceExp:0&#45;&gt;forcedPhotDiffim:2 -->
<g id="edge11" class="edge"><title>deepDiff_differenceExp:0&#45;&gt;forcedPhotDiffim:2</title>
<path fill="none" stroke="black" stroke-width="1.5" d="M1221,-308.426C1221,-308.426 1221,-268.745 1221,-268.745"/>
<polygon fill="black" stroke="black" points="1226.25,-268.745 1221,-253.745 1215.75,-268.745 1226.25,-268.745"/>
</g>
<!-- deepDiff_diaSrc:0 -->
<g id="node9" class="node"><title>deepDiff_diaSrc:0</title>
<path fill="#f5f5f5" stroke="#00babc" stroke-width="3" d="M1801.25,-407.5C1801.25,-407.5 1542.75,-407.5 1542.75,-407.5 1536.75,-407.5 1530.75,-401.5 1530.75,-395.5 1530.75,-395.5 1530.75,-320.5 1530.75,-320.5 1530.75,-314.5 1536.75,-308.5 1542.75,-308.5 1542.75,-308.5 1801.25,-308.5 1801.25,-308.5 1807.25,-308.5 1813.25,-314.5 1813.25,-320.5 1813.25,-320.5 1813.25,-395.5 1813.25,-395.5 1813.25,-401.5 1807.25,-407.5 1801.25,-407.5"/>
<text text-anchor="start" x="1552" y="-379.1" font-family="Monospace" font-weight="bold" font-size="18.00">deepDiff_diaSrc</text>
<text text-anchor="start" x="1552" y="-351.8" font-family="Monospace" font-style="italic" font-size="14.00">dimensions:</text>
<text text-anchor="start" x="1643" y="-351.8" font-family="Monospace" font-size="14.00"> {detector, visit}</text>
<text text-anchor="start" x="1552" y="-325.8" font-family="Monospace" font-style="italic" font-size="14.00">storage class:</text>
<text text-anchor="start" x="1668" y="-325.8" font-family="Monospace" font-size="14.00"> SourceCatalog</text>
</g>
<!-- deepDiff_diaSrc:0&#45;&gt;transformDiaSourceCat:2 -->
<g id="edge12" class="edge"><title>deepDiff_diaSrc:0&#45;&gt;transformDiaSourceCat:2</title>
<path fill="none" stroke="black" stroke-width="1.5" d="M1672,-308.426C1672,-308.426 1672,-268.745 1672,-268.745"/>
<polygon fill="black" stroke="black" points="1677.25,-268.745 1672,-253.745 1666.75,-268.745 1677.25,-268.745"/>
</g>
<!-- forced_diff:0 -->
<g id="node12" class="node"><title>forced_diff:0</title>
<path fill="#f5f5f5" stroke="#00babc" stroke-width="3" d="M1177.25,-99.5C1177.25,-99.5 860.75,-99.5 860.75,-99.5 854.75,-99.5 848.75,-93.5 848.75,-87.5 848.75,-87.5 848.75,-12.5 848.75,-12.5 848.75,-6.5 854.75,-0.5 860.75,-0.5 860.75,-0.5 1177.25,-0.5 1177.25,-0.5 1183.25,-0.5 1189.25,-6.5 1189.25,-12.5 1189.25,-12.5 1189.25,-87.5 1189.25,-87.5 1189.25,-93.5 1183.25,-99.5 1177.25,-99.5"/>
<text text-anchor="start" x="870" y="-71.1" font-family="Monospace" font-weight="bold" font-size="18.00">forced_diff</text>
<text text-anchor="start" x="870" y="-43.8" font-family="Monospace" font-style="italic" font-size="14.00">dimensions:</text>
<text text-anchor="start" x="961" y="-43.8" font-family="Monospace" font-size="14.00"> {detector, tract, visit}</text>
<text text-anchor="start" x="870" y="-17.8" font-family="Monospace" font-style="italic" font-size="14.00">storage class:</text>
<text text-anchor="start" x="986" y="-17.8" font-family="Monospace" font-size="14.00"> SourceCatalog</text>
</g>
<!-- forcedPhotDiffim:2&#45;&gt;forced_diff:0 -->
<g id="edge13" class="edge"><title>forcedPhotDiffim:2&#45;&gt;forced_diff:0</title>
<path fill="none" stroke="black" stroke-width="1.5" d="M1019,-154.426C1019,-154.426 1019,-114.745 1019,-114.745"/>
<polygon fill="black" stroke="black" points="1024.25,-114.745 1019,-99.7452 1013.75,-114.745 1024.25,-114.745"/>
</g>
</g>
</svg>
