<?xml version="1.0" encoding="UTF-8" standalone="no"?>
<!DOCTYPE svg PUBLIC "-//W3C//DTD SVG 1.1//EN"
 "http://www.w3.org/Graphics/SVG/1.1/DTD/svg11.dtd">
<!-- Generated by graphviz version 2.30.1 (20201013.1554)
 -->
<!-- Title: Pipeline Pages: 1 -->
<svg width="855pt" height="446pt"
 viewBox="0.00 0.00 855.00 446.00" xmlns="http://www.w3.org/2000/svg" xmlns:xlink="http://www.w3.org/1999/xlink">
<g id="graph0" class="graph" transform="scale(1 1) rotate(0) translate(4 442)">
<title>Pipeline</title>
<polygon fill="white" stroke="white" points="-4,5 -4,-442 852,-442 852,5 -4,5"/>
<!-- assembleCoadd:2 -->
<g id="node1" class="node"><title>assembleCoadd:2</title>
<polygon fill="#b1f2ef" stroke="black" stroke-width="3" points="697,-253.5 175,-253.5 175,-154.5 697,-154.5 697,-253.5"/>
<text text-anchor="start" x="196" y="-225.1" font-family="Monospace" font-weight="bold" font-size="18.00">assembleCoadd</text>
<text text-anchor="start" x="196" y="-197.8" font-family="Monospace" font-size="14.00">lsst.drp.tasks.assemble_coadd.CompareWarpAssembleCoaddTask</text>
<text text-anchor="start" x="196" y="-171.8" font-family="Monospace" font-style="italic" font-size="14.00">dimensions:</text>
<text text-anchor="start" x="287" y="-171.8" font-family="Monospace" font-size="14.00"> {band, patch}</text>
</g>
<!-- deepCoadd_inputMap:0 -->
<g id="node3" class="node"><title>deepCoadd_inputMap:0</title>
<path fill="#f5f5f5" stroke="#00babc" stroke-width="3" d="M262.25,-99.5C262.25,-99.5 11.75,-99.5 11.75,-99.5 5.75,-99.5 -0.25,-93.5 -0.25,-87.5 -0.25,-87.5 -0.25,-12.5 -0.25,-12.5 -0.25,-6.5 5.75,-0.5 11.75,-0.5 11.75,-0.5 262.25,-0.5 262.25,-0.5 268.25,-0.5 274.25,-6.5 274.25,-12.5 274.25,-12.5 274.25,-87.5 274.25,-87.5 274.25,-93.5 268.25,-99.5 262.25,-99.5"/>
<text text-anchor="start" x="21" y="-71.1" font-family="Monospace" font-weight="bold" font-size="18.00">deepCoadd_inputMap</text>
<text text-anchor="start" x="21" y="-43.8" font-family="Monospace" font-style="italic" font-size="14.00">dimensions:</text>
<text text-anchor="start" x="112" y="-43.8" font-family="Monospace" font-size="14.00"> {band, patch}</text>
<text text-anchor="start" x="21" y="-17.8" font-family="Monospace" font-style="italic" font-size="14.00">storage class:</text>
<text text-anchor="start" x="137" y="-17.8" font-family="Monospace" font-size="14.00"> HealSparseMap</text>
</g>
<!-- assembleCoadd:2&#45;&gt;deepCoadd_inputMap:0 -->
<g id="edge1" class="edge"><title>assembleCoadd:2&#45;&gt;deepCoadd_inputMap:0</title>
<path fill="none" stroke="black" stroke-width="1.5" d="M224.625,-154.426C224.625,-154.426 224.625,-114.745 224.625,-114.745"/>
<polygon fill="black" stroke="black" points="229.875,-114.745 224.625,-99.7452 219.375,-114.745 229.875,-114.745"/>
</g>
<!-- deepCoadd:0 -->
<g id="node4" class="node"><title>deepCoadd:0</title>
<path fill="#f5f5f5" stroke="#00babc" stroke-width="3" d="M549,-99.5C549,-99.5 323,-99.5 323,-99.5 317,-99.5 311,-93.5 311,-87.5 311,-87.5 311,-12.5 311,-12.5 311,-6.5 317,-0.5 323,-0.5 323,-0.5 549,-0.5 549,-0.5 555,-0.5 561,-6.5 561,-12.5 561,-12.5 561,-87.5 561,-87.5 561,-93.5 555,-99.5 549,-99.5"/>
<text text-anchor="start" x="332" y="-71.1" font-family="Monospace" font-weight="bold" font-size="18.00">deepCoadd</text>
<text text-anchor="start" x="332" y="-43.8" font-family="Monospace" font-style="italic" font-size="14.00">dimensions:</text>
<text text-anchor="start" x="423" y="-43.8" font-family="Monospace" font-size="14.00"> {band, patch}</text>
<text text-anchor="start" x="332" y="-17.8" font-family="Monospace" font-style="italic" font-size="14.00">storage class:</text>
<text text-anchor="start" x="448" y="-17.8" font-family="Monospace" font-size="14.00"> ExposureF</text>
</g>
<!-- assembleCoadd:2&#45;&gt;deepCoadd:0 -->
<g id="edge2" class="edge"><title>assembleCoadd:2&#45;&gt;deepCoadd:0</title>
<path fill="none" stroke="black" stroke-width="1.5" d="M436,-154.426C436,-154.426 436,-114.745 436,-114.745"/>
<polygon fill="black" stroke="black" points="441.25,-114.745 436,-99.7452 430.75,-114.745 441.25,-114.745"/>
</g>
<!-- deepCoadd_nImage:0 -->
<g id="node5" class="node"><title>deepCoadd_nImage:0</title>
<path fill="#f5f5f5" stroke="#00babc" stroke-width="3" d="M835,-99.5C835,-99.5 609,-99.5 609,-99.5 603,-99.5 597,-93.5 597,-87.5 597,-87.5 597,-12.5 597,-12.5 597,-6.5 603,-0.5 609,-0.5 609,-0.5 835,-0.5 835,-0.5 841,-0.5 847,-6.5 847,-12.5 847,-12.5 847,-87.5 847,-87.5 847,-93.5 841,-99.5 835,-99.5"/>
<text text-anchor="start" x="618" y="-71.1" font-family="Monospace" font-weight="bold" font-size="18.00">deepCoadd_nImage</text>
<text text-anchor="start" x="618" y="-43.8" font-family="Monospace" font-style="italic" font-size="14.00">dimensions:</text>
<text text-anchor="start" x="709" y="-43.8" font-family="Monospace" font-size="14.00"> {band, patch}</text>
<text text-anchor="start" x="618" y="-17.8" font-family="Monospace" font-style="italic" font-size="14.00">storage class:</text>
<text text-anchor="start" x="734" y="-17.8" font-family="Monospace" font-size="14.00"> ImageU</text>
</g>
<!-- assembleCoadd:2&#45;&gt;deepCoadd_nImage:0 -->
<g id="edge3" class="edge"><title>assembleCoadd:2&#45;&gt;deepCoadd_nImage:0</title>
<path fill="none" stroke="black" stroke-width="1.5" d="M647,-154.426C647,-154.426 647,-114.745 647,-114.745"/>
<polygon fill="black" stroke="black" points="652.25,-114.745 647,-99.7452 641.75,-114.745 652.25,-114.745"/>
</g>
<!-- skyMap:0 -->
<g id="node2" class="node"><title>skyMap:0</title>
<path fill="#f5f5f5" stroke="#00babc" stroke-width="3" d="M386.25,-422.5C386.25,-422.5 193.75,-422.5 193.75,-422.5 187.75,-422.5 181.75,-416.5 181.75,-410.5 181.75,-410.5 181.75,-335.5 181.75,-335.5 181.75,-329.5 187.75,-323.5 193.75,-323.5 193.75,-323.5 386.25,-323.5 386.25,-323.5 392.25,-323.5 398.25,-329.5 398.25,-335.5 398.25,-335.5 398.25,-410.5 398.25,-410.5 398.25,-416.5 392.25,-422.5 386.25,-422.5"/>
<text text-anchor="start" x="203" y="-394.1" font-family="Monospace" font-weight="bold" font-size="18.00">skyMap</text>
<text text-anchor="start" x="203" y="-366.8" font-family="Monospace" font-style="italic" font-size="14.00">dimensions:</text>
<text text-anchor="start" x="294" y="-366.8" font-family="Monospace" font-size="14.00"> {skymap}</text>
<text text-anchor="start" x="203" y="-340.8" font-family="Monospace" font-style="italic" font-size="14.00">storage class:</text>
<text text-anchor="start" x="319" y="-340.8" font-family="Monospace" font-size="14.00"> SkyMap</text>
</g>
<!-- skyMap:0&#45;&gt;assembleCoadd:2 -->
<g id="edge4" class="edge"><title>skyMap:0&#45;&gt;assembleCoadd:2</title>
<path fill="none" stroke="black" stroke-width="1.5" d="M290,-323.208C290,-323.208 290,-268.727 290,-268.727"/>
<polygon fill="black" stroke="black" points="295.25,-268.727 290,-253.727 284.75,-268.727 295.25,-268.727"/>
</g>
<!-- 407c682f:0 -->
<g id="node6" class="node"><title>407c682f:0</title>
<path fill="#f5f5f5" stroke="#00babc" stroke-width="3" d="M719,-437.5C719,-437.5 447,-437.5 447,-437.5 441,-437.5 435,-431.5 435,-425.5 435,-425.5 435,-320.5 435,-320.5 435,-314.5 441,-308.5 447,-308.5 447,-308.5 719,-308.5 719,-308.5 725,-308.5 731,-314.5 731,-320.5 731,-320.5 731,-425.5 731,-425.5 731,-431.5 725,-437.5 719,-437.5"/>
<text text-anchor="start" x="456" y="-409.1" font-family="Monospace" font-weight="bold" font-size="18.00">deepCoadd_psfMatchedWarp</text>
<text text-anchor="start" x="456" y="-378.6" font-family="Monospace" font-weight="bold" font-size="18.00">deepCoadd_directWarp</text>
<text text-anchor="start" x="456" y="-351.8" font-family="Monospace" font-style="italic" font-size="14.00">dimensions:</text>
<text text-anchor="start" x="547" y="-351.8" font-family="Monospace" font-size="14.00"> {patch, visit}</text>
<text text-anchor="start" x="456" y="-325.8" font-family="Monospace" font-style="italic" font-size="14.00">storage class:</text>
<text text-anchor="start" x="572" y="-325.8" font-family="Monospace" font-size="14.00"> ExposureF</text>
</g>
<!-- 407c682f:0&#45;&gt;assembleCoadd:2 -->
<g id="edge5" class="edge"><title>407c682f:0&#45;&gt;assembleCoadd:2</title>
<path fill="none" stroke="black" stroke-width="1.5" d="M566,-308.144C566,-308.144 566,-268.72 566,-268.72"/>
<polygon fill="black" stroke="black" points="571.25,-268.72 566,-253.72 560.75,-268.72 571.25,-268.72"/>
</g>
</g>
</svg>
