<?xml version="1.0" encoding="UTF-8" standalone="no"?>
<!DOCTYPE svg PUBLIC "-//W3C//DTD SVG 1.1//EN"
 "http://www.w3.org/Graphics/SVG/1.1/DTD/svg11.dtd">
<!-- Generated by graphviz version 2.30.1 (20201013.1554)
 -->
<!-- Title: Pipeline Pages: 1 -->
<svg width="496pt" height="416pt"
 viewBox="0.00 0.00 496.00 416.00" xmlns="http://www.w3.org/2000/svg" xmlns:xlink="http://www.w3.org/1999/xlink">
<g id="graph0" class="graph" transform="scale(1 1) rotate(0) translate(4 412)">
<title>Pipeline</title>
<polygon fill="white" stroke="white" points="-4,5 -4,-412 493,-412 493,5 -4,5"/>
<!-- consolidateSourceTable:2 -->
<g id="node1" class="node"><title>consolidateSourceTable:2</title>
<polygon fill="#b1f2ef" stroke="black" stroke-width="3" points="488.25,-253.5 -0.25,-253.5 -0.25,-154.5 488.25,-154.5 488.25,-253.5"/>
<text text-anchor="start" x="21" y="-225.1" font-family="Monospace" font-weight="bold" font-size="18.00">consolidateSourceTable</text>
<text text-anchor="start" x="21" y="-197.8" font-family="Monospace" font-size="14.00">lsst.pipe.tasks.postprocess.ConsolidateSourceTableTask</text>
<text text-anchor="start" x="21" y="-171.8" font-family="Monospace" font-style="italic" font-size="14.00">dimensions:</text>
<text text-anchor="start" x="112" y="-171.8" font-family="Monospace" font-size="14.00"> {visit}</text>
</g>
<!-- injected_sourceTable_visit:0 -->
<g id="node3" class="node"><title>injected_sourceTable_visit:0</title>
<path fill="#f5f5f5" stroke="#00babc" stroke-width="3" d="M390.25,-99.5C390.25,-99.5 97.75,-99.5 97.75,-99.5 91.75,-99.5 85.75,-93.5 85.75,-87.5 85.75,-87.5 85.75,-12.5 85.75,-12.5 85.75,-6.5 91.75,-0.5 97.75,-0.5 97.75,-0.5 390.25,-0.5 390.25,-0.5 396.25,-0.5 402.25,-6.5 402.25,-12.5 402.25,-12.5 402.25,-87.5 402.25,-87.5 402.25,-93.5 396.25,-99.5 390.25,-99.5"/>
<text text-anchor="start" x="107" y="-71.1" font-family="Monospace" font-weight="bold" font-size="18.00">injected_sourceTable_visit</text>
<text text-anchor="start" x="107" y="-43.8" font-family="Monospace" font-style="italic" font-size="14.00">dimensions:</text>
<text text-anchor="start" x="198" y="-43.8" font-family="Monospace" font-size="14.00"> {visit}</text>
<text text-anchor="start" x="107" y="-17.8" font-family="Monospace" font-style="italic" font-size="14.00">storage class:</text>
<text text-anchor="start" x="223" y="-17.8" font-family="Monospace" font-size="14.00"> DataFrame</text>
</g>
<!-- consolidateSourceTable:2&#45;&gt;injected_sourceTable_visit:0 -->
<g id="edge1" class="edge"><title>consolidateSourceTable:2&#45;&gt;injected_sourceTable_visit:0</title>
<path fill="none" stroke="black" stroke-width="1.5" d="M244,-154.426C244,-154.426 244,-114.745 244,-114.745"/>
<polygon fill="black" stroke="black" points="249.25,-114.745 244,-99.7452 238.75,-114.745 249.25,-114.745"/>
</g>
<!-- injected_sourceTable:0 -->
<g id="node2" class="node"><title>injected_sourceTable:0</title>
<path fill="#f5f5f5" stroke="#00babc" stroke-width="3" d="M373.25,-407.5C373.25,-407.5 114.75,-407.5 114.75,-407.5 108.75,-407.5 102.75,-401.5 102.75,-395.5 102.75,-395.5 102.75,-320.5 102.75,-320.5 102.75,-314.5 108.75,-308.5 114.75,-308.5 114.75,-308.5 373.25,-308.5 373.25,-308.5 379.25,-308.5 385.25,-314.5 385.25,-320.5 385.25,-320.5 385.25,-395.5 385.25,-395.5 385.25,-401.5 379.25,-407.5 373.25,-407.5"/>
<text text-anchor="start" x="124" y="-379.1" font-family="Monospace" font-weight="bold" font-size="18.00">injected_sourceTable</text>
<text text-anchor="start" x="124" y="-351.8" font-family="Monospace" font-style="italic" font-size="14.00">dimensions:</text>
<text text-anchor="start" x="215" y="-351.8" font-family="Monospace" font-size="14.00"> {detector, visit}</text>
<text text-anchor="start" x="124" y="-325.8" font-family="Monospace" font-style="italic" font-size="14.00">storage class:</text>
<text text-anchor="start" x="240" y="-325.8" font-family="Monospace" font-size="14.00"> DataFrame</text>
</g>
<!-- injected_sourceTable:0&#45;&gt;consolidateSourceTable:2 -->
<g id="edge2" class="edge"><title>injected_sourceTable:0&#45;&gt;consolidateSourceTable:2</title>
<path fill="none" stroke="black" stroke-width="1.5" d="M244,-308.426C244,-308.426 244,-268.745 244,-268.745"/>
<polygon fill="black" stroke="black" points="249.25,-268.745 244,-253.745 238.75,-268.745 249.25,-268.745"/>
</g>
</g>
</svg>
