<?xml version="1.0" encoding="UTF-8" standalone="no"?>
<!DOCTYPE svg PUBLIC "-//W3C//DTD SVG 1.1//EN"
 "http://www.w3.org/Graphics/SVG/1.1/DTD/svg11.dtd">
<!-- Generated by graphviz version 2.30.1 (20201013.1554)
 -->
<!-- Title: Pipeline Pages: 1 -->
<svg width="2141pt" height="1738pt"
 viewBox="0.00 0.00 2141.00 1738.00" xmlns="http://www.w3.org/2000/svg" xmlns:xlink="http://www.w3.org/1999/xlink">
<g id="graph0" class="graph" transform="scale(1 1) rotate(0) translate(4 1734)">
<title>Pipeline</title>
<polygon fill="white" stroke="white" points="-4,5 -4,-1734 2138,-1734 2138,5 -4,5"/>
<!-- isr:2 -->
<g id="node1" class="node"><title>isr:2</title>
<polygon fill="#b1f2ef" stroke="black" stroke-width="3" points="1138,-1545.5 830,-1545.5 830,-1446.5 1138,-1446.5 1138,-1545.5"/>
<text text-anchor="start" x="851" y="-1517.1" font-family="Monospace" font-weight="bold" font-size="18.00">isr</text>
<text text-anchor="start" x="851" y="-1489.8" font-family="Monospace" font-size="14.00">lsst.ip.isr.isrTask.IsrTask</text>
<text text-anchor="start" x="851" y="-1463.8" font-family="Monospace" font-style="italic" font-size="14.00">dimensions:</text>
<text text-anchor="start" x="942" y="-1463.8" font-family="Monospace" font-size="14.00"> {detector, exposure}</text>
</g>
<!-- postISRCCD:0 -->
<g id="node7" class="node"><title>postISRCCD:0</title>
<path fill="#f5f5f5" stroke="#00babc" stroke-width="3" d="M1126,-1391.5C1126,-1391.5 842,-1391.5 842,-1391.5 836,-1391.5 830,-1385.5 830,-1379.5 830,-1379.5 830,-1304.5 830,-1304.5 830,-1298.5 836,-1292.5 842,-1292.5 842,-1292.5 1126,-1292.5 1126,-1292.5 1132,-1292.5 1138,-1298.5 1138,-1304.5 1138,-1304.5 1138,-1379.5 1138,-1379.5 1138,-1385.5 1132,-1391.5 1126,-1391.5"/>
<text text-anchor="start" x="851" y="-1363.1" font-family="Monospace" font-weight="bold" font-size="18.00">postISRCCD</text>
<text text-anchor="start" x="851" y="-1335.8" font-family="Monospace" font-style="italic" font-size="14.00">dimensions:</text>
<text text-anchor="start" x="942" y="-1335.8" font-family="Monospace" font-size="14.00"> {detector, exposure}</text>
<text text-anchor="start" x="851" y="-1309.8" font-family="Monospace" font-style="italic" font-size="14.00">storage class:</text>
<text text-anchor="start" x="967" y="-1309.8" font-family="Monospace" font-size="14.00"> Exposure</text>
</g>
<!-- isr:2&#45;&gt;postISRCCD:0 -->
<g id="edge1" class="edge"><title>isr:2&#45;&gt;postISRCCD:0</title>
<path fill="none" stroke="black" stroke-width="1.5" d="M984,-1446.43C984,-1446.43 984,-1406.75 984,-1406.75"/>
<polygon fill="black" stroke="black" points="989.25,-1406.75 984,-1391.75 978.75,-1406.75 989.25,-1406.75"/>
</g>
<!-- crosstalk:0 -->
<g id="node2" class="node"><title>crosstalk:0</title>
<path fill="#f5f5f5" stroke="#00babc" stroke-width="3" d="M270.25,-1714.5C270.25,-1714.5 11.75,-1714.5 11.75,-1714.5 5.75,-1714.5 -0.25,-1708.5 -0.25,-1702.5 -0.25,-1702.5 -0.25,-1627.5 -0.25,-1627.5 -0.25,-1621.5 5.75,-1615.5 11.75,-1615.5 11.75,-1615.5 270.25,-1615.5 270.25,-1615.5 276.25,-1615.5 282.25,-1621.5 282.25,-1627.5 282.25,-1627.5 282.25,-1702.5 282.25,-1702.5 282.25,-1708.5 276.25,-1714.5 270.25,-1714.5"/>
<text text-anchor="start" x="21" y="-1686.1" font-family="Monospace" font-weight="bold" font-size="18.00">crosstalk</text>
<text text-anchor="start" x="21" y="-1658.8" font-family="Monospace" font-style="italic" font-size="14.00">dimensions:</text>
<text text-anchor="start" x="112" y="-1658.8" font-family="Monospace" font-size="14.00"> {detector}</text>
<text text-anchor="start" x="21" y="-1632.8" font-family="Monospace" font-style="italic" font-size="14.00">storage class:</text>
<text text-anchor="start" x="137" y="-1632.8" font-family="Monospace" font-size="14.00"> CrosstalkCalib</text>
</g>
<!-- crosstalk:0&#45;&gt;isr:2 -->
<g id="edge2" class="edge"><title>crosstalk:0&#45;&gt;isr:2</title>
<path fill="none" stroke="black" stroke-width="1.5" stroke-dasharray="5,2" d="M184.5,-1615.16C184.5,-1560.06 184.5,-1479 184.5,-1479 184.5,-1479 814.848,-1479 814.848,-1479"/>
<polygon fill="black" stroke="black" points="814.848,-1484.25 829.848,-1479 814.848,-1473.75 814.848,-1484.25"/>
</g>
<!-- defects:0 -->
<g id="node3" class="node"><title>defects:0</title>
<path fill="#f5f5f5" stroke="#00babc" stroke-width="3" d="M533,-1714.5C533,-1714.5 331,-1714.5 331,-1714.5 325,-1714.5 319,-1708.5 319,-1702.5 319,-1702.5 319,-1627.5 319,-1627.5 319,-1621.5 325,-1615.5 331,-1615.5 331,-1615.5 533,-1615.5 533,-1615.5 539,-1615.5 545,-1621.5 545,-1627.5 545,-1627.5 545,-1702.5 545,-1702.5 545,-1708.5 539,-1714.5 533,-1714.5"/>
<text text-anchor="start" x="340" y="-1686.1" font-family="Monospace" font-weight="bold" font-size="18.00">defects</text>
<text text-anchor="start" x="340" y="-1658.8" font-family="Monospace" font-style="italic" font-size="14.00">dimensions:</text>
<text text-anchor="start" x="431" y="-1658.8" font-family="Monospace" font-size="14.00"> {detector}</text>
<text text-anchor="start" x="340" y="-1632.8" font-family="Monospace" font-style="italic" font-size="14.00">storage class:</text>
<text text-anchor="start" x="456" y="-1632.8" font-family="Monospace" font-size="14.00"> Defects</text>
</g>
<!-- defects:0&#45;&gt;isr:2 -->
<g id="edge3" class="edge"><title>defects:0&#45;&gt;isr:2</title>
<path fill="none" stroke="black" stroke-width="1.5" stroke-dasharray="5,2" d="M514.5,-1615.33C514.5,-1570.65 514.5,-1512 514.5,-1512 514.5,-1512 814.943,-1512 814.943,-1512"/>
<polygon fill="black" stroke="black" points="814.943,-1517.25 829.943,-1512 814.943,-1506.75 814.943,-1517.25"/>
</g>
<!-- bias:0 -->
<g id="node4" class="node"><title>bias:0</title>
<path fill="#f5f5f5" stroke="#00babc" stroke-width="3" d="M811,-1714.5C811,-1714.5 593,-1714.5 593,-1714.5 587,-1714.5 581,-1708.5 581,-1702.5 581,-1702.5 581,-1627.5 581,-1627.5 581,-1621.5 587,-1615.5 593,-1615.5 593,-1615.5 811,-1615.5 811,-1615.5 817,-1615.5 823,-1621.5 823,-1627.5 823,-1627.5 823,-1702.5 823,-1702.5 823,-1708.5 817,-1714.5 811,-1714.5"/>
<text text-anchor="start" x="602" y="-1686.1" font-family="Monospace" font-weight="bold" font-size="18.00">bias</text>
<text text-anchor="start" x="602" y="-1658.8" font-family="Monospace" font-style="italic" font-size="14.00">dimensions:</text>
<text text-anchor="start" x="693" y="-1658.8" font-family="Monospace" font-size="14.00"> {detector}</text>
<text text-anchor="start" x="602" y="-1632.8" font-family="Monospace" font-style="italic" font-size="14.00">storage class:</text>
<text text-anchor="start" x="718" y="-1632.8" font-family="Monospace" font-size="14.00"> ExposureF</text>
</g>
<!-- bias:0&#45;&gt;isr:2 -->
<g id="edge4" class="edge"><title>bias:0&#45;&gt;isr:2</title>
<path fill="none" stroke="black" stroke-width="1.5" stroke-dasharray="5,2" d="M823.166,-1665C836.006,-1665 844.5,-1665 844.5,-1665 844.5,-1665 844.5,-1560.79 844.5,-1560.79"/>
<polygon fill="black" stroke="black" points="849.75,-1560.79 844.5,-1545.79 839.25,-1560.79 849.75,-1560.79"/>
</g>
<!-- linearizer:0 -->
<g id="node5" class="node"><title>linearizer:0</title>
<path fill="#f5f5f5" stroke="#00babc" stroke-width="3" d="M1097,-1714.5C1097,-1714.5 871,-1714.5 871,-1714.5 865,-1714.5 859,-1708.5 859,-1702.5 859,-1702.5 859,-1627.5 859,-1627.5 859,-1621.5 865,-1615.5 871,-1615.5 871,-1615.5 1097,-1615.5 1097,-1615.5 1103,-1615.5 1109,-1621.5 1109,-1627.5 1109,-1627.5 1109,-1702.5 1109,-1702.5 1109,-1708.5 1103,-1714.5 1097,-1714.5"/>
<text text-anchor="start" x="880" y="-1686.1" font-family="Monospace" font-weight="bold" font-size="18.00">linearizer</text>
<text text-anchor="start" x="880" y="-1658.8" font-family="Monospace" font-style="italic" font-size="14.00">dimensions:</text>
<text text-anchor="start" x="971" y="-1658.8" font-family="Monospace" font-size="14.00"> {detector}</text>
<text text-anchor="start" x="880" y="-1632.8" font-family="Monospace" font-style="italic" font-size="14.00">storage class:</text>
<text text-anchor="start" x="996" y="-1632.8" font-family="Monospace" font-size="14.00"> Linearizer</text>
</g>
<!-- linearizer:0&#45;&gt;isr:2 -->
<g id="edge5" class="edge"><title>linearizer:0&#45;&gt;isr:2</title>
<path fill="none" stroke="black" stroke-width="1.5" stroke-dasharray="5,2" d="M984,-1615.21C984,-1615.21 984,-1560.73 984,-1560.73"/>
<polygon fill="black" stroke="black" points="989.25,-1560.73 984,-1545.73 978.75,-1560.73 989.25,-1560.73"/>
</g>
<!-- camera:0 -->
<g id="node6" class="node"><title>camera:0</title>
<path fill="#f5f5f5" stroke="#00babc" stroke-width="3" d="M1375,-1714.5C1375,-1714.5 1157,-1714.5 1157,-1714.5 1151,-1714.5 1145,-1708.5 1145,-1702.5 1145,-1702.5 1145,-1627.5 1145,-1627.5 1145,-1621.5 1151,-1615.5 1157,-1615.5 1157,-1615.5 1375,-1615.5 1375,-1615.5 1381,-1615.5 1387,-1621.5 1387,-1627.5 1387,-1627.5 1387,-1702.5 1387,-1702.5 1387,-1708.5 1381,-1714.5 1375,-1714.5"/>
<text text-anchor="start" x="1166" y="-1686.1" font-family="Monospace" font-weight="bold" font-size="18.00">camera</text>
<text text-anchor="start" x="1166" y="-1658.8" font-family="Monospace" font-style="italic" font-size="14.00">dimensions:</text>
<text text-anchor="start" x="1257" y="-1658.8" font-family="Monospace" font-size="14.00"> {instrument}</text>
<text text-anchor="start" x="1166" y="-1632.8" font-family="Monospace" font-style="italic" font-size="14.00">storage class:</text>
<text text-anchor="start" x="1282" y="-1632.8" font-family="Monospace" font-size="14.00"> Camera</text>
</g>
<!-- camera:0&#45;&gt;isr:2 -->
<g id="edge6" class="edge"><title>camera:0&#45;&gt;isr:2</title>
<path fill="none" stroke="black" stroke-width="1.5" stroke-dasharray="5,2" d="M1144.67,-1665C1129.22,-1665 1118.67,-1665 1118.67,-1665 1118.67,-1665 1118.67,-1560.79 1118.67,-1560.79"/>
<polygon fill="black" stroke="black" points="1123.92,-1560.79 1118.67,-1545.79 1113.42,-1560.79 1123.92,-1560.79"/>
</g>
<!-- characterizeImage:2 -->
<g id="node8" class="node"><title>characterizeImage:2</title>
<polygon fill="#b1f2ef" stroke="black" stroke-width="3" points="1406.25,-1237.5 909.75,-1237.5 909.75,-1138.5 1406.25,-1138.5 1406.25,-1237.5"/>
<text text-anchor="start" x="931" y="-1209.1" font-family="Monospace" font-weight="bold" font-size="18.00">characterizeImage</text>
<text text-anchor="start" x="931" y="-1181.8" font-family="Monospace" font-size="14.00">lsst.pipe.tasks.characterizeImage.CharacterizeImageTask</text>
<text text-anchor="start" x="931" y="-1155.8" font-family="Monospace" font-style="italic" font-size="14.00">dimensions:</text>
<text text-anchor="start" x="1022" y="-1155.8" font-family="Monospace" font-size="14.00"> {detector, visit}</text>
</g>
<!-- postISRCCD:0&#45;&gt;characterizeImage:2 -->
<g id="edge7" class="edge"><title>postISRCCD:0&#45;&gt;characterizeImage:2</title>
<path fill="none" stroke="black" stroke-width="1.5" d="M1023.88,-1292.43C1023.88,-1292.43 1023.88,-1252.75 1023.88,-1252.75"/>
<polygon fill="black" stroke="black" points="1029.13,-1252.75 1023.88,-1237.75 1018.63,-1252.75 1029.13,-1252.75"/>
</g>
<!-- applySuspect:2 -->
<g id="node20" class="node"><title>applySuspect:2</title>
<polygon fill="#b1f2ef" stroke="black" stroke-width="3" points="784,-1237.5 410,-1237.5 410,-1138.5 784,-1138.5 784,-1237.5"/>
<text text-anchor="start" x="431" y="-1209.1" font-family="Monospace" font-weight="bold" font-size="18.00">applySuspect</text>
<text text-anchor="start" x="431" y="-1181.8" font-family="Monospace" font-size="14.00">deep.tasks.applyDefects.ApplyDefectsTask</text>
<text text-anchor="start" x="431" y="-1155.8" font-family="Monospace" font-style="italic" font-size="14.00">dimensions:</text>
<text text-anchor="start" x="522" y="-1155.8" font-family="Monospace" font-size="14.00"> {detector, exposure}</text>
</g>
<!-- postISRCCD:0&#45;&gt;applySuspect:2 -->
<g id="edge8" class="edge"><title>postISRCCD:0&#45;&gt;applySuspect:2</title>
<path fill="none" stroke="black" stroke-width="1.5" d="M829.891,-1342C784.624,-1342 747,-1342 747,-1342 747,-1342 747,-1252.57 747,-1252.57"/>
<polygon fill="black" stroke="black" points="752.25,-1252.57 747,-1237.57 741.75,-1252.57 752.25,-1252.57"/>
</g>
<!-- icSrc:0 -->
<g id="node9" class="node"><title>icSrc:0</title>
<path fill="#f5f5f5" stroke="#00babc" stroke-width="3" d="M1013.25,-1068.5C1013.25,-1068.5 754.75,-1068.5 754.75,-1068.5 748.75,-1068.5 742.75,-1062.5 742.75,-1056.5 742.75,-1056.5 742.75,-981.5 742.75,-981.5 742.75,-975.5 748.75,-969.5 754.75,-969.5 754.75,-969.5 1013.25,-969.5 1013.25,-969.5 1019.25,-969.5 1025.25,-975.5 1025.25,-981.5 1025.25,-981.5 1025.25,-1056.5 1025.25,-1056.5 1025.25,-1062.5 1019.25,-1068.5 1013.25,-1068.5"/>
<text text-anchor="start" x="764" y="-1040.1" font-family="Monospace" font-weight="bold" font-size="18.00">icSrc</text>
<text text-anchor="start" x="764" y="-1012.8" font-family="Monospace" font-style="italic" font-size="14.00">dimensions:</text>
<text text-anchor="start" x="855" y="-1012.8" font-family="Monospace" font-size="14.00"> {detector, visit}</text>
<text text-anchor="start" x="764" y="-986.8" font-family="Monospace" font-style="italic" font-size="14.00">storage class:</text>
<text text-anchor="start" x="880" y="-986.8" font-family="Monospace" font-size="14.00"> SourceCatalog</text>
</g>
<!-- characterizeImage:2&#45;&gt;icSrc:0 -->
<g id="edge9" class="edge"><title>characterizeImage:2&#45;&gt;icSrc:0</title>
<path fill="none" stroke="black" stroke-width="1.5" d="M967.5,-1138.21C967.5,-1138.21 967.5,-1083.73 967.5,-1083.73"/>
<polygon fill="black" stroke="black" points="972.75,-1083.73 967.5,-1068.73 962.25,-1083.73 972.75,-1083.73"/>
</g>
<!-- icExp:0 -->
<g id="node10" class="node"><title>icExp:0</title>
<path fill="#f5f5f5" stroke="#00babc" stroke-width="3" d="M1332.25,-1068.5C1332.25,-1068.5 1073.75,-1068.5 1073.75,-1068.5 1067.75,-1068.5 1061.75,-1062.5 1061.75,-1056.5 1061.75,-1056.5 1061.75,-981.5 1061.75,-981.5 1061.75,-975.5 1067.75,-969.5 1073.75,-969.5 1073.75,-969.5 1332.25,-969.5 1332.25,-969.5 1338.25,-969.5 1344.25,-975.5 1344.25,-981.5 1344.25,-981.5 1344.25,-1056.5 1344.25,-1056.5 1344.25,-1062.5 1338.25,-1068.5 1332.25,-1068.5"/>
<text text-anchor="start" x="1083" y="-1040.1" font-family="Monospace" font-weight="bold" font-size="18.00">icExp</text>
<text text-anchor="start" x="1083" y="-1012.8" font-family="Monospace" font-style="italic" font-size="14.00">dimensions:</text>
<text text-anchor="start" x="1174" y="-1012.8" font-family="Monospace" font-size="14.00"> {detector, visit}</text>
<text text-anchor="start" x="1083" y="-986.8" font-family="Monospace" font-style="italic" font-size="14.00">storage class:</text>
<text text-anchor="start" x="1199" y="-986.8" font-family="Monospace" font-size="14.00"> ExposureF</text>
</g>
<!-- characterizeImage:2&#45;&gt;icExp:0 -->
<g id="edge10" class="edge"><title>characterizeImage:2&#45;&gt;icExp:0</title>
<path fill="none" stroke="black" stroke-width="1.5" d="M1203,-1138.21C1203,-1138.21 1203,-1083.73 1203,-1083.73"/>
<polygon fill="black" stroke="black" points="1208.25,-1083.73 1203,-1068.73 1197.75,-1083.73 1208.25,-1083.73"/>
</g>
<!-- icExpBackground:0 -->
<g id="node11" class="node"><title>icExpBackground:0</title>
<path fill="#f5f5f5" stroke="#00babc" stroke-width="3" d="M1651.25,-1068.5C1651.25,-1068.5 1392.75,-1068.5 1392.75,-1068.5 1386.75,-1068.5 1380.75,-1062.5 1380.75,-1056.5 1380.75,-1056.5 1380.75,-981.5 1380.75,-981.5 1380.75,-975.5 1386.75,-969.5 1392.75,-969.5 1392.75,-969.5 1651.25,-969.5 1651.25,-969.5 1657.25,-969.5 1663.25,-975.5 1663.25,-981.5 1663.25,-981.5 1663.25,-1056.5 1663.25,-1056.5 1663.25,-1062.5 1657.25,-1068.5 1651.25,-1068.5"/>
<text text-anchor="start" x="1402" y="-1040.1" font-family="Monospace" font-weight="bold" font-size="18.00">icExpBackground</text>
<text text-anchor="start" x="1402" y="-1012.8" font-family="Monospace" font-style="italic" font-size="14.00">dimensions:</text>
<text text-anchor="start" x="1493" y="-1012.8" font-family="Monospace" font-size="14.00"> {detector, visit}</text>
<text text-anchor="start" x="1402" y="-986.8" font-family="Monospace" font-style="italic" font-size="14.00">storage class:</text>
<text text-anchor="start" x="1518" y="-986.8" font-family="Monospace" font-size="14.00"> Background</text>
</g>
<!-- characterizeImage:2&#45;&gt;icExpBackground:0 -->
<g id="edge11" class="edge"><title>characterizeImage:2&#45;&gt;icExpBackground:0</title>
<path fill="none" stroke="black" stroke-width="1.5" d="M1393.5,-1138.21C1393.5,-1138.21 1393.5,-1083.73 1393.5,-1083.73"/>
<polygon fill="black" stroke="black" points="1398.75,-1083.73 1393.5,-1068.73 1388.25,-1083.73 1398.75,-1083.73"/>
</g>
<!-- calibrate:2 -->
<g id="node12" class="node"><title>calibrate:2</title>
<polygon fill="#b1f2ef" stroke="black" stroke-width="3" points="1225.25,-899.5 860.75,-899.5 860.75,-800.5 1225.25,-800.5 1225.25,-899.5"/>
<text text-anchor="start" x="882" y="-871.1" font-family="Monospace" font-weight="bold" font-size="18.00">calibrate</text>
<text text-anchor="start" x="882" y="-843.8" font-family="Monospace" font-size="14.00">lsst.pipe.tasks.calibrate.CalibrateTask</text>
<text text-anchor="start" x="882" y="-817.8" font-family="Monospace" font-style="italic" font-size="14.00">dimensions:</text>
<text text-anchor="start" x="973" y="-817.8" font-family="Monospace" font-size="14.00"> {detector, visit}</text>
</g>
<!-- icSrc:0&#45;&gt;calibrate:2 -->
<g id="edge12" class="edge"><title>icSrc:0&#45;&gt;calibrate:2</title>
<path fill="none" stroke="black" stroke-width="1.5" d="M970.417,-969.208C970.417,-969.208 970.417,-914.727 970.417,-914.727"/>
<polygon fill="black" stroke="black" points="975.667,-914.727 970.417,-899.727 965.167,-914.727 975.667,-914.727"/>
</g>
<!-- icExp:0&#45;&gt;calibrate:2 -->
<g id="edge13" class="edge"><title>icExp:0&#45;&gt;calibrate:2</title>
<path fill="none" stroke="black" stroke-width="1.5" d="M1143.5,-969.208C1143.5,-969.208 1143.5,-914.727 1143.5,-914.727"/>
<polygon fill="black" stroke="black" points="1148.75,-914.727 1143.5,-899.727 1138.25,-914.727 1148.75,-914.727"/>
</g>
<!-- icExpBackground:0&#45;&gt;calibrate:2 -->
<g id="edge14" class="edge"><title>icExpBackground:0&#45;&gt;calibrate:2</title>
<path fill="none" stroke="black" stroke-width="1.5" d="M1522,-969.208C1522,-919.358 1522,-850 1522,-850 1522,-850 1240.46,-850 1240.46,-850"/>
<polygon fill="black" stroke="black" points="1240.46,-844.75 1225.46,-850 1240.46,-855.25 1240.46,-844.75"/>
</g>
<!-- calexpBackground:0 -->
<g id="node13" class="node"><title>calexpBackground:0</title>
<path fill="#f5f5f5" stroke="#00babc" stroke-width="3" d="M694.25,-730.5C694.25,-730.5 435.75,-730.5 435.75,-730.5 429.75,-730.5 423.75,-724.5 423.75,-718.5 423.75,-718.5 423.75,-643.5 423.75,-643.5 423.75,-637.5 429.75,-631.5 435.75,-631.5 435.75,-631.5 694.25,-631.5 694.25,-631.5 700.25,-631.5 706.25,-637.5 706.25,-643.5 706.25,-643.5 706.25,-718.5 706.25,-718.5 706.25,-724.5 700.25,-730.5 694.25,-730.5"/>
<text text-anchor="start" x="445" y="-702.1" font-family="Monospace" font-weight="bold" font-size="18.00">calexpBackground</text>
<text text-anchor="start" x="445" y="-674.8" font-family="Monospace" font-style="italic" font-size="14.00">dimensions:</text>
<text text-anchor="start" x="536" y="-674.8" font-family="Monospace" font-size="14.00"> {detector, visit}</text>
<text text-anchor="start" x="445" y="-648.8" font-family="Monospace" font-style="italic" font-size="14.00">storage class:</text>
<text text-anchor="start" x="561" y="-648.8" font-family="Monospace" font-size="14.00"> Background</text>
</g>
<!-- calibrate:2&#45;&gt;calexpBackground:0 -->
<g id="edge15" class="edge"><title>calibrate:2&#45;&gt;calexpBackground:0</title>
<path fill="none" stroke="black" stroke-width="1.5" d="M860.536,-850C725.489,-850 564.875,-850 564.875,-850 564.875,-850 564.875,-745.792 564.875,-745.792"/>
<polygon fill="black" stroke="black" points="570.125,-745.791 564.875,-730.792 559.625,-745.792 570.125,-745.791"/>
</g>
<!-- calexp:0 -->
<g id="node14" class="node"><title>calexp:0</title>
<path fill="#f5f5f5" stroke="#00babc" stroke-width="3" d="M1013.25,-730.5C1013.25,-730.5 754.75,-730.5 754.75,-730.5 748.75,-730.5 742.75,-724.5 742.75,-718.5 742.75,-718.5 742.75,-643.5 742.75,-643.5 742.75,-637.5 748.75,-631.5 754.75,-631.5 754.75,-631.5 1013.25,-631.5 1013.25,-631.5 1019.25,-631.5 1025.25,-637.5 1025.25,-643.5 1025.25,-643.5 1025.25,-718.5 1025.25,-718.5 1025.25,-724.5 1019.25,-730.5 1013.25,-730.5"/>
<text text-anchor="start" x="764" y="-702.1" font-family="Monospace" font-weight="bold" font-size="18.00">calexp</text>
<text text-anchor="start" x="764" y="-674.8" font-family="Monospace" font-style="italic" font-size="14.00">dimensions:</text>
<text text-anchor="start" x="855" y="-674.8" font-family="Monospace" font-size="14.00"> {detector, visit}</text>
<text text-anchor="start" x="764" y="-648.8" font-family="Monospace" font-style="italic" font-size="14.00">storage class:</text>
<text text-anchor="start" x="880" y="-648.8" font-family="Monospace" font-size="14.00"> ExposureF</text>
</g>
<!-- calibrate:2&#45;&gt;calexp:0 -->
<g id="edge16" class="edge"><title>calibrate:2&#45;&gt;calexp:0</title>
<path fill="none" stroke="black" stroke-width="1.5" d="M943,-800.208C943,-800.208 943,-745.727 943,-745.727"/>
<polygon fill="black" stroke="black" points="948.25,-745.727 943,-730.727 937.75,-745.727 948.25,-745.727"/>
</g>
<!-- src:0 -->
<g id="node15" class="node"><title>src:0</title>
<path fill="#f5f5f5" stroke="#00babc" stroke-width="3" d="M1332.25,-730.5C1332.25,-730.5 1073.75,-730.5 1073.75,-730.5 1067.75,-730.5 1061.75,-724.5 1061.75,-718.5 1061.75,-718.5 1061.75,-643.5 1061.75,-643.5 1061.75,-637.5 1067.75,-631.5 1073.75,-631.5 1073.75,-631.5 1332.25,-631.5 1332.25,-631.5 1338.25,-631.5 1344.25,-637.5 1344.25,-643.5 1344.25,-643.5 1344.25,-718.5 1344.25,-718.5 1344.25,-724.5 1338.25,-730.5 1332.25,-730.5"/>
<text text-anchor="start" x="1083" y="-702.1" font-family="Monospace" font-weight="bold" font-size="18.00">src</text>
<text text-anchor="start" x="1083" y="-674.8" font-family="Monospace" font-style="italic" font-size="14.00">dimensions:</text>
<text text-anchor="start" x="1174" y="-674.8" font-family="Monospace" font-size="14.00"> {detector, visit}</text>
<text text-anchor="start" x="1083" y="-648.8" font-family="Monospace" font-style="italic" font-size="14.00">storage class:</text>
<text text-anchor="start" x="1199" y="-648.8" font-family="Monospace" font-size="14.00"> SourceCatalog</text>
</g>
<!-- calibrate:2&#45;&gt;src:0 -->
<g id="edge17" class="edge"><title>calibrate:2&#45;&gt;src:0</title>
<path fill="none" stroke="black" stroke-width="1.5" d="M1116.25,-800.208C1116.25,-800.208 1116.25,-745.727 1116.25,-745.727"/>
<polygon fill="black" stroke="black" points="1121.5,-745.727 1116.25,-730.727 1111,-745.727 1121.5,-745.727"/>
</g>
<!-- 45e3f18b:0 -->
<g id="node26" class="node"><title>45e3f18b:0</title>
<path fill="#f5f5f5" stroke="#00babc" stroke-width="3" d="M1651.25,-745.5C1651.25,-745.5 1392.75,-745.5 1392.75,-745.5 1386.75,-745.5 1380.75,-739.5 1380.75,-733.5 1380.75,-733.5 1380.75,-628.5 1380.75,-628.5 1380.75,-622.5 1386.75,-616.5 1392.75,-616.5 1392.75,-616.5 1651.25,-616.5 1651.25,-616.5 1657.25,-616.5 1663.25,-622.5 1663.25,-628.5 1663.25,-628.5 1663.25,-733.5 1663.25,-733.5 1663.25,-739.5 1657.25,-745.5 1651.25,-745.5"/>
<text text-anchor="start" x="1402" y="-717.1" font-family="Monospace" font-weight="bold" font-size="18.00">srcMatchFull</text>
<text text-anchor="start" x="1402" y="-686.6" font-family="Monospace" font-weight="bold" font-size="18.00">srcMatch</text>
<text text-anchor="start" x="1402" y="-659.8" font-family="Monospace" font-style="italic" font-size="14.00">dimensions:</text>
<text text-anchor="start" x="1493" y="-659.8" font-family="Monospace" font-size="14.00"> {detector, visit}</text>
<text text-anchor="start" x="1402" y="-633.8" font-family="Monospace" font-style="italic" font-size="14.00">storage class:</text>
<text text-anchor="start" x="1518" y="-633.8" font-family="Monospace" font-size="14.00"> Catalog</text>
</g>
<!-- calibrate:2&#45;&gt;45e3f18b:0 -->
<g id="edge18" class="edge"><title>calibrate:2&#45;&gt;45e3f18b:0</title>
<path fill="none" stroke="black" stroke-width="1.5" d="M1170.75,-800.223C1170.75,-770.31 1170.75,-738 1170.75,-738 1170.75,-738 1365.65,-738 1365.65,-738"/>
<polygon fill="black" stroke="black" points="1365.65,-743.25 1380.65,-738 1365.65,-732.75 1365.65,-743.25"/>
</g>
<!-- writePreSourceTable:2 -->
<g id="node16" class="node"><title>writePreSourceTable:2</title>
<polygon fill="#b1f2ef" stroke="black" stroke-width="3" points="1423,-561.5 983,-561.5 983,-462.5 1423,-462.5 1423,-561.5"/>
<text text-anchor="start" x="1004" y="-533.1" font-family="Monospace" font-weight="bold" font-size="18.00">writePreSourceTable</text>
<text text-anchor="start" x="1004" y="-505.8" font-family="Monospace" font-size="14.00">lsst.pipe.tasks.postprocess.WriteSourceTableTask</text>
<text text-anchor="start" x="1004" y="-479.8" font-family="Monospace" font-style="italic" font-size="14.00">dimensions:</text>
<text text-anchor="start" x="1095" y="-479.8" font-family="Monospace" font-size="14.00"> {detector, visit}</text>
</g>
<!-- src:0&#45;&gt;writePreSourceTable:2 -->
<g id="edge19" class="edge"><title>src:0&#45;&gt;writePreSourceTable:2</title>
<path fill="none" stroke="black" stroke-width="1.5" d="M1203,-631.208C1203,-631.208 1203,-576.727 1203,-576.727"/>
<polygon fill="black" stroke="black" points="1208.25,-576.727 1203,-561.727 1197.75,-576.727 1208.25,-576.727"/>
</g>
<!-- preSource:0 -->
<g id="node17" class="node"><title>preSource:0</title>
<path fill="#f5f5f5" stroke="#00babc" stroke-width="3" d="M1332.25,-407.5C1332.25,-407.5 1073.75,-407.5 1073.75,-407.5 1067.75,-407.5 1061.75,-401.5 1061.75,-395.5 1061.75,-395.5 1061.75,-320.5 1061.75,-320.5 1061.75,-314.5 1067.75,-308.5 1073.75,-308.5 1073.75,-308.5 1332.25,-308.5 1332.25,-308.5 1338.25,-308.5 1344.25,-314.5 1344.25,-320.5 1344.25,-320.5 1344.25,-395.5 1344.25,-395.5 1344.25,-401.5 1338.25,-407.5 1332.25,-407.5"/>
<text text-anchor="start" x="1083" y="-379.1" font-family="Monospace" font-weight="bold" font-size="18.00">preSource</text>
<text text-anchor="start" x="1083" y="-351.8" font-family="Monospace" font-style="italic" font-size="14.00">dimensions:</text>
<text text-anchor="start" x="1174" y="-351.8" font-family="Monospace" font-size="14.00"> {detector, visit}</text>
<text text-anchor="start" x="1083" y="-325.8" font-family="Monospace" font-style="italic" font-size="14.00">storage class:</text>
<text text-anchor="start" x="1199" y="-325.8" font-family="Monospace" font-size="14.00"> DataFrame</text>
</g>
<!-- writePreSourceTable:2&#45;&gt;preSource:0 -->
<g id="edge20" class="edge"><title>writePreSourceTable:2&#45;&gt;preSource:0</title>
<path fill="none" stroke="black" stroke-width="1.5" d="M1203,-462.426C1203,-462.426 1203,-422.745 1203,-422.745"/>
<polygon fill="black" stroke="black" points="1208.25,-422.745 1203,-407.745 1197.75,-422.745 1208.25,-422.745"/>
</g>
<!-- transformPreSourceTable:2 -->
<g id="node18" class="node"><title>transformPreSourceTable:2</title>
<polygon fill="#b1f2ef" stroke="black" stroke-width="3" points="1439.25,-253.5 966.75,-253.5 966.75,-154.5 1439.25,-154.5 1439.25,-253.5"/>
<text text-anchor="start" x="988" y="-225.1" font-family="Monospace" font-weight="bold" font-size="18.00">transformPreSourceTable</text>
<text text-anchor="start" x="988" y="-197.8" font-family="Monospace" font-size="14.00">lsst.pipe.tasks.postprocess.TransformSourceTableTask</text>
<text text-anchor="start" x="988" y="-171.8" font-family="Monospace" font-style="italic" font-size="14.00">dimensions:</text>
<text text-anchor="start" x="1079" y="-171.8" font-family="Monospace" font-size="14.00"> {detector, visit}</text>
</g>
<!-- preSource:0&#45;&gt;transformPreSourceTable:2 -->
<g id="edge21" class="edge"><title>preSource:0&#45;&gt;transformPreSourceTable:2</title>
<path fill="none" stroke="black" stroke-width="1.5" d="M1203,-308.426C1203,-308.426 1203,-268.745 1203,-268.745"/>
<polygon fill="black" stroke="black" points="1208.25,-268.745 1203,-253.745 1197.75,-268.745 1208.25,-268.745"/>
</g>
<!-- preSourceTable:0 -->
<g id="node19" class="node"><title>preSourceTable:0</title>
<path fill="#f5f5f5" stroke="#00babc" stroke-width="3" d="M1332.25,-99.5C1332.25,-99.5 1073.75,-99.5 1073.75,-99.5 1067.75,-99.5 1061.75,-93.5 1061.75,-87.5 1061.75,-87.5 1061.75,-12.5 1061.75,-12.5 1061.75,-6.5 1067.75,-0.5 1073.75,-0.5 1073.75,-0.5 1332.25,-0.5 1332.25,-0.5 1338.25,-0.5 1344.25,-6.5 1344.25,-12.5 1344.25,-12.5 1344.25,-87.5 1344.25,-87.5 1344.25,-93.5 1338.25,-99.5 1332.25,-99.5"/>
<text text-anchor="start" x="1083" y="-71.1" font-family="Monospace" font-weight="bold" font-size="18.00">preSourceTable</text>
<text text-anchor="start" x="1083" y="-43.8" font-family="Monospace" font-style="italic" font-size="14.00">dimensions:</text>
<text text-anchor="start" x="1174" y="-43.8" font-family="Monospace" font-size="14.00"> {detector, visit}</text>
<text text-anchor="start" x="1083" y="-17.8" font-family="Monospace" font-style="italic" font-size="14.00">storage class:</text>
<text text-anchor="start" x="1199" y="-17.8" font-family="Monospace" font-size="14.00"> DataFrame</text>
</g>
<!-- transformPreSourceTable:2&#45;&gt;preSourceTable:0 -->
<g id="edge22" class="edge"><title>transformPreSourceTable:2&#45;&gt;preSourceTable:0</title>
<path fill="none" stroke="black" stroke-width="1.5" d="M1203,-154.426C1203,-154.426 1203,-114.745 1203,-114.745"/>
<polygon fill="black" stroke="black" points="1208.25,-114.745 1203,-99.7452 1197.75,-114.745 1208.25,-114.745"/>
</g>
<!-- postISRCCD_masked:0 -->
<g id="node22" class="node"><title>postISRCCD_masked:0</title>
<path fill="#f5f5f5" stroke="#00babc" stroke-width="3" d="M694,-1068.5C694,-1068.5 410,-1068.5 410,-1068.5 404,-1068.5 398,-1062.5 398,-1056.5 398,-1056.5 398,-981.5 398,-981.5 398,-975.5 404,-969.5 410,-969.5 410,-969.5 694,-969.5 694,-969.5 700,-969.5 706,-975.5 706,-981.5 706,-981.5 706,-1056.5 706,-1056.5 706,-1062.5 700,-1068.5 694,-1068.5"/>
<text text-anchor="start" x="419" y="-1040.1" font-family="Monospace" font-weight="bold" font-size="18.00">postISRCCD_masked</text>
<text text-anchor="start" x="419" y="-1012.8" font-family="Monospace" font-style="italic" font-size="14.00">dimensions:</text>
<text text-anchor="start" x="510" y="-1012.8" font-family="Monospace" font-size="14.00"> {detector, exposure}</text>
<text text-anchor="start" x="419" y="-986.8" font-family="Monospace" font-style="italic" font-size="14.00">storage class:</text>
<text text-anchor="start" x="535" y="-986.8" font-family="Monospace" font-size="14.00"> Exposure</text>
</g>
<!-- applySuspect:2&#45;&gt;postISRCCD_masked:0 -->
<g id="edge23" class="edge"><title>applySuspect:2&#45;&gt;postISRCCD_masked:0</title>
<path fill="none" stroke="black" stroke-width="1.5" d="M558,-1138.21C558,-1138.21 558,-1083.73 558,-1083.73"/>
<polygon fill="black" stroke="black" points="563.25,-1083.73 558,-1068.73 552.75,-1083.73 563.25,-1083.73"/>
</g>
<!-- suspectMask:0 -->
<g id="node21" class="node"><title>suspectMask:0</title>
<path fill="#f5f5f5" stroke="#00babc" stroke-width="3" d="M698,-1391.5C698,-1391.5 496,-1391.5 496,-1391.5 490,-1391.5 484,-1385.5 484,-1379.5 484,-1379.5 484,-1304.5 484,-1304.5 484,-1298.5 490,-1292.5 496,-1292.5 496,-1292.5 698,-1292.5 698,-1292.5 704,-1292.5 710,-1298.5 710,-1304.5 710,-1304.5 710,-1379.5 710,-1379.5 710,-1385.5 704,-1391.5 698,-1391.5"/>
<text text-anchor="start" x="505" y="-1363.1" font-family="Monospace" font-weight="bold" font-size="18.00">suspectMask</text>
<text text-anchor="start" x="505" y="-1335.8" font-family="Monospace" font-style="italic" font-size="14.00">dimensions:</text>
<text text-anchor="start" x="596" y="-1335.8" font-family="Monospace" font-size="14.00"> {detector}</text>
<text text-anchor="start" x="505" y="-1309.8" font-family="Monospace" font-style="italic" font-size="14.00">storage class:</text>
<text text-anchor="start" x="621" y="-1309.8" font-family="Monospace" font-size="14.00"> Defects</text>
</g>
<!-- suspectMask:0&#45;&gt;applySuspect:2 -->
<g id="edge24" class="edge"><title>suspectMask:0&#45;&gt;applySuspect:2</title>
<path fill="none" stroke="black" stroke-width="1.5" stroke-dasharray="5,2" d="M597,-1292.43C597,-1292.43 597,-1252.75 597,-1252.75"/>
<polygon fill="black" stroke="black" points="602.25,-1252.75 597,-1237.75 591.75,-1252.75 602.25,-1252.75"/>
</g>
<!-- d28a74d6:0 -->
<g id="node23" class="node"><title>d28a74d6:0</title>
<path fill="#f5f5f5" stroke="#00babc" stroke-width="3" d="M1777,-1729.5C1777,-1729.5 1435,-1729.5 1435,-1729.5 1429,-1729.5 1423,-1723.5 1423,-1717.5 1423,-1717.5 1423,-1612.5 1423,-1612.5 1423,-1606.5 1429,-1600.5 1435,-1600.5 1435,-1600.5 1777,-1600.5 1777,-1600.5 1783,-1600.5 1789,-1606.5 1789,-1612.5 1789,-1612.5 1789,-1717.5 1789,-1717.5 1789,-1723.5 1783,-1729.5 1777,-1729.5"/>
<text text-anchor="start" x="1444" y="-1701.1" font-family="Monospace" font-weight="bold" font-size="18.00">fringe</text>
<text text-anchor="start" x="1444" y="-1670.6" font-family="Monospace" font-weight="bold" font-size="18.00">flat</text>
<text text-anchor="start" x="1444" y="-1643.8" font-family="Monospace" font-style="italic" font-size="14.00">dimensions:</text>
<text text-anchor="start" x="1535" y="-1643.8" font-family="Monospace" font-size="14.00"> {detector, physical_filter}</text>
<text text-anchor="start" x="1444" y="-1617.8" font-family="Monospace" font-style="italic" font-size="14.00">storage class:</text>
<text text-anchor="start" x="1560" y="-1617.8" font-family="Monospace" font-size="14.00"> ExposureF</text>
</g>
<!-- d28a74d6:0&#45;&gt;isr:2 -->
<g id="edge25" class="edge"><title>d28a74d6:0&#45;&gt;isr:2</title>
<path fill="none" stroke="black" stroke-width="1.5" d="M1422.69,-1608C1287.98,-1608 1128.33,-1608 1128.33,-1608 1128.33,-1608 1128.33,-1560.78 1128.33,-1560.78"/>
<polygon fill="black" stroke="black" points="1133.58,-1560.78 1128.33,-1545.78 1123.08,-1560.78 1133.58,-1560.78"/>
</g>
<!-- 998e6c26:0 -->
<g id="node24" class="node"><title>998e6c26:0</title>
<path fill="#f5f5f5" stroke="#00babc" stroke-width="3" d="M2121,-1729.5C2121,-1729.5 1837,-1729.5 1837,-1729.5 1831,-1729.5 1825,-1723.5 1825,-1717.5 1825,-1717.5 1825,-1612.5 1825,-1612.5 1825,-1606.5 1831,-1600.5 1837,-1600.5 1837,-1600.5 2121,-1600.5 2121,-1600.5 2127,-1600.5 2133,-1606.5 2133,-1612.5 2133,-1612.5 2133,-1717.5 2133,-1717.5 2133,-1723.5 2127,-1729.5 2121,-1729.5"/>
<text text-anchor="start" x="1846" y="-1701.1" font-family="Monospace" font-weight="bold" font-size="18.00">raw</text>
<text text-anchor="start" x="1846" y="-1670.6" font-family="Monospace" font-weight="bold" font-size="18.00">overscanRaw</text>
<text text-anchor="start" x="1846" y="-1643.8" font-family="Monospace" font-style="italic" font-size="14.00">dimensions:</text>
<text text-anchor="start" x="1937" y="-1643.8" font-family="Monospace" font-size="14.00"> {detector, exposure}</text>
<text text-anchor="start" x="1846" y="-1617.8" font-family="Monospace" font-style="italic" font-size="14.00">storage class:</text>
<text text-anchor="start" x="1962" y="-1617.8" font-family="Monospace" font-size="14.00"> Exposure</text>
</g>
<!-- 998e6c26:0&#45;&gt;isr:2 -->
<g id="edge26" class="edge"><title>998e6c26:0&#45;&gt;isr:2</title>
<path fill="none" stroke="black" stroke-width="1.5" d="M1979,-1600.14C1979,-1552.48 1979,-1496 1979,-1496 1979,-1496 1153.1,-1496 1153.1,-1496"/>
<polygon fill="black" stroke="black" points="1153.1,-1490.75 1138.1,-1496 1153.1,-1501.25 1153.1,-1490.75"/>
</g>
<!-- c1110ee2:0 -->
<g id="node25" class="node"><title>c1110ee2:0</title>
<path fill="#f5f5f5" stroke="#00babc" stroke-width="3" d="M349.25,-1083.5C349.25,-1083.5 98.75,-1083.5 98.75,-1083.5 92.75,-1083.5 86.75,-1077.5 86.75,-1071.5 86.75,-1071.5 86.75,-966.5 86.75,-966.5 86.75,-960.5 92.75,-954.5 98.75,-954.5 98.75,-954.5 349.25,-954.5 349.25,-954.5 355.25,-954.5 361.25,-960.5 361.25,-966.5 361.25,-966.5 361.25,-1071.5 361.25,-1071.5 361.25,-1077.5 355.25,-1083.5 349.25,-1083.5"/>
<text text-anchor="start" x="108" y="-1055.1" font-family="Monospace" font-weight="bold" font-size="18.00">ps1_pv3_3pi_20170110</text>
<text text-anchor="start" x="108" y="-1024.6" font-family="Monospace" font-weight="bold" font-size="18.00">gaia_dr3_20230707</text>
<text text-anchor="start" x="108" y="-997.8" font-family="Monospace" font-style="italic" font-size="14.00">dimensions:</text>
<text text-anchor="start" x="199" y="-997.8" font-family="Monospace" font-size="14.00"> {htm7}</text>
<text text-anchor="start" x="108" y="-971.8" font-family="Monospace" font-style="italic" font-size="14.00">storage class:</text>
<text text-anchor="start" x="224" y="-971.8" font-family="Monospace" font-size="14.00"> SimpleCatalog</text>
</g>
<!-- c1110ee2:0&#45;&gt;calibrate:2 -->
<g id="edge27" class="edge"><title>c1110ee2:0&#45;&gt;calibrate:2</title>
<path fill="none" stroke="black" stroke-width="1.5" d="M361.461,-962C563.148,-962 915.583,-962 915.583,-962 915.583,-962 915.583,-914.777 915.583,-914.777"/>
<polygon fill="black" stroke="black" points="920.833,-914.777 915.583,-899.777 910.333,-914.777 920.833,-914.777"/>
</g>
</g>
</svg>
