<?xml version="1.0" encoding="UTF-8" standalone="no"?>
<!DOCTYPE svg PUBLIC "-//W3C//DTD SVG 1.1//EN"
 "http://www.w3.org/Graphics/SVG/1.1/DTD/svg11.dtd">
<!-- Generated by graphviz version 2.30.1 (20201013.1554)
 -->
<!-- Title: Pipeline Pages: 1 -->
<svg width="1029pt" height="416pt"
 viewBox="0.00 0.00 1029.00 416.00" xmlns="http://www.w3.org/2000/svg" xmlns:xlink="http://www.w3.org/1999/xlink">
<g id="graph0" class="graph" transform="scale(1 1) rotate(0) translate(4 412)">
<title>Pipeline</title>
<polygon fill="white" stroke="white" points="-4,5 -4,-412 1026,-412 1026,5 -4,5"/>
<!-- consolidateVisitSummary:2 -->
<g id="node1" class="node"><title>consolidateVisitSummary:2</title>
<polygon fill="#b1f2ef" stroke="black" stroke-width="3" points="496.25,-253.5 -0.25,-253.5 -0.25,-154.5 496.25,-154.5 496.25,-253.5"/>
<text text-anchor="start" x="21" y="-225.1" font-family="Monospace" font-weight="bold" font-size="18.00">consolidateVisitSummary</text>
<text text-anchor="start" x="21" y="-197.8" font-family="Monospace" font-size="14.00">lsst.pipe.tasks.postprocess.ConsolidateVisitSummaryTask</text>
<text text-anchor="start" x="21" y="-171.8" font-family="Monospace" font-style="italic" font-size="14.00">dimensions:</text>
<text text-anchor="start" x="112" y="-171.8" font-family="Monospace" font-size="14.00"> {visit}</text>
</g>
<!-- visitSummary:0 -->
<g id="node3" class="node"><title>visitSummary:0</title>
<path fill="#f5f5f5" stroke="#00babc" stroke-width="3" d="M382,-99.5C382,-99.5 114,-99.5 114,-99.5 108,-99.5 102,-93.5 102,-87.5 102,-87.5 102,-12.5 102,-12.5 102,-6.5 108,-0.5 114,-0.5 114,-0.5 382,-0.5 382,-0.5 388,-0.5 394,-6.5 394,-12.5 394,-12.5 394,-87.5 394,-87.5 394,-93.5 388,-99.5 382,-99.5"/>
<text text-anchor="start" x="123" y="-71.1" font-family="Monospace" font-weight="bold" font-size="18.00">visitSummary</text>
<text text-anchor="start" x="123" y="-43.8" font-family="Monospace" font-style="italic" font-size="14.00">dimensions:</text>
<text text-anchor="start" x="214" y="-43.8" font-family="Monospace" font-size="14.00"> {visit}</text>
<text text-anchor="start" x="123" y="-17.8" font-family="Monospace" font-style="italic" font-size="14.00">storage class:</text>
<text text-anchor="start" x="239" y="-17.8" font-family="Monospace" font-size="14.00"> ExposureCatalog</text>
</g>
<!-- consolidateVisitSummary:2&#45;&gt;visitSummary:0 -->
<g id="edge1" class="edge"><title>consolidateVisitSummary:2&#45;&gt;visitSummary:0</title>
<path fill="none" stroke="black" stroke-width="1.5" d="M248,-154.426C248,-154.426 248,-114.745 248,-114.745"/>
<polygon fill="black" stroke="black" points="253.25,-114.745 248,-99.7452 242.75,-114.745 253.25,-114.745"/>
</g>
<!-- calexp:0 -->
<g id="node2" class="node"><title>calexp:0</title>
<path fill="#f5f5f5" stroke="#00babc" stroke-width="3" d="M377.25,-407.5C377.25,-407.5 118.75,-407.5 118.75,-407.5 112.75,-407.5 106.75,-401.5 106.75,-395.5 106.75,-395.5 106.75,-320.5 106.75,-320.5 106.75,-314.5 112.75,-308.5 118.75,-308.5 118.75,-308.5 377.25,-308.5 377.25,-308.5 383.25,-308.5 389.25,-314.5 389.25,-320.5 389.25,-320.5 389.25,-395.5 389.25,-395.5 389.25,-401.5 383.25,-407.5 377.25,-407.5"/>
<text text-anchor="start" x="128" y="-379.1" font-family="Monospace" font-weight="bold" font-size="18.00">calexp</text>
<text text-anchor="start" x="128" y="-351.8" font-family="Monospace" font-style="italic" font-size="14.00">dimensions:</text>
<text text-anchor="start" x="219" y="-351.8" font-family="Monospace" font-size="14.00"> {detector, visit}</text>
<text text-anchor="start" x="128" y="-325.8" font-family="Monospace" font-style="italic" font-size="14.00">storage class:</text>
<text text-anchor="start" x="244" y="-325.8" font-family="Monospace" font-size="14.00"> ExposureF</text>
</g>
<!-- calexp:0&#45;&gt;consolidateVisitSummary:2 -->
<g id="edge2" class="edge"><title>calexp:0&#45;&gt;consolidateVisitSummary:2</title>
<path fill="none" stroke="black" stroke-width="1.5" d="M248,-308.426C248,-308.426 248,-268.745 248,-268.745"/>
<polygon fill="black" stroke="black" points="253.25,-268.745 248,-253.745 242.75,-268.745 253.25,-268.745"/>
</g>
<!-- consolidatePreSourceTable:2 -->
<g id="node4" class="node"><title>consolidatePreSourceTable:2</title>
<polygon fill="#b1f2ef" stroke="black" stroke-width="3" points="1021.25,-253.5 532.75,-253.5 532.75,-154.5 1021.25,-154.5 1021.25,-253.5"/>
<text text-anchor="start" x="554" y="-225.1" font-family="Monospace" font-weight="bold" font-size="18.00">consolidatePreSourceTable</text>
<text text-anchor="start" x="554" y="-197.8" font-family="Monospace" font-size="14.00">lsst.pipe.tasks.postprocess.ConsolidateSourceTableTask</text>
<text text-anchor="start" x="554" y="-171.8" font-family="Monospace" font-style="italic" font-size="14.00">dimensions:</text>
<text text-anchor="start" x="645" y="-171.8" font-family="Monospace" font-size="14.00"> {visit}</text>
</g>
<!-- preSourceTable_visit:0 -->
<g id="node6" class="node"><title>preSourceTable_visit:0</title>
<path fill="#f5f5f5" stroke="#00babc" stroke-width="3" d="M892,-99.5C892,-99.5 662,-99.5 662,-99.5 656,-99.5 650,-93.5 650,-87.5 650,-87.5 650,-12.5 650,-12.5 650,-6.5 656,-0.5 662,-0.5 662,-0.5 892,-0.5 892,-0.5 898,-0.5 904,-6.5 904,-12.5 904,-12.5 904,-87.5 904,-87.5 904,-93.5 898,-99.5 892,-99.5"/>
<text text-anchor="start" x="671" y="-71.1" font-family="Monospace" font-weight="bold" font-size="18.00">preSourceTable_visit</text>
<text text-anchor="start" x="671" y="-43.8" font-family="Monospace" font-style="italic" font-size="14.00">dimensions:</text>
<text text-anchor="start" x="762" y="-43.8" font-family="Monospace" font-size="14.00"> {visit}</text>
<text text-anchor="start" x="671" y="-17.8" font-family="Monospace" font-style="italic" font-size="14.00">storage class:</text>
<text text-anchor="start" x="787" y="-17.8" font-family="Monospace" font-size="14.00"> DataFrame</text>
</g>
<!-- consolidatePreSourceTable:2&#45;&gt;preSourceTable_visit:0 -->
<g id="edge3" class="edge"><title>consolidatePreSourceTable:2&#45;&gt;preSourceTable_visit:0</title>
<path fill="none" stroke="black" stroke-width="1.5" d="M777,-154.426C777,-154.426 777,-114.745 777,-114.745"/>
<polygon fill="black" stroke="black" points="782.25,-114.745 777,-99.7452 771.75,-114.745 782.25,-114.745"/>
</g>
<!-- preSourceTable:0 -->
<g id="node5" class="node"><title>preSourceTable:0</title>
<path fill="#f5f5f5" stroke="#00babc" stroke-width="3" d="M906.25,-407.5C906.25,-407.5 647.75,-407.5 647.75,-407.5 641.75,-407.5 635.75,-401.5 635.75,-395.5 635.75,-395.5 635.75,-320.5 635.75,-320.5 635.75,-314.5 641.75,-308.5 647.75,-308.5 647.75,-308.5 906.25,-308.5 906.25,-308.5 912.25,-308.5 918.25,-314.5 918.25,-320.5 918.25,-320.5 918.25,-395.5 918.25,-395.5 918.25,-401.5 912.25,-407.5 906.25,-407.5"/>
<text text-anchor="start" x="657" y="-379.1" font-family="Monospace" font-weight="bold" font-size="18.00">preSourceTable</text>
<text text-anchor="start" x="657" y="-351.8" font-family="Monospace" font-style="italic" font-size="14.00">dimensions:</text>
<text text-anchor="start" x="748" y="-351.8" font-family="Monospace" font-size="14.00"> {detector, visit}</text>
<text text-anchor="start" x="657" y="-325.8" font-family="Monospace" font-style="italic" font-size="14.00">storage class:</text>
<text text-anchor="start" x="773" y="-325.8" font-family="Monospace" font-size="14.00"> DataFrame</text>
</g>
<!-- preSourceTable:0&#45;&gt;consolidatePreSourceTable:2 -->
<g id="edge4" class="edge"><title>preSourceTable:0&#45;&gt;consolidatePreSourceTable:2</title>
<path fill="none" stroke="black" stroke-width="1.5" d="M777,-308.426C777,-308.426 777,-268.745 777,-268.745"/>
<polygon fill="black" stroke="black" points="782.25,-268.745 777,-253.745 771.75,-268.745 782.25,-268.745"/>
</g>
</g>
</svg>
